{
.appVersion = "1192";
customParameters = (
{
name = Axes;
value = (
{
Name = Width;
Tag = wdth;
},
{
Name = Slant;
Tag = slnt;
},
{
Name = Weight;
Tag = wght;
}
);
},
{
name = "Variable Font Origin";
value = "E0F5E986-8A77-409E-9DB3-A90D066F072F";
}
);
date = "2019-02-24 09:28:57 +0000";
designer = "Lauren Herda";
designerURL = "http://www.herda.me/";
familyName = "Lakehurst Gothic";
featurePrefixes = (
{
automatic = 1;
code = "languagesystem DFLT dflt;\012languagesystem latn dflt;\012languagesystem latn CAT;\012languagesystem latn ROM;\012languagesystem latn MOL;\012";
name = Languagesystems;
}
);
features = (
{
automatic = 1;
code = "feature locl;\012feature ordn;\012feature pnum;\012feature tnum;\012feature zero;\012feature salt;\012feature ss01;\012";
name = aalt;
},
{
automatic = 1;
code = "script latn;\012language CAT;\012sub  L' periodcentered' L by Ldot;\012language ROM;\012sub Scedilla by Scommaaccent;\012sub Tcedilla by Tcommaaccent;\012language MOL;\012sub Scedilla by Scommaaccent;\012sub Tcedilla by Tcommaaccent;\012";
name = locl;
},
{
automatic = 1;
code = "sub [zero one two three four five six seven eight nine] [O]' by ordmasculine;\012";
name = ordn;
},
{
automatic = 1;
code = "sub zero.tf by zero;\012sub one.tf by one;\012sub two.tf by two;\012sub three.tf by three;\012sub four.tf by four;\012sub five.tf by five;\012sub six.tf by six;\012sub seven.tf by seven;\012sub eight.tf by eight;\012sub nine.tf by nine;\012";
name = pnum;
},
{
automatic = 1;
code = "sub zero by zero.tf;\012sub one by one.tf;\012sub two by two.tf;\012sub three by three.tf;\012sub four by four.tf;\012sub five by five.tf;\012sub six by six.tf;\012sub seven by seven.tf;\012sub eight by eight.tf;\012sub nine by nine.tf;\012";
name = tnum;
},
{
automatic = 1;
code = "sub zero by zero.zero;\012";
name = zero;
},
{
automatic = 1;

glyphs = (
{
glyphname = A;
lastChange = "2019-06-07 13:30:34 +0000";
layers = (
{
anchors = (
{
name = above;
position = "{383, 875}";
},
{
name = lowerRight;
position = "{762, 0}";
}
);
hints = (
{
horizontal = 1;
origin = "{1, 3}";
target = "{1, 2}";
type = Stem;
}
);
layerId = "E82D559A-267E-4BF3-BBA1-0778DA3FF57C";
paths = (
{
closed = 1;
nodes = (
"166 0 LINE",
"401 577 LINE",
"373 577 LINE",
"608 0 LINE",
"762 0 LINE",
"462 700 LINE",
"312 700 LINE",
"12 0 LINE"
);
},
{
closed = 1;
nodes = (
"588 145 LINE",
"588 275 LINE",
"185 275 LINE",
"185 145 LINE"
);
}
);
width = 774;
},
{
anchors = (
{
name = above;
position = "{561, 875}";
},
{
name = lowerRight;
position = "{1112, 0}";
}
);
layerId = "B8F43E33-4D80-4AEE-B4E2-DC92E4FCAAE5";
paths = (
{
closed = 1;
nodes = (
"182 0 LINE",
"580 587 LINE",
"544 587 LINE",
"942 0 LINE",
"1112 0 LINE",
"637 700 LINE",
"487 700 LINE",
"12 0 LINE"
);
},
{
closed = 1;
nodes = (
"881 145 LINE",
"881 275 LINE",
"242 275 LINE",
"242 145 LINE"
);
}
);
width = 1124;
},
{
anchors = (
{
name = above;
position = "{519, 875}";
},
{
name = lowerRight;
position = "{709, 0}";
}
);
layerId = "198E78DA-6138-42C0-8847-C36925CEE918";
paths = (
{
closed = 1;
nodes = (
"115 0 LINE",
"473 577 LINE",
"445 577 LINE",
"557 0 LINE",
"709 0 LINE",
"558 700 LINE",
"408 700 LINE",
"-41 0 LINE"
);
},
{
closed = 1;
nodes = (
"567 145 LINE",
"594 275 LINE",
"191 275 LINE",
"164 145 LINE"
);
}
);
width = 774;
},
{
anchors = (
{
name = above;
position = "{388, 875}";
},
{
name = lowerRight;
position = "{762, 0}";
}
);
layerId = "E0F5E986-8A77-409E-9DB3-A90D066F072F";
paths = (
{
closed = 1;
nodes = (
"91 0 LINE",
"356 630 LINE",
"419 630 LINE",
"683 0 LINE",
"762 0 LINE",
"462 700 LINE",
"312 700 LINE",
"12 0 LINE"
);
},
{
closed = 1;
nodes = (
"618 205 LINE",
"618 275 LINE",
"155 275 LINE",
"155 205 LINE"
);
}
);
width = 774;
},
{
anchors = (
{
name = above;
position = "{563, 875}";
},
{
name = lowerRight;
position = "{1112, 0}";
}
);
hints = (
{
horizontal = 1;
place = "{215, 60}";
type = Stem;
}
);
layerId = "671D7F47-0040-4C88-995A-F1154CC787CA";
paths = (
{
closed = 1;
nodes = (
"98 0 LINE",
"524 630 LINE",
"599 630 LINE",
"1025 0 LINE",
"1112 0 LINE",
"637 700 LINE",
"487 700 LINE",
"12 0 LINE"
);
},
{
closed = 1;
nodes = (
"895 205 LINE",
"895 275 LINE",
"232 275 LINE",
"232 205 LINE"
);
}
);
width = 1124;
},
{
anchors = (
{
name = above;
position = "{524, 875}";
},
{
name = lowerRight;
position = "{709, 0}";
}
);
hints = (
{
horizontal = 1;
origin = "{1, 3}";
target = "{1, 2}";
type = Stem;
}
);
layerId = "69FAE2FB-B0EC-4DE1-A39D-F4FC44956106";
paths = (
{
closed = 1;
nodes = (
"43 0 LINE",
"444 630 LINE",
"502 630 LINE",
"637 0 LINE",
"709 0 LINE",
"558 700 LINE",
"408 700 LINE",
"-41 0 LINE"
);
},
{
closed = 1;
nodes = (
"615 205 LINE",
"615 275 LINE",
"152 275 LINE",
"152 205 LINE"
);
}
);
width = 774;
}
);
leftKerningGroup = A;
rightKerningGroup = A;
unicode = "0041,0061";
},
{
glyphname = AE;
lastChange = "2019-06-02 14:00:56 +0000";
layers = (
{
hints = (
{
horizontal = 1;
origin = "{0, 3}";
target = "{2, 2}";
type = Stem;
},
{
horizontal = 1;
origin = "{4, 3}";
target = "{4, 2}";
type = Stem;
},
{
horizontal = 1;
origin = "{5, 3}";
target = "{0, 2}";
type = Stem;
},
{
horizontal = 1;
origin = "{1, 3}";
target = "{1, 2}";
type = Stem;
},
{
origin = "{3, 3}";
target = "{3, 0}";
type = Stem;
}
);
layerId = "E82D559A-267E-4BF3-BBA1-0778DA3FF57C";
paths = (
{
closed = 1;
nodes = (
"166 0 LINE",
"451 700 LINE",
"312 700 LINE",
"12 0 LINE"
);
},
{
closed = 1;
nodes = (
"461 145 LINE",
"461 275 LINE",
"185 275 LINE",
"185 145 LINE"
);
},
{
closed = 1;
nodes = (
"835 0 LINE",
"835 140 LINE",
"465 140 LINE",
"465 0 LINE"
);
},
{
closed = 1;
nodes = (
"535 0 LINE",
"535 700 LINE",
"395 700 LINE",
"395 0 LINE"
);
},
{
closed = 1;
nodes = (
"745 280 LINE",
"745 420 LINE",
"465 420 LINE",
"465 280 LINE"
);
},
{
closed = 1;
nodes = (
"835 560 LINE",
"835 700 LINE",
"325 700 LINE",
"325 560 LINE"
);
}
);
width = 905;
},
{
layerId = "B8F43E33-4D80-4AEE-B4E2-DC92E4FCAAE5";
paths = (
{
closed = 1;
nodes = (
"184 0 LINE",
"681 700 LINE",
"487 700 LINE",
"12 0 LINE"
);
},
{
closed = 1;
nodes = (
"661 145 LINE",
"661 275 LINE",
"220 275 LINE",
"220 145 LINE"
);
},
{
closed = 1;
nodes = (
"1150 0 LINE",
"1150 140 LINE",
"655 140 LINE",
"655 0 LINE"
);
},
{
closed = 1;
nodes = (
"725 0 LINE",
"725 700 LINE",
"585 700 LINE",
"585 0 LINE"
);
},
{
closed = 1;
nodes = (
"1110 280 LINE",
"1110 420 LINE",
"655 420 LINE",
"655 280 LINE"
);
},
{
closed = 1;
nodes = (
"1150 560 LINE",
"1150 700 LINE",
"655 700 LINE",
"655 560 LINE"
);
}
);
width = 1220;
},
{
layerId = "198E78DA-6138-42C0-8847-C36925CEE918";
paths = (
{
closed = 1;
nodes = (
"115 0 LINE",
"562 700 LINE",
"408 700 LINE",
"-41 0 LINE"
);
},
{
closed = 1;
nodes = (
"460 145 LINE",
"487 275 LINE",
"191 275 LINE",
"164 145 LINE"
);
},
{
closed = 1;
nodes = (
"803 0 LINE",
"833 140 LINE",
"463 140 LINE",
"433 0 LINE"
);
},
{
closed = 1;
nodes = (
"503 0 LINE",
"652 700 LINE",
"512 700 LINE",
"363 0 LINE"
);
},
{
closed = 1;
nodes = (
"773 280 LINE",
"802 420 LINE",
"522 420 LINE",
"493 280 LINE"
);
},
{
closed = 1;
nodes = (
"922 560 LINE",
"952 700 LINE",
"442 700 LINE",
"412 560 LINE"
);
}
);
width = 926;
},
{
layerId = "E0F5E986-8A77-409E-9DB3-A90D066F072F";
paths = (
{
closed = 1;
nodes = (
"87 0 LINE",
"365 700 LINE",
"289 700 LINE",
"12 0 LINE"
);
},
{
closed = 1;
nodes = (
"500 215 LINE",
"500 275 LINE",
"151 275 LINE",
"151 215 LINE"
);
},
{
closed = 1;
nodes = (
"868 0 LINE",
"868 70 LINE",
"500 70 LINE",
"500 0 LINE"
);
},
{
closed = 1;
nodes = (
"535 0 LINE",
"535 700 LINE",
"465 700 LINE",
"465 0 LINE"
);
},
{
closed = 1;
nodes = (
"789 315 LINE",
"789 385 LINE",
"500 385 LINE",
"500 315 LINE"
);
},
{
closed = 1;
nodes = (
"868 630 LINE",
"868 700 LINE",
"310 700 LINE",
"310 630 LINE"
);
}
);
width = 938;
},
{
hints = (
{
horizontal = 1;
origin = "{0, 3}";
target = "{2, 2}";
type = Stem;
},
{
horizontal = 1;
origin = "{4, 3}";
target = "{4, 2}";
type = Stem;
},
{
horizontal = 1;
origin = "{5, 3}";
target = "{0, 2}";
type = Stem;
},
{
horizontal = 1;
origin = "{1, 3}";
target = "{1, 2}";
type = Stem;
},
{
origin = "{3, 3}";
target = "{3, 0}";
type = Stem;
}
);
layerId = "671D7F47-0040-4C88-995A-F1154CC787CA";
paths = (
{
closed = 1;
nodes = (
"96 0 LINE",
"554 700 LINE",
"471 700 LINE",
"12 0 LINE"
);
},
{
closed = 1;
nodes = (
"704 215 LINE",
"704 275 LINE",
"190 275 LINE",
"190 215 LINE"
);
},
{
closed = 1;
nodes = (
"1187 0 LINE",
"1187 70 LINE",
"694 70 LINE",
"694 0 LINE"
);
},
{
closed = 1;
nodes = (
"729 0 LINE",
"729 700 LINE",
"659 700 LINE",
"659 0 LINE"
);
},
{
closed = 1;
nodes = (
"1158 315 LINE",
"1158 385 LINE",
"694 385 LINE",
"694 315 LINE"
);
},
{
closed = 1;
nodes = (
"1187 630 LINE",
"1187 700 LINE",
"494 700 LINE",
"494 630 LINE"
);
}
);
width = 1257;
},
{
guideLines = (
{
angle = 78;
position = "{493, 275}";
}
);
hints = (
{
horizontal = 1;
origin = "{0, 3}";
target = "{2, 2}";
type = Stem;
},
{
horizontal = 1;
origin = "{4, 3}";
target = "{4, 2}";
type = Stem;
},
{
horizontal = 1;
origin = "{5, 3}";
target = "{0, 2}";
type = Stem;
},
{
horizontal = 1;
origin = "{1, 3}";
target = "{1, 2}";
type = Stem;
},
{
origin = "{3, 3}";
target = "{3, 0}";
type = Stem;
}
);
layerId = "69FAE2FB-B0EC-4DE1-A39D-F4FC44956106";
paths = (
{
closed = 1;
nodes = (
"35 2 LINE",
"470 700 LINE",
"392 700 LINE",
"-41 0 LINE"
);
},
{
closed = 1;
nodes = (
"480 215 LINE",
"493 275 LINE",
"154 275 LINE",
"141 215 LINE"
);
},
{
closed = 1;
nodes = (
"820 0 LINE",
"835 70 LINE",
"474 70 LINE",
"459 0 LINE"
);
},
{
closed = 1;
nodes = (
"487 0 LINE",
"636 700 LINE",
"566 700 LINE",
"417 0 LINE"
);
},
{
closed = 1;
nodes = (
"801 315 LINE",
"816 385 LINE",
"541 385 LINE",
"526 315 LINE"
);
},
{
closed = 1;
nodes = (
"954 630 LINE",
"969 700 LINE",
"411 700 LINE",
"396 630 LINE"
);
}
);
width = 943;
}
);
leftKerningGroup = A;
leftMetricsKey = A;
rightKerningGroup = E;
rightMetricsKey = E;
unicode = "00C6,00E6";
},
{
glyphname = B;
lastChange = "2019-06-02 18:11:56 +0000";
layers = (
{
hints = (
{
horizontal = 1;
origin = "{1, 3}";
target = "{0, 19}";
type = Stem;
},
{
horizontal = 1;
origin = "{0, 14}";
target = "{0, 13}";
type = Stem;
},
{
horizontal = 1;
origin = "{0, 8}";
target = "{1, 2}";
type = Stem;
},
{
origin = "{1, 3}";
target = "{1, 0}";
type = Stem;
},
{
origin = "{0, 17}";
target = "{0, 1}";
type = Stem;
}
);
layerId = "E82D559A-267E-4BF3-BBA1-0778DA3FF57C";
paths = (
{
closed = 1;
nodes = (
"515 0 LINE",
"655 70 LINE",
"655 280 LINE",
"585 350 LINE",
"655 420 LINE",
"655 630 LINE",
"515 700 LINE",
"141 700 LINE",
"141 560 LINE",
"505 560 LINE",
"505 560 LINE",
"505 420 LINE",
"505 420 LINE",
"141 420 LINE",
"141 280 LINE",
"505 280 LINE",
"505 280 LINE",
"505 140 LINE",
"505 140 LINE",
"141 140 LINE",
"141 0 LINE"
);
},
{
closed = 1;
nodes = (
"210 0 LINE",
"210 700 LINE",
"70 700 LINE",
"70 0 LINE"
);
}
);
width = 725;
},
{
layerId = "B8F43E33-4D80-4AEE-B4E2-DC92E4FCAAE5";
paths = (
{
closed = 1;
nodes = (
"873 0 LINE",
"1013 70 LINE",
"1013 280 LINE",
"943 350 LINE",
"1013 420 LINE",
"1013 630 LINE",
"873 700 LINE",
"141 700 LINE",
"141 560 LINE",
"863 560 LINE",
"863 560 LINE",
"863 420 LINE",
"863 420 LINE",
"141 420 LINE",
"141 280 LINE",
"863 280 LINE",
"863 280 LINE",
"863 140 LINE",
"863 140 LINE",
"141 140 LINE",
"141 0 LINE"
);
},
{
closed = 1;
nodes = (
"210 0 LINE",
"210 700 LINE",
"70 700 LINE",
"70 0 LINE"
);
}
);
width = 1083;
},
{
layerId = "198E78DA-6138-42C0-8847-C36925CEE918";
paths = (
{
closed = 1;
nodes = (
"463 0 LINE",
"617 70 LINE",
"660 280 LINE",
"606 349 LINE",
"692 420 LINE",
"735 630 LINE",
"610 700 LINE",
"237 700 LINE",
"207 560 LINE",
"571 560 LINE",
"571 560 LINE",
"542 420 LINE",
"542 420 LINE",
"177 420 LINE",
"148 280 LINE",
"511 280 LINE",
"511 280 LINE",
"482 140 LINE",
"482 140 LINE",
"118 140 LINE",
"88 0 LINE"
);
},
{
closed = 1;
nodes = (
"157 0 LINE",
"306 700 LINE",
"166 700 LINE",
"17 0 LINE"
);
}
);
width = 726;
},
{
layerId = "E0F5E986-8A77-409E-9DB3-A90D066F072F";
paths = (
{
closed = 1;
nodes = (
"515 0 LINE",
"655 70 LINE",
"655 280 LINE",
"585 350 LINE",
"655 420 LINE",
"655 630 LINE",
"515 700 LINE",
"106 700 LINE",
"106 630 LINE",
"505 630 LINE",
"585 591 LINE",
"585 450 LINE",
"520 385 LINE",
"106 385 LINE",
"106 315 LINE",
"520 315 LINE",
"585 250 LINE",
"585 110 LINE",
"505 70 LINE",
"106 70 LINE",
"106 0 LINE"
);
},
{
closed = 1;
nodes = (
"140 0 LINE",
"140 700 LINE",
"70 700 LINE",
"70 0 LINE"
);
}
);
width = 725;
},
{
hints = (
{
horizontal = 1;
origin = "{1, 3}";
target = "{0, 19}";
type = Stem;
},
{
horizontal = 1;
origin = "{0, 14}";
target = "{0, 13}";
type = Stem;
},
{
horizontal = 1;
origin = "{0, 8}";
target = "{1, 2}";
type = Stem;
},
{
origin = "{1, 3}";
target = "{1, 0}";
type = Stem;
},
{
origin = "{0, 17}";
target = "{0, 1}";
type = Stem;
}
);
layerId = "671D7F47-0040-4C88-995A-F1154CC787CA";
paths = (
{
closed = 1;
nodes = (
"803 0 LINE",
"943 70 LINE",
"943 280 LINE",
"873 350 LINE",
"943 420 LINE",
"943 630 LINE",
"803 700 LINE",
"106 700 LINE",
"106 630 LINE",
"793 630 LINE",
"873 591 LINE",
"873 450 LINE",
"808 385 LINE",
"106 385 LINE",
"106 315 LINE",
"808 315 LINE",
"873 250 LINE",
"873 110 LINE",
"793 70 LINE",
"106 70 LINE",
"106 0 LINE"
);
},
{
closed = 1;
nodes = (
"140 0 LINE",
"140 700 LINE",
"70 700 LINE",
"70 0 LINE"
);
}
);
width = 1013;
},
{
guideLines = (
{
angle = 78;
position = "{386, 577}";
}
);
hints = (
{
horizontal = 1;
origin = "{1, 3}";
target = "{0, 11}";
type = Stem;
},
{
horizontal = 1;
origin = "{0, 17}";
target = "{0, 16}";
type = Stem;
},
{
horizontal = 1;
origin = "{0, 18}";
target = "{1, 2}";
type = Stem;
},
{
origin = "{1, 3}";
target = "{1, 0}";
type = Stem;
},
{
origin = "{0, 17}";
target = "{0, 11}";
type = Stem;
}
);
layerId = "69FAE2FB-B0EC-4DE1-A39D-F4FC44956106";
paths = (
{
closed = 1;
nodes = (
"463 0 LINE",
"617 70 LINE",
"660 280 LINE",
"606 349 LINE",
"692 420 LINE",
"735 630 LINE",
"610 700 LINE",
"202 700 LINE",
"187 630 LINE",
"592 630 LINE",
"656 594 LINE",
"628 458 LINE",
"538 384 LINE",
"135 384 LINE",
"120 314 LINE",
"545 314 LINE",
"585 262 LINE",
"556 119 LINE",
"448 70 LINE",
"68 70 LINE",
"53 0 LINE"
);
},
{
closed = 1;
nodes = (
"87 0 LINE",
"236 700 LINE",
"166 700 LINE",
"17 0 LINE"
);
}
);
width = 726;
}
);
leftMetricsKey = H;
unicode = "0042,0062";
},
{
glyphname = C;
lastChange = "2019-06-02 16:25:48 +0000";
layers = (
{
anchors = (
{
name = above;
position = "{368, 875}";
},
{
name = below;
position = "{367, 0}";
},
{
name = lowerRight;
position = "{485, 0}";
}
);
hints = (
{
horizontal = 1;
origin = "{0, 6}";
target = "{0, 19}";
type = Stem;
},
{
horizontal = 1;
origin = "{0, 16}";
target = "{0, 9}";
type = Stem;
},
{
origin = "{0, 18}";
target = "{0, 19}";
type = Stem;
},
{
origin = "{0, 0}";
target = "{0, 1}";
type = Stem;
}
);
layerId = "E82D559A-267E-4BF3-BBA1-0778DA3FF57C";
paths = (
{
closed = 1;
nodes = (
"525 0 LINE",
"665 70 LINE",
"665 210 LINE",
"525 210 LINE",
"525 140 LINE",
"525 140 LINE",
"210 140 LINE",
"210 140 LINE",
"210 560 LINE",
"210 560 LINE",
"525 560 LINE",
"525 560 LINE",
"525 490 LINE",
"665 490 LINE",
"665 630 LINE",
"525 700 LINE",
"210 700 LINE",
"70 630 LINE",
"70 70 LINE",
"210 0 LINE"
);
}
);
width = 735;
},
{
anchors = (
{
name = above;
position = "{587, 875}";
},
{
name = below;
position = "{587, 0}";
},
{
name = lowerRight;
position = "{823, 0}";
}
);
hints = (
{
horizontal = 1;
origin = "{0, 19}";
target = "{0, 6}";
type = Stem;
},
{
horizontal = 1;
origin = "{0, 9}";
target = "{0, 16}";
type = Stem;
},
{
origin = "{0, 18}";
target = "{0, 19}";
type = Stem;
},
{
origin = "{0, 0}";
target = "{0, 1}";
type = Stem;
}
);
layerId = "B8F43E33-4D80-4AEE-B4E2-DC92E4FCAAE5";
paths = (
{
closed = 1;
nodes = (
"963 0 LINE",
"1103 70 LINE",
"1103 210 LINE",
"963 210 LINE",
"963 140 LINE",
"963 140 LINE",
"210 140 LINE",
"210 140 LINE",
"210 560 LINE",
"210 560 LINE",
"963 560 LINE",
"963 560 LINE",
"963 490 LINE",
"1103 490 LINE",
"1103 630 LINE",
"963 700 LINE",
"210 700 LINE",
"70 630 LINE",
"70 70 LINE",
"210 0 LINE"
);
}
);
width = 1173;
},
{
anchors = (
{
name = above;
position = "{502, 875}";
},
{
name = below;
position = "{315, 0}";
},
{
name = lowerRight;
position = "{433, 0}";
}
);
hints = (
{
horizontal = 1;
origin = "{0, 19}";
target = "{0, 6}";
type = Stem;
},
{
horizontal = 1;
origin = "{0, 10}";
target = "{0, 16}";
type = Stem;
}
);
layerId = "198E78DA-6138-42C0-8847-C36925CEE918";
paths = (
{
closed = 1;
nodes = (
"474 0 LINE",
"628 70 LINE",
"658 210 LINE",
"518 210 LINE",
"503 140 LINE",
"503 140 LINE",
"188 140 LINE",
"188 140 LINE",
"277 560 LINE",
"277 560 LINE",
"592 560 LINE",
"592 560 LINE",
"577 490 LINE",
"717 490 LINE",
"746 630 LINE",
"621 700 LINE",
"306 700 LINE",
"151 630 LINE",
"33 70 LINE",
"159 0 LINE"
);
}
);
width = 737;
},
{
anchors = (
{
name = above;
position = "{368, 875}";
},
{
name = below;
position = "{367, 0}";
},
{
name = lowerRight;
position = "{485, 0}";
}
);
hints = (
{
horizontal = 1;
origin = "{0, 19}";
target = "{0, 18}";
type = Stem;
},
{
horizontal = 1;
origin = "{0, 17}";
target = "{0, 16}";
type = Stem;
},
{
origin = "{0, 18}";
target = "{0, 7}";
type = Stem;
},
{
origin = "{0, 4}";
target = "{0, 1}";
type = Stem;
}
);
layerId = "E0F5E986-8A77-409E-9DB3-A90D066F072F";
paths = (
{
closed = 1;
nodes = (
"525 0 LINE",
"665 70 LINE",
"665 240 LINE",
"595 240 LINE",
"595 113 LINE",
"508 70 LINE",
"227 70 LINE",
"140 113 LINE",
"140 587 LINE",
"227 630 LINE",
"508 630 LINE",
"595 587 LINE",
"595 460 LINE",
"665 460 LINE",
"665 630 LINE",
"525 700 LINE",
"210 700 LINE",
"70 630 LINE",
"70 70 LINE",
"210 0 LINE"
);
}
);
width = 735;
},
{
anchors = (
{
name = above;
position = "{548, 875}";
},
{
name = below;
position = "{587, 0}";
},
{
name = lowerRight;
position = "{807, 0}";
}
);
hints = (
{
horizontal = 1;
origin = "{0, 19}";
target = "{0, 18}";
type = Stem;
},
{
horizontal = 1;
origin = "{0, 17}";
target = "{0, 16}";
type = Stem;
},
{
origin = "{0, 18}";
target = "{0, 7}";
type = Stem;
},
{
origin = "{0, 4}";
target = "{0, 1}";
type = Stem;
}
);
layerId = "671D7F47-0040-4C88-995A-F1154CC787CA";
paths = (
{
closed = 1;
nodes = (
"963 0 LINE",
"1103 70 LINE",
"1103 240 LINE",
"1033 240 LINE",
"1033 113 LINE",
"946 70 LINE",
"227 70 LINE",
"140 113 LINE",
"140 587 LINE",
"227 630 LINE",
"946 630 LINE",
"1033 587 LINE",
"1033 460 LINE",
"1103 460 LINE",
"1103 630 LINE",
"963 700 LINE",
"210 700 LINE",
"70 630 LINE",
"70 70 LINE",
"210 0 LINE"
);
}
);
width = 1173.33333;
},
{
anchors = (
{
name = above;
position = "{502, 875}";
},
{
name = below;
position = "{315, 0}";
},
{
name = lowerRight;
position = "{433, 0}";
}
);
guideLines = (
{
angle = 78;
position = "{664, 240}";
}
);
hints = (
{
horizontal = 1;
origin = "{0, 19}";
target = "{0, 18}";
type = Stem;
},
{
horizontal = 1;
origin = "{0, 17}";
target = "{0, 16}";
type = Stem;
}
);
layerId = "69FAE2FB-B0EC-4DE1-A39D-F4FC44956106";
paths = (
{
closed = 1;
nodes = (
"474 0 LINE",
"628 70 LINE",
"664 240 LINE",
"593 240 LINE",
"567 119 LINE",
"459 70 LINE",
"177 70 LINE",
"112 106 LINE",
"212 581 LINE",
"321 630 LINE",
"603 630 LINE",
"667 594 LINE",
"640 460 LINE",
"711 460 LINE",
"746 630 LINE",
"621 700 LINE",
"306 700 LINE",
"151 630 LINE",
"33 70 LINE",
"159 0 LINE"
);
}
);
width = 736;
}
);
leftMetricsKey = O;
rightMetricsKey = O;
unicode = "0043,0063";
},
{
glyphname = D;
lastChange = "2019-06-02 16:27:41 +0000";
layers = (
{
anchors = (
{
name = above;
position = "{366, 875}";
}
);
hints = (
{
horizontal = 1;
origin = "{0, 5}";
target = "{1, 6}";
type = Stem;
},
{
horizontal = 1;
origin = "{1, 1}";
target = "{0, 4}";
type = Stem;
},
{
origin = "{0, 5}";
target = "{1, 7}";
type = Stem;
},
{
origin = "{0, 0}";
target = "{0, 1}";
type = Stem;
}
);
layerId = "E82D559A-267E-4BF3-BBA1-0778DA3FF57C";
paths = (
{
closed = 1;
nodes = (
"525 0 LINE",
"665 70 LINE",
"665 630 LINE",
"525 700 LINE",
"70 700 LINE",
"70 0 LINE"
);
},
{
closed = 1;
nodes = (
"210 605 LINE",
"165 560 LINE",
"525 560 LINE",
"525 560 LINE",
"525 140 LINE",
"525 140 LINE",
"165 140 LINE",
"210 95 LINE"
);
}
);
width = 735;
},
{
anchors = (
{
name = above;
position = "{586, 875}";
}
);
layerId = "B8F43E33-4D80-4AEE-B4E2-DC92E4FCAAE5";
paths = (
{
closed = 1;
nodes = (
"963 0 LINE",
"1103 70 LINE",
"1103 630 LINE",
"963 700 LINE",
"70 700 LINE",
"70 0 LINE"
);
},
{
closed = 1;
nodes = (
"210 605 LINE",
"165 560 LINE",
"963 560 LINE",
"963 560 LINE",
"963 140 LINE",
"963 140 LINE",
"165 140 LINE",
"210 95 LINE"
);
}
);
width = 1172.5;
},
{
anchors = (
{
name = above;
position = "{479, 875}";
}
);
layerId = "198E78DA-6138-42C0-8847-C36925CEE918";
paths = (
{
closed = 1;
nodes = (
"473 0 LINE",
"627 70 LINE",
"745 630 LINE",
"620 700 LINE",
"166 700 LINE",
"17 0 LINE"
);
},
{
closed = 1;
nodes = (
"285 605 LINE",
"230 560 LINE",
"591 560 LINE",
"591 560 LINE",
"502 140 LINE",
"502 140 LINE",
"143 140 LINE",
"178 95 LINE"
);
}
);
width = 735;
},
{
anchors = (
{
name = above;
position = "{366, 875}";
}
);
layerId = "E0F5E986-8A77-409E-9DB3-A90D066F072F";
paths = (
{
closed = 1;
nodes = (
"525 0 LINE",
"665 70 LINE",
"665 630 LINE",
"525 700 LINE",
"70 700 LINE",
"70 0 LINE"
);
},
{
closed = 1;
nodes = (
"140 675 LINE",
"95 630 LINE",
"508 630 LINE",
"595 587 LINE",
"595 113 LINE",
"508 70 LINE",
"95 70 LINE",
"140 25 LINE"
);
}
);
width = 735;
},
{
anchors = (
{
name = above;
position = "{586, 875}";
}
);
hints = (
{
horizontal = 1;
origin = "{0, 5}";
target = "{1, 6}";
type = Stem;
},
{
horizontal = 1;
origin = "{1, 1}";
target = "{0, 4}";
type = Stem;
},
{
origin = "{0, 5}";
target = "{1, 7}";
type = Stem;
},
{
origin = "{0, 0}";
target = "{0, 1}";
type = Stem;
}
);
layerId = "671D7F47-0040-4C88-995A-F1154CC787CA";
paths = (
{
closed = 1;
nodes = (
"963 0 LINE",
"1103 70 LINE",
"1103 630 LINE",
"963 700 LINE",
"70 700 LINE",
"70 0 LINE"
);
},
{
closed = 1;
nodes = (
"140 675 LINE",
"95 630 LINE",
"946 630 LINE",
"1033 587 LINE",
"1033 113 LINE",
"946 70 LINE",
"95 70 LINE",
"140 25 LINE"
);
}
);
width = 1172.5;
},
{
anchors = (
{
name = above;
position = "{479, 875}";
}
);
hints = (
{
horizontal = 1;
origin = "{0, 5}";
target = "{0, 1}";
type = Stem;
},
{
horizontal = 1;
origin = "{0, 2}";
target = "{0, 4}";
type = Stem;
},
{
origin = "{0, 5}";
target = "{0, 4}";
type = Stem;
},
{
origin = "{0, 0}";
target = "{0, 1}";
type = Stem;
}
);
layerId = "69FAE2FB-B0EC-4DE1-A39D-F4FC44956106";
paths = (
{
closed = 1;
nodes = (
"473 0 LINE",
"627 70 LINE",
"745 630 LINE",
"620 700 LINE",
"166 700 LINE",
"17 0 LINE"
);
},
{
closed = 1;
nodes = (
"232 674 LINE",
"178 630 LINE",
"602 630 LINE",
"666 594 LINE",
"566 119 LINE",
"458 70 LINE",
"58 70 LINE",
"94 26 LINE"
);
}
);
width = 735;
}
);
leftMetricsKey = H;
rightMetricsKey = O;
unicode = "0044,0064";
},
{
glyphname = Eth;
lastChange = "2019-06-02 00:52:56 +0000";
layers = (
{
components = (
{
name = D;
transform = "{1, 0, 0, 1, 70, 0}";
}
);
hints = (
{
horizontal = 1;
origin = "{0, 0}";
target = "{0, 1}";
type = Stem;
}
);
layerId = "E82D559A-267E-4BF3-BBA1-0778DA3FF57C";
paths = (
{
closed = 1;
nodes = (
"385 280 LINE",
"385 420 LINE",
"35 420 LINE",
"35 280 LINE"
);
}
);
width = 805;
},
{
components = (
{
alignment = -1;
name = D;
transform = "{1, 0, 0, 1, 157.5, 0}";
}
);
layerId = "B8F43E33-4D80-4AEE-B4E2-DC92E4FCAAE5";
paths = (
{
closed = 1;
nodes = (
"507 280 LINE",
"507 420 LINE",
"87 420 LINE",
"87 280 LINE"
);
}
);
width = 1330;
},
{
components = (
{
name = D;
transform = "{1, 0, 0, 1, 70, 0}";
}
);
layerId = "198E78DA-6138-42C0-8847-C36925CEE918";
paths = (
{
closed = 1;
nodes = (
"392 280 LINE",
"421 420 LINE",
"71 420 LINE",
"42 280 LINE"
);
}
);
width = 805;
},
{
components = (
{
name = D;
transform = "{1, 0, 0, 1, 35, 0}";
}
);
layerId = "E0F5E986-8A77-409E-9DB3-A90D066F072F";
paths = (
{
closed = 1;
nodes = (
"245 315 LINE",
"245 385 LINE",
"35 385 LINE",
"35 315 LINE"
);
}
);
width = 770;
},
{
components = (
{
alignment = -1;
name = D;
transform = "{1, 0, 0, 1, 123, 0}";
}
);
hints = (
{
horizontal = 1;
origin = "{0, 0}";
target = "{0, 1}";
type = Stem;
}
);
layerId = "671D7F47-0040-4C88-995A-F1154CC787CA";
paths = (
{
closed = 1;
nodes = (
"332 315 LINE",
"332 385 LINE",
"122 385 LINE",
"122 315 LINE"
);
}
);
width = 1295;
},
{
components = (
{
alignment = -1;
name = D;
transform = "{1, 0, 0, 1, 35, 0}";
}
);
hints = (
{
horizontal = 1;
origin = "{0, 0}";
target = "{0, 1}";
type = Stem;
}
);
layerId = "69FAE2FB-B0EC-4DE1-A39D-F4FC44956106";
paths = (
{
closed = 1;
nodes = (
"252 315 LINE",
"281 385 LINE",
"71 385 LINE",
"42 315 LINE"
);
}
);
width = 770;
}
);
unicode = "00D0,00F0";
},
{
glyphname = E;
lastChange = "2019-06-02 23:43:33 +0000";
layers = (
{
anchors = (
{
name = above;
position = "{394, 875}";
},
{
name = lowerRight;
position = "{650, 0}";
}
);
hints = (
{
horizontal = 1;
origin = "{1, 2}";
target = "{0, 3}";
type = Stem;
},
{
horizontal = 1;
origin = "{2, 2}";
target = "{2, 3}";
type = Stem;
},
{
horizontal = 1;
origin = "{0, 2}";
target = "{3, 3}";
type = Stem;
},
{
origin = "{0, 3}";
target = "{0, 0}";
type = Stem;
}
);
layerId = "E82D559A-267E-4BF3-BBA1-0778DA3FF57C";
paths = (
{
closed = 1;
nodes = (
"210 0 LINE",
"210 700 LINE",
"70 700 LINE",
"70 0 LINE"
);
},
{
closed = 1;
nodes = (
"650 0 LINE",
"650 140 LINE",
"140 140 LINE",
"140 0 LINE"
);
},
{
closed = 1;
nodes = (
"445 280 LINE",
"445 420 LINE",
"140 420 LINE",
"140 280 LINE"
);
},
{
closed = 1;
nodes = (
"650 560 LINE",
"650 700 LINE",
"140 700 LINE",
"140 560 LINE"
);
}
);
width = 720;
},
{
anchors = (
{
name = above;
position = "{545, 877}";
},
{
name = lowerRight;
position = "{950, 0}";
}
);
layerId = "B8F43E33-4D80-4AEE-B4E2-DC92E4FCAAE5";
paths = (
{
closed = 1;
nodes = (
"210 0 LINE",
"210 700 LINE",
"70 700 LINE",
"70 0 LINE"
);
},
{
closed = 1;
nodes = (
"950 0 LINE",
"950 140 LINE",
"140 140 LINE",
"140 0 LINE"
);
},
{
closed = 1;
nodes = (
"546 280 LINE",
"546 420 LINE",
"140 420 LINE",
"140 280 LINE"
);
},
{
closed = 1;
nodes = (
"950 560 LINE",
"950 700 LINE",
"140 700 LINE",
"140 560 LINE"
);
}
);
width = 1020;
},
{
anchors = (
{
name = above;
position = "{487, 875}";
},
{
name = lowerRight;
position = "{597, 0}";
}
);
layerId = "198E78DA-6138-42C0-8847-C36925CEE918";
paths = (
{
closed = 1;
nodes = (
"157 0 LINE",
"306 700 LINE",
"166 700 LINE",
"17 0 LINE"
);
},
{
closed = 1;
nodes = (
"597 0 LINE",
"627 140 LINE",
"117 140 LINE",
"87 0 LINE"
);
},
{
closed = 1;
nodes = (
"452 280 LINE",
"481 420 LINE",
"176 420 LINE",
"147 280 LINE"
);
},
{
closed = 1;
nodes = (
"716 560 LINE",
"746 700 LINE",
"236 700 LINE",
"206 560 LINE"
);
}
);
width = 720;
},
{
anchors = (
{
name = above;
position = "{368, 875}";
},
{
name = lowerRight;
position = "{650, 0}";
}
);
layerId = "E0F5E986-8A77-409E-9DB3-A90D066F072F";
paths = (
{
closed = 1;
nodes = (
"140 0 LINE",
"140 700 LINE",
"70 700 LINE",
"70 0 LINE"
);
},
{
closed = 1;
nodes = (
"650 0 LINE",
"650 70 LINE",
"105 70 LINE",
"105 0 LINE"
);
},
{
closed = 1;
nodes = (
"445 315 LINE",
"445 385 LINE",
"105 385 LINE",
"105 315 LINE"
);
},
{
closed = 1;
nodes = (
"650 630 LINE",
"650 700 LINE",
"105 700 LINE",
"105 630 LINE"
);
}
);
width = 720;
},
{
anchors = (
{
name = above;
position = "{527, 878}";
},
{
name = lowerRight;
position = "{950, 0}";
}
);
hints = (
{
horizontal = 1;
origin = "{1, 2}";
target = "{0, 3}";
type = Stem;
},
{
horizontal = 1;
origin = "{2, 2}";
target = "{2, 3}";
type = Stem;
},
{
horizontal = 1;
origin = "{0, 2}";
target = "{3, 3}";
type = Stem;
},
{
origin = "{0, 3}";
target = "{0, 0}";
type = Stem;
}
);
layerId = "671D7F47-0040-4C88-995A-F1154CC787CA";
paths = (
{
closed = 1;
nodes = (
"140 0 LINE",
"140 700 LINE",
"70 700 LINE",
"70 0 LINE"
);
},
{
closed = 1;
nodes = (
"950 0 LINE",
"950 70 LINE",
"105 70 LINE",
"105 0 LINE"
);
},
{
closed = 1;
nodes = (
"538 315 LINE",
"538 385 LINE",
"105 385 LINE",
"105 315 LINE"
);
},
{
closed = 1;
nodes = (
"950 630 LINE",
"950 700 LINE",
"105 700 LINE",
"105 630 LINE"
);
}
);
width = 1020;
},
{
anchors = (
{
name = above;
position = "{481, 875}";
},
{
name = lowerRight;
position = "{596, 0}";
}
);
guideLines = (
{
angle = 78;
position = "{486, 315}";
}
);
hints = (
{
horizontal = 1;
origin = "{1, 2}";
target = "{0, 3}";
type = Stem;
},
{
horizontal = 1;
origin = "{2, 2}";
target = "{2, 3}";
type = Stem;
},
{
horizontal = 1;
origin = "{0, 2}";
target = "{3, 3}";
type = Stem;
},
{
origin = "{0, 3}";
target = "{0, 0}";
type = Stem;
}
);
layerId = "69FAE2FB-B0EC-4DE1-A39D-F4FC44956106";
paths = (
{
closed = 1;
nodes = (
"87 0 LINE",
"236 700 LINE",
"166 700 LINE",
"17 0 LINE"
);
},
{
closed = 1;
nodes = (
"596 0 LINE",
"612 70 LINE",
"67 70 LINE",
"51 0 LINE"
);
},
{
closed = 1;
nodes = (
"486 315 LINE",
"501 385 LINE",
"134 385 LINE",
"119 315 LINE"
);
},
{
closed = 1;
nodes = (
"731 630 LINE",
"747 700 LINE",
"201 700 LINE",
"185 630 LINE"
);
}
);
width = 721;
}
);
leftKerningGroup = E;
leftMetricsKey = H;
rightKerningGroup = E;
unicode = "0045,0065";
},
{
glyphname = F;
lastChange = "2019-06-02 18:43:30 +0000";
layers = (
{
hints = (
{
horizontal = 1;
origin = "{1, 3}";
target = "{1, 2}";
type = Stem;
},
{
horizontal = 1;
origin = "{2, 3}";
target = "{0, 2}";
type = Stem;
},
{
origin = "{0, 3}";
target = "{0, 0}";
type = Stem;
}
);
layerId = "E82D559A-267E-4BF3-BBA1-0778DA3FF57C";
paths = (
{
closed = 1;
nodes = (
"210 0 LINE",
"210 700 LINE",
"70 700 LINE",
"70 0 LINE"
);
},
{
closed = 1;
nodes = (
"490 280 LINE",
"490 420 LINE",
"140 420 LINE",
"140 280 LINE"
);
},
{
closed = 1;
nodes = (
"620 560 LINE",
"620 700 LINE",
"140 700 LINE",
"140 560 LINE"
);
}
);
width = 655;
},
{
hints = (
{
horizontal = 1;
origin = "{1, 3}";
target = "{1, 2}";
type = Stem;
},
{
horizontal = 1;
origin = "{2, 3}";
target = "{0, 2}";
type = Stem;
},
{
origin = "{0, 3}";
target = "{0, 0}";
type = Stem;
}
);
layerId = "B8F43E33-4D80-4AEE-B4E2-DC92E4FCAAE5";
paths = (
{
closed = 1;
nodes = (
"210 0 LINE",
"210 700 LINE",
"70 700 LINE",
"70 0 LINE"
);
},
{
closed = 1;
nodes = (
"750 280 LINE",
"750 420 LINE",
"140 420 LINE",
"140 280 LINE"
);
},
{
closed = 1;
nodes = (
"940 560 LINE",
"940 700 LINE",
"140 700 LINE",
"140 560 LINE"
);
}
);
width = 975;
},
{
hints = (
{
horizontal = 1;
origin = "{1, 3}";
target = "{1, 2}";
type = Stem;
},
{
horizontal = 1;
origin = "{2, 3}";
target = "{0, 2}";
type = Stem;
}
);
layerId = "198E78DA-6138-42C0-8847-C36925CEE918";
paths = (
{
closed = 1;
nodes = (
"157 0 LINE",
"306 700 LINE",
"166 700 LINE",
"17 0 LINE"
);
},
{
closed = 1;
nodes = (
"497 280 LINE",
"526 420 LINE",
"176 420 LINE",
"147 280 LINE"
);
},
{
closed = 1;
nodes = (
"686 560 LINE",
"716 700 LINE",
"236 700 LINE",
"206 560 LINE"
);
}
);
width = 655;
},
{
hints = (
{
horizontal = 1;
origin = "{1, 3}";
target = "{1, 2}";
type = Stem;
},
{
horizontal = 1;
origin = "{2, 3}";
target = "{0, 2}";
type = Stem;
},
{
origin = "{0, 3}";
target = "{0, 0}";
type = Stem;
}
);
layerId = "E0F5E986-8A77-409E-9DB3-A90D066F072F";
paths = (
{
closed = 1;
nodes = (
"140 0 LINE",
"140 700 LINE",
"70 700 LINE",
"70 0 LINE"
);
},
{
closed = 1;
nodes = (
"490 315 LINE",
"490 385 LINE",
"105 385 LINE",
"105 315 LINE"
);
},
{
closed = 1;
nodes = (
"620 630 LINE",
"620 700 LINE",
"105 700 LINE",
"105 630 LINE"
);
}
);
width = 655;
},
{
hints = (
{
horizontal = 1;
origin = "{1, 3}";
target = "{1, 2}";
type = Stem;
},
{
horizontal = 1;
origin = "{2, 3}";
target = "{0, 2}";
type = Stem;
},
{
origin = "{0, 3}";
target = "{0, 0}";
type = Stem;
}
);
layerId = "671D7F47-0040-4C88-995A-F1154CC787CA";
paths = (
{
closed = 1;
nodes = (
"140 0 LINE",
"140 700 LINE",
"70 700 LINE",
"70 0 LINE"
);
},
{
closed = 1;
nodes = (
"750 315 LINE",
"750 385 LINE",
"105 385 LINE",
"105 315 LINE"
);
},
{
closed = 1;
nodes = (
"940 630 LINE",
"940 700 LINE",
"105 700 LINE",
"105 630 LINE"
);
}
);
width = 975;
},
{
hints = (
{
horizontal = 1;
origin = "{1, 2}";
target = "{1, 3}";
type = Stem;
},
{
horizontal = 1;
origin = "{0, 2}";
target = "{2, 3}";
type = Stem;
}
);
layerId = "69FAE2FB-B0EC-4DE1-A39D-F4FC44956106";
paths = (
{
closed = 1;
nodes = (
"87 0 LINE",
"236 700 LINE",
"166 700 LINE",
"17 0 LINE"
);
},
{
closed = 1;
nodes = (
"503 315 LINE",
"517 385 LINE",
"132 385 LINE",
"118 315 LINE"
);
},
{
closed = 1;
nodes = (
"701 630 LINE",
"716 700 LINE",
"201 700 LINE",
"186 630 LINE"
);
}
);
width = 655;
}
);
leftKerningGroup = H;
leftMetricsKey = H;
rightKerningGroup = F;
unicode = "0046,0066";
},
{
glyphname = G;
lastChange = "2019-06-02 16:34:16 +0000";
layers = (
{
anchors = (
{
name = above;
position = "{368, 875}";
},
{
name = below;
position = "{368, 0}";
}
);
hints = (
{
horizontal = 1;
origin = "{0, 9}";
target = "{0, 22}";
type = Stem;
},
{
horizontal = 1;
origin = "{0, 3}";
target = "{0, 4}";
type = Stem;
},
{
horizontal = 1;
origin = "{0, 19}";
target = "{0, 12}";
type = Stem;
},
{
origin = "{0, 21}";
target = "{0, 22}";
type = Stem;
},
{
origin = "{0, 0}";
target = "{0, 1}";
type = Stem;
}
);
layerId = "E82D559A-267E-4BF3-BBA1-0778DA3FF57C";
paths = (
{
closed = 1;
nodes = (
"525 0 LINE",
"665 70 LINE",
"665 420 LINE",
"385 420 LINE",
"385 280 LINE",
"570 280 LINE",
"525 325 LINE",
"525 140 LINE",
"525 140 LINE",
"210 140 LINE",
"210 140 LINE",
"210 560 LINE",
"210 560 LINE",
"525 560 LINE",
"525 560 LINE",
"525 490 LINE",
"665 490 LINE",
"665 630 LINE",
"525 700 LINE",
"210 700 LINE",
"70 630 LINE",
"70 70 LINE",
"210 0 LINE"
);
}
);
width = 735;
},
{
anchors = (
{
name = above;
position = "{586, 875}";
},
{
name = below;
position = "{588, 0}";
}
);
hints = (
{
horizontal = 1;
origin = "{0, 22}";
target = "{0, 9}";
type = Stem;
},
{
horizontal = 1;
origin = "{0, 4}";
target = "{0, 3}";
type = Stem;
},
{
horizontal = 1;
origin = "{0, 19}";
target = "{0, 12}";
type = Stem;
},
{
origin = "{0, 21}";
target = "{0, 22}";
type = Stem;
},
{
origin = "{0, 0}";
target = "{0, 1}";
type = Stem;
}
);
layerId = "B8F43E33-4D80-4AEE-B4E2-DC92E4FCAAE5";
paths = (
{
closed = 1;
nodes = (
"963 0 LINE",
"1103 70 LINE",
"1103 420 LINE",
"823 420 LINE",
"823 280 LINE",
"1008 280 LINE",
"963 325 LINE",
"963 140 LINE",
"963 140 LINE",
"210 140 LINE",
"210 140 LINE",
"210 560 LINE",
"210 560 LINE",
"963 560 LINE",
"963 560 LINE",
"963 490 LINE",
"1103 490 LINE",
"1103 630 LINE",
"963 700 LINE",
"210 700 LINE",
"70 630 LINE",
"70 70 LINE",
"210 0 LINE"
);
}
);
width = 1172.5;
},
{
anchors = (
{
name = above;
position = "{502, 875}";
},
{
name = below;
position = "{316, 0}";
}
);
hints = (
{
horizontal = 1;
origin = "{0, 22}";
target = "{0, 9}";
type = Stem;
},
{
horizontal = 1;
origin = "{0, 4}";
target = "{0, 3}";
type = Stem;
},
{
horizontal = 1;
origin = "{0, 19}";
target = "{0, 14}";
type = Stem;
}
);
layerId = "198E78DA-6138-42C0-8847-C36925CEE918";
paths = (
{
closed = 1;
nodes = (
"474 0 LINE",
"628 70 LINE",
"702 420 LINE",
"422 420 LINE",
"393 280 LINE",
"576 280 LINE",
"541 325 LINE",
"503 140 LINE",
"503 140 LINE",
"188 140 LINE",
"188 140 LINE",
"277 560 LINE",
"277 560 LINE",
"592 560 LINE",
"592 560 LINE",
"577 490 LINE",
"717 490 LINE",
"746 630 LINE",
"621 700 LINE",
"306 700 LINE",
"151 630 LINE",
"33 70 LINE",
"159 0 LINE"
);
}
);
width = 736;
},
{
anchors = (
{
name = above;
position = "{368, 875}";
},
{
name = below;
position = "{368, 0}";
}
);
hints = (
{
horizontal = 1;
origin = "{0, 22}";
target = "{0, 21}";
type = Stem;
},
{
horizontal = 1;
origin = "{0, 4}";
target = "{0, 3}";
type = Stem;
},
{
horizontal = 1;
origin = "{0, 19}";
target = "{0, 20}";
type = Stem;
},
{
origin = "{0, 21}";
target = "{0, 10}";
type = Stem;
},
{
origin = "{0, 7}";
target = "{0, 1}";
type = Stem;
}
);
layerId = "E0F5E986-8A77-409E-9DB3-A90D066F072F";
paths = (
{
closed = 1;
nodes = (
"525 0 LINE",
"665 70 LINE",
"665 385 LINE",
"385 385 LINE",
"385 315 LINE",
"640 315 LINE",
"595 360 LINE",
"595 113 LINE",
"508 70 LINE",
"227 70 LINE",
"140 113 LINE",
"140 587 LINE",
"227 630 LINE",
"508 630 LINE",
"595 587 LINE",
"595 490 LINE",
"665 490 LINE",
"665 630 LINE",
"525 700 LINE",
"210 700 LINE",
"70 630 LINE",
"70 70 LINE",
"210 0 LINE"
);
}
);
width = 735;
},
{
anchors = (
{
name = above;
position = "{586, 875}";
},
{
name = below;
position = "{588, 0}";
}
);
hints = (
{
horizontal = 1;
origin = "{0, 22}";
target = "{0, 21}";
type = Stem;
},
{
horizontal = 1;
origin = "{0, 3}";
target = "{0, 4}";
type = Stem;
},
{
horizontal = 1;
origin = "{0, 19}";
target = "{0, 20}";
type = Stem;
},
{
origin = "{0, 21}";
target = "{0, 10}";
type = Stem;
},
{
origin = "{0, 7}";
target = "{0, 1}";
type = Stem;
}
);
layerId = "671D7F47-0040-4C88-995A-F1154CC787CA";
paths = (
{
closed = 1;
nodes = (
"963 0 LINE",
"1103 70 LINE",
"1103 385 LINE",
"823 385 LINE",
"823 315 LINE",
"1078 315 LINE",
"1033 360 LINE",
"1033 113 LINE",
"946 70 LINE",
"227 70 LINE",
"140 113 LINE",
"140 587 LINE",
"227 630 LINE",
"946 630 LINE",
"1033 587 LINE",
"1033 490 LINE",
"1103 490 LINE",
"1103 630 LINE",
"963 700 LINE",
"210 700 LINE",
"70 630 LINE",
"70 70 LINE",
"210 0 LINE"
);
}
);
width = 1172.5;
},
{
anchors = (
{
name = above;
position = "{502, 875}";
},
{
name = below;
position = "{316, 0}";
}
);
hints = (
{
horizontal = 1;
origin = "{0, 21}";
target = "{0, 22}";
type = Stem;
},
{
horizontal = 1;
origin = "{0, 3}";
target = "{0, 4}";
type = Stem;
},
{
horizontal = 1;
origin = "{0, 19}";
target = "{0, 20}";
type = Stem;
}
);
layerId = "69FAE2FB-B0EC-4DE1-A39D-F4FC44956106";
paths = (
{
closed = 1;
nodes = (
"474 0 LINE",
"628 70 LINE",
"694 385 LINE",
"396 385 LINE",
"382 315 LINE",
"653 315 LINE",
"617 359 LINE",
"567 119 LINE",
"459 70 LINE",
"177 70 LINE",
"112 106 LINE",
"212 581 LINE",
"321 630 LINE",
"603 630 LINE",
"667 594 LINE",
"642 490 LINE",
"713 490 LINE",
"746 630 LINE",
"621 700 LINE",
"306 700 LINE",
"151 630 LINE",
"33 70 LINE",
"159 0 LINE"
);
}
);
width = 736;
}
);
leftMetricsKey = O;
rightMetricsKey = O;
unicode = "0047,0067";
},
{
glyphname = H;
lastChange = "2019-06-02 13:18:22 +0000";
layers = (
{
anchors = (
{
name = above;
position = "{380, 875}";
}
);
hints = (
{
horizontal = 1;
origin = "{2, 2}";
target = "{2, 3}";
type = Stem;
},
{
origin = "{1, 3}";
target = "{1, 0}";
type = Stem;
},
{
origin = "{0, 3}";
target = "{0, 0}";
type = Stem;
}
);
layerId = "E82D559A-267E-4BF3-BBA1-0778DA3FF57C";
paths = (
{
closed = 1;
nodes = (
"690 0 LINE",
"690 700 LINE",
"550 700 LINE",
"550 0 LINE"
);
},
{
closed = 1;
nodes = (
"210 0 LINE",
"210 700 LINE",
"70 700 LINE",
"70 0 LINE"
);
},
{
closed = 1;
nodes = (
"620 280 LINE",
"620 420 LINE",
"140 420 LINE",
"140 280 LINE"
);
}
);
width = 760;
},
{
anchors = (
{
name = above;
position = "{587, 875}";
}
);
hints = (
{
horizontal = 1;
origin = "{2, 3}";
target = "{2, 2}";
type = Stem;
},
{
origin = "{1, 3}";
target = "{1, 0}";
type = Stem;
},
{
origin = "{0, 3}";
target = "{0, 0}";
type = Stem;
}
);
layerId = "B8F43E33-4D80-4AEE-B4E2-DC92E4FCAAE5";
paths = (
{
closed = 1;
nodes = (
"1100 0 LINE",
"1100 700 LINE",
"960 700 LINE",
"960 0 LINE"
);
},
{
closed = 1;
nodes = (
"210 0 LINE",
"210 700 LINE",
"70 700 LINE",
"70 0 LINE"
);
},
{
closed = 1;
nodes = (
"1030 280 LINE",
"1030 420 LINE",
"140 420 LINE",
"140 280 LINE"
);
}
);
width = 1170;
},
{
anchors = (
{
name = above;
position = "{501, 875}";
}
);
hints = (
{
horizontal = 1;
origin = "{2, 3}";
target = "{2, 2}";
type = Stem;
}
);
layerId = "198E78DA-6138-42C0-8847-C36925CEE918";
paths = (
{
closed = 1;
nodes = (
"637 0 LINE",
"786 700 LINE",
"646 700 LINE",
"497 0 LINE"
);
},
{
closed = 1;
nodes = (
"157 0 LINE",
"306 700 LINE",
"166 700 LINE",
"17 0 LINE"
);
},
{
closed = 1;
nodes = (
"627 280 LINE",
"656 420 LINE",
"176 420 LINE",
"147 280 LINE"
);
}
);
width = 760;
},
{
anchors = (
{
name = above;
position = "{380, 875}";
}
);
hints = (
{
horizontal = 1;
origin = "{2, 3}";
target = "{2, 2}";
type = Stem;
},
{
origin = "{1, 3}";
target = "{1, 0}";
type = Stem;
},
{
origin = "{0, 3}";
target = "{0, 0}";
type = Stem;
}
);
layerId = "E0F5E986-8A77-409E-9DB3-A90D066F072F";
paths = (
{
closed = 1;
nodes = (
"690 0 LINE",
"690 700 LINE",
"620 700 LINE",
"620 0 LINE"
);
},
{
closed = 1;
nodes = (
"140 0 LINE",
"140 700 LINE",
"70 700 LINE",
"70 0 LINE"
);
},
{
closed = 1;
nodes = (
"655 315 LINE",
"655 385 LINE",
"105 385 LINE",
"105 315 LINE"
);
}
);
width = 760;
},
{
anchors = (
{
name = above;
position = "{565, 875}";
}
);
hints = (
{
horizontal = 1;
origin = "{2, 3}";
target = "{2, 2}";
type = Stem;
},
{
origin = "{1, 3}";
target = "{1, 0}";
type = Stem;
},
{
origin = "{0, 3}";
target = "{0, 0}";
type = Stem;
}
);
layerId = "671D7F47-0040-4C88-995A-F1154CC787CA";
paths = (
{
closed = 1;
nodes = (
"1030 0 LINE",
"1030 700 LINE",
"960 700 LINE",
"960 0 LINE"
);
},
{
closed = 1;
nodes = (
"140 0 LINE",
"140 700 LINE",
"70 700 LINE",
"70 0 LINE"
);
},
{
closed = 1;
nodes = (
"995 315 LINE",
"995 385 LINE",
"105 385 LINE",
"105 315 LINE"
);
}
);
width = 1100;
},
{
anchors = (
{
name = above;
position = "{501, 875}";
}
);
hints = (
{
horizontal = 1;
origin = "{2, 2}";
target = "{2, 3}";
type = Stem;
}
);
layerId = "69FAE2FB-B0EC-4DE1-A39D-F4FC44956106";
paths = (
{
closed = 1;
nodes = (
"637 0 LINE",
"786 700 LINE",
"716 700 LINE",
"567 0 LINE"
);
},
{
closed = 1;
nodes = (
"87 0 LINE",
"236 700 LINE",
"166 700 LINE",
"17 0 LINE"
);
},
{
closed = 1;
nodes = (
"662 315 LINE",
"681 385 LINE",
"131 385 LINE",
"112 315 LINE"
);
}
);
width = 760;
}
);
unicode = "0048,0068";
},
{
glyphname = Hbar;
lastChange = "2019-06-02 22:48:26 +0000";
layers = (
{
components = (
{
name = H;
transform = "{1, 0, 0, 1, 35, 0}";
}
);
hints = (
{
horizontal = 1;
origin = "{0, 3}";
target = "{0, 2}";
type = Stem;
}
);
layerId = "E82D559A-267E-4BF3-BBA1-0778DA3FF57C";
paths = (
{
closed = 1;
nodes = (
"795 525 LINE",
"795 595 LINE",
"35 595 LINE",
"35 525 LINE"
);
}
);
width = 830;
},
{
components = (
{
alignment = -1;
name = H;
transform = "{1, 0, 0, 1, 35, 0}";
}
);
layerId = "B8F43E33-4D80-4AEE-B4E2-DC92E4FCAAE5";
paths = (
{
closed = 1;
nodes = (
"1205 525 LINE",
"1205 595 LINE",
"35 595 LINE",
"35 525 LINE"
);
}
);
width = 1240;
},
{
components = (
{
name = H;
transform = "{1, 0, 0, 1, 32, 0}";
}
);
layerId = "198E78DA-6138-42C0-8847-C36925CEE918";
paths = (
{
closed = 1;
nodes = (
"854 525 LINE",
"868 595 LINE",
"108 595 LINE",
"94 525 LINE"
);
}
);
width = 831;
},
{
components = (
{
name = H;
transform = "{1, 0, 0, 1, 35, 0}";
}
);
layerId = "E0F5E986-8A77-409E-9DB3-A90D066F072F";
paths = (
{
closed = 1;
nodes = (
"795 535 LINE",
"795 585 LINE",
"35 585 LINE",
"35 535 LINE"
);
}
);
width = 830;
},
{
components = (
{
alignment = -1;
name = H;
transform = "{1, 0, 0, 1, 82, 0}";
}
);
hints = (
{
horizontal = 1;
origin = "{0, 3}";
target = "{0, 2}";
type = Stem;
}
);
layerId = "671D7F47-0040-4C88-995A-F1154CC787CA";
paths = (
{
closed = 1;
nodes = (
"1228 535 LINE",
"1228 585 LINE",
"35 585 LINE",
"35 535 LINE"
);
}
);
width = 1263.33333;
},
{
components = (
{
alignment = -1;
name = H;
transform = "{1, 0, 0, 1, 35, 0}";
}
);
hints = (
{
horizontal = 1;
origin = "{0, 3}";
target = "{0, 2}";
type = Stem;
}
);
layerId = "69FAE2FB-B0EC-4DE1-A39D-F4FC44956106";
paths = (
{
closed = 1;
nodes = (
"856 535 LINE",
"866 585 LINE",
"106 585 LINE",
"96 535 LINE"
);
}
);
width = 830;
}
);
unicode = "0126,0127";
},
{
glyphname = I;
lastChange = "2019-06-02 22:03:19 +0000";
layers = (
{
anchors = (
{
name = above;
position = "{140, 875}";
},
{
name = lowerRight;
position = "{210, 0}";
}
);
hints = (
{
origin = "{0, 3}";
target = "{0, 0}";
type = Stem;
}
);
layerId = "E82D559A-267E-4BF3-BBA1-0778DA3FF57C";
paths = (
{
closed = 1;
nodes = (
"210 0 LINE",
"210 700 LINE",
"70 700 LINE",
"70 0 LINE"
);
}
);
width = 280;
},
{
anchors = (
{
name = above;
position = "{140, 875}";
},
{
name = lowerRight;
position = "{210, 0}";
}
);
layerId = "B8F43E33-4D80-4AEE-B4E2-DC92E4FCAAE5";
paths = (
{
closed = 1;
nodes = (
"210 0 LINE",
"210 700 LINE",
"70 700 LINE",
"70 0 LINE"
);
}
);
width = 280;
},
{
anchors = (
{
name = above;
position = "{273, 875}";
},
{
name = lowerRight;
position = "{157, 0}";
}
);
layerId = "198E78DA-6138-42C0-8847-C36925CEE918";
paths = (
{
closed = 1;
nodes = (
"157 0 LINE",
"306 700 LINE",
"166 700 LINE",
"17 0 LINE"
);
}
);
width = 280;
},
{
anchors = (
{
name = above;
position = "{105, 875}";
},
{
name = lowerRight;
position = "{140, 0}";
}
);
layerId = "E0F5E986-8A77-409E-9DB3-A90D066F072F";
paths = (
{
closed = 1;
nodes = (
"140 0 LINE",
"140 700 LINE",
"70 700 LINE",
"70 0 LINE"
);
}
);
width = 210;
},
{
anchors = (
{
name = above;
position = "{105, 875}";
},
{
name = lowerRight;
position = "{140, 0}";
}
);
hints = (
{
origin = "{0, 3}";
target = "{0, 0}";
type = Stem;
}
);
layerId = "671D7F47-0040-4C88-995A-F1154CC787CA";
paths = (
{
closed = 1;
nodes = (
"140 0 LINE",
"140 700 LINE",
"70 700 LINE",
"70 0 LINE"
);
}
);
width = 210;
},
{
anchors = (
{
name = above;
position = "{238, 875}";
},
{
name = lowerRight;
position = "{87, 0}";
}
);
layerId = "69FAE2FB-B0EC-4DE1-A39D-F4FC44956106";
paths = (
{
closed = 1;
nodes = (
"87 0 LINE",
"236 700 LINE",
"166 700 LINE",
"17 0 LINE"
);
}
);
width = 210;
}
);
leftMetricsKey = H;
rightMetricsKey = H;
unicode = "0049,0069";
},
{
glyphname = IJ;
lastChange = "2019-06-02 18:33:42 +0000";
layers = (
{
hints = (
{
origin = "{1, 3}";
target = "{1, 0}";
type = Stem;
},
{
horizontal = 1;
origin = "{0, 11}";
target = "{0, 6}";
type = Stem;
},
{
origin = "{0, 10}";
target = "{0, 11}";
type = Stem;
},
{
origin = "{0, 0}";
target = "{0, 1}";
type = Stem;
}
);
layerId = "E82D559A-267E-4BF3-BBA1-0778DA3FF57C";
paths = (
{
closed = 1;
nodes = (
"525 0 LINE",
"665 70 LINE",
"665 700 LINE",
"525 700 LINE",
"525 95 LINE",
"570 140 LINE",
"165 140 LINE",
"210 95 LINE",
"210 210 LINE",
"70 210 LINE",
"70 70 LINE",
"210 0 LINE"
);
},
{
closed = 1;
nodes = (
"210 350 LINE",
"210 700 LINE",
"70 700 LINE",
"70 350 LINE"
);
}
);
width = 735;
},
{
layerId = "B8F43E33-4D80-4AEE-B4E2-DC92E4FCAAE5";
paths = (
{
closed = 1;
nodes = (
"788 0 LINE",
"928 70 LINE",
"928 700 LINE",
"788 700 LINE",
"788 95 LINE",
"833 140 LINE",
"165 140 LINE",
"210 95 LINE",
"210 210 LINE",
"70 210 LINE",
"70 70 LINE",
"210 0 LINE"
);
},
{
closed = 1;
nodes = (
"210 350 LINE",
"210 700 LINE",
"70 700 LINE",
"70 350 LINE"
);
}
);
width = 998;
},
{
layerId = "198E78DA-6138-42C0-8847-C36925CEE918";
paths = (
{
closed = 1;
nodes = (
"473 0 LINE",
"627 70 LINE",
"761 700 LINE",
"621 700 LINE",
"493 95 LINE",
"548 140 LINE",
"143 140 LINE",
"178 95 LINE",
"201 210 LINE",
"62 210 LINE",
"32 70 LINE",
"158 0 LINE"
);
},
{
closed = 1;
nodes = (
"231 350 LINE",
"306 700 LINE",
"166 700 LINE",
"91 350 LINE"
);
}
);
width = 735;
},
{
layerId = "E0F5E986-8A77-409E-9DB3-A90D066F072F";
paths = (
{
closed = 1;
nodes = (
"525 0 LINE",
"665 70 LINE",
"665 700 LINE",
"595 700 LINE",
"595 113 LINE",
"508 70 LINE",
"227 70 LINE",
"140 113 LINE",
"140 210 LINE",
"70 210 LINE",
"70 70 LINE",
"210 0 LINE"
);
},
{
closed = 1;
nodes = (
"140 350 LINE",
"140 701 LINE",
"70 701 LINE",
"70 350 LINE"
);
}
);
width = 735;
},
{
hints = (
{
horizontal = 1;
origin = "{0, 11}";
target = "{0, 6}";
type = Stem;
},
{
origin = "{0, 10}";
target = "{0, 11}";
type = Stem;
},
{
origin = "{0, 0}";
target = "{0, 1}";
type = Stem;
}
);
layerId = "671D7F47-0040-4C88-995A-F1154CC787CA";
paths = (
{
closed = 1;
nodes = (
"788 0 LINE",
"928 70 LINE",
"928 700 LINE",
"858 700 LINE",
"858 113 LINE",
"771 70 LINE",
"227 70 LINE",
"140 113 LINE",
"140 210 LINE",
"70 210 LINE",
"70 70 LINE",
"210 0 LINE"
);
},
{
closed = 1;
nodes = (
"140 350 LINE",
"140 701 LINE",
"70 701 LINE",
"70 350 LINE"
);
}
);
width = 998.33333;
},
{
hints = (
{
origin = "{1, 3}";
target = "{1, 0}";
type = Stem;
},
{
horizontal = 1;
place = "{0, 70}";
type = Stem;
},
{
origin = "{1, 3}";
target = "{1, 0}";
type = Stem;
},
{
place = "{473, 154}";
type = Stem;
},
{
horizontal = 1;
origin = "{0, 6}";
target = "{0, 5}";
type = Stem;
},
{
origin = "{0, 5}";
target = "{0, 6}";
type = Stem;
},
{
origin = "{0, 7}";
target = "{0, 8}";
type = Stem;
}
);
layerId = "69FAE2FB-B0EC-4DE1-A39D-F4FC44956106";
paths = (
{
closed = 1;
nodes = (
"473 0 LINE",
"627 70 LINE",
"761 700 LINE",
"690 700 LINE",
"566 119 LINE",
"458 70 LINE",
"176 70 LINE",
"111 106 LINE",
"133 210 LINE",
"62 210 LINE",
"32 70 LINE",
"158 0 LINE"
);
},
{
closed = 1;
nodes = (
"161 350 LINE",
"236 701 LINE",
"166 701 LINE",
"91 350 LINE"
);
}
);
width = 735;
}
);
leftMetricsKey = O;
rightMetricsKey = O;
unicode = "0132,0133";
},
{
glyphname = J;
lastChange = "2019-06-02 13:59:26 +0000";
layers = (
{
anchors = (
{
name = above;
position = "{595, 875}";
},
{
name = lowerRight;
position = "{470, 0}";
}
);
hints = (
{
horizontal = 1;
origin = "{0, 11}";
target = "{0, 6}";
type = Stem;
},
{
origin = "{0, 10}";
target = "{0, 11}";
type = Stem;
},
{
origin = "{0, 0}";
target = "{0, 1}";
type = Stem;
}
);
layerId = "E82D559A-267E-4BF3-BBA1-0778DA3FF57C";
paths = (
{
closed = 1;
nodes = (
"525 0 LINE",
"665 70 LINE",
"665 700 LINE",
"525 700 LINE",
"525 95 LINE",
"570 140 LINE",
"165 140 LINE",
"210 95 LINE",
"210 280 LINE",
"70 280 LINE",
"70 70 LINE",
"210 0 LINE"
);
}
);
width = 735;
},
{
anchors = (
{
name = above;
position = "{860, 875}";
},
{
name = lowerRight;
position = "{695, 0}";
}
);
layerId = "B8F43E33-4D80-4AEE-B4E2-DC92E4FCAAE5";
paths = (
{
closed = 1;
nodes = (
"788 0 LINE",
"928 70 LINE",
"928 700 LINE",
"788 700 LINE",
"788 95 LINE",
"833 140 LINE",
"165 140 LINE",
"210 95 LINE",
"210 280 LINE",
"70 280 LINE",
"70 70 LINE",
"210 0 LINE"
);
}
);
width = 997.5;
},
{
anchors = (
{
name = above;
position = "{727, 875}";
},
{
name = lowerRight;
position = "{417, 0}";
}
);
layerId = "198E78DA-6138-42C0-8847-C36925CEE918";
paths = (
{
closed = 1;
nodes = (
"473 0 LINE",
"627 70 LINE",
"761 700 LINE",
"621 700 LINE",
"493 95 LINE",
"548 140 LINE",
"143 140 LINE",
"178 95 LINE",
"216 280 LINE",
"77 280 LINE",
"32 70 LINE",
"158 0 LINE"
);
}
);
width = 735;
},
{
anchors = (
{
name = above;
position = "{630, 875}";
},
{
name = lowerRight;
position = "{470, 0}";
}
);
layerId = "E0F5E986-8A77-409E-9DB3-A90D066F072F";
paths = (
{
closed = 1;
nodes = (
"525 0 LINE",
"665 70 LINE",
"665 700 LINE",
"595 700 LINE",
"595 113 LINE",
"508 70 LINE",
"227 70 LINE",
"140 113 LINE",
"140 280 LINE",
"70 280 LINE",
"70 70 LINE",
"210 0 LINE"
);
}
);
width = 735;
},
{
anchors = (
{
name = above;
position = "{897, 875}";
},
{
name = lowerRight;
position = "{695, 0}";
}
);
hints = (
{
horizontal = 1;
origin = "{0, 11}";
target = "{0, 6}";
type = Stem;
},
{
origin = "{0, 10}";
target = "{0, 11}";
type = Stem;
},
{
origin = "{0, 0}";
target = "{0, 1}";
type = Stem;
}
);
layerId = "671D7F47-0040-4C88-995A-F1154CC787CA";
paths = (
{
closed = 1;
nodes = (
"788 0 LINE",
"928 70 LINE",
"928 700 LINE",
"858 700 LINE",
"858 113 LINE",
"771 70 LINE",
"227 70 LINE",
"140 113 LINE",
"140 280 LINE",
"70 280 LINE",
"70 70 LINE",
"210 0 LINE"
);
}
);
width = 997.5;
},
{
anchors = (
{
name = above;
position = "{762, 875}";
},
{
name = lowerRight;
position = "{417, 0}";
}
);
hints = (
{
horizontal = 1;
origin = "{0, 6}";
target = "{0, 5}";
type = Stem;
},
{
origin = "{0, 5}";
target = "{0, 6}";
type = Stem;
},
{
origin = "{0, 7}";
target = "{0, 8}";
type = Stem;
}
);
layerId = "69FAE2FB-B0EC-4DE1-A39D-F4FC44956106";
paths = (
{
closed = 1;
nodes = (
"473 0 LINE",
"627 70 LINE",
"761 700 LINE",
"690 700 LINE",
"566 119 LINE",
"458 70 LINE",
"176 70 LINE",
"111 106 LINE",
"148 280 LINE",
"77 280 LINE",
"32 70 LINE",
"158 0 LINE"
);
}
);
width = 735;
}
);
leftKerningGroup = J;
leftMetricsKey = O;
rightKerningGroup = J;
rightMetricsKey = O;
unicode = "004A,006A";
},
{
glyphname = K;
lastChange = "2019-06-02 22:51:39 +0000";
layers = (
{
anchors = (
{
name = after;
position = "{800, 700}";
},
{
name = below;
position = "{368, 0}";
}
);
hints = (
{
horizontal = 1;
origin = "{1, 3}";
target = up;
type = BottomGhost;
},
{
horizontal = 1;
origin = "{1, 2}";
target = down;
type = TopGhost;
},
{
origin = "{1, 3}";
target = "{1, 0}";
type = Stem;
}
);
layerId = "E82D559A-267E-4BF3-BBA1-0778DA3FF57C";
paths = (
{
closed = 1;
nodes = (
"690 700 LINE",
"504 700 LINE",
"87 211 LINE",
"193 120 LINE"
);
},
{
closed = 1;
nodes = (
"210 0 LINE",
"210 700 LINE",
"70 700 LINE",
"70 0 LINE"
);
},
{
closed = 1;
nodes = (
"690 0 LINE",
"403 447 LINE",
"294 383 LINE",
"523 0 LINE"
);
}
);
width = 760;
},
{
anchors = (
{
name = after;
position = "{1213, 700}";
},
{
name = below;
position = "{550, 0}";
}
);
hints = (
{
horizontal = 1;
origin = "{1, 3}";
target = up;
type = BottomGhost;
},
{
horizontal = 1;
origin = "{1, 2}";
target = down;
type = TopGhost;
},
{
origin = "{1, 3}";
target = "{1, 0}";
type = Stem;
}
);
layerId = "B8F43E33-4D80-4AEE-B4E2-DC92E4FCAAE5";
paths = (
{
closed = 1;
nodes = (
"1113 700 LINE",
"847 700 LINE",
"105 259 LINE",
"176 136 LINE"
);
},
{
closed = 1;
nodes = (
"210 0 LINE",
"210 700 LINE",
"70 700 LINE",
"70 0 LINE"
);
},
{
closed = 1;
nodes = (
"1113 0 LINE",
"510 458 LINE",
"425 347 LINE",
"882 0 LINE"
);
}
);
width = 1183;
},
{
anchors = (
{
name = after;
position = "{892, 700}";
},
{
name = below;
position = "{315, 0}";
}
);
hints = (
{
horizontal = 1;
origin = "{1, 3}";
target = up;
type = BottomGhost;
},
{
horizontal = 1;
origin = "{1, 2}";
target = down;
type = TopGhost;
}
);
layerId = "198E78DA-6138-42C0-8847-C36925CEE918";
paths = (
{
closed = 1;
nodes = (
"787 700 LINE",
"599 700 LINE",
"83 215 LINE",
"172 124 LINE"
);
},
{
closed = 1;
nodes = (
"157 0 LINE",
"306 700 LINE",
"166 700 LINE",
"17 0 LINE"
);
},
{
closed = 1;
nodes = (
"636 0 LINE",
"443 447 LINE",
"323 383 LINE",
"471 0 LINE"
);
}
);
width = 761;
},
{
anchors = (
{
name = after;
position = "{785, 700}";
},
{
name = below;
position = "{368, 0}";
}
);
hints = (
{
horizontal = 1;
origin = "{1, 3}";
target = up;
type = BottomGhost;
},
{
horizontal = 1;
origin = "{1, 2}";
target = down;
type = TopGhost;
},
{
origin = "{1, 3}";
target = "{1, 0}";
type = Stem;
}
);
layerId = "E0F5E986-8A77-409E-9DB3-A90D066F072F";
paths = (
{
closed = 1;
nodes = (
"685 700 LINE",
"591 700 LINE",
"80 190 LINE",
"124 141 LINE"
);
},
{
closed = 1;
nodes = (
"140 0 LINE",
"140 700 LINE",
"70 700 LINE",
"70 0 LINE"
);
},
{
closed = 1;
nodes = (
"685 0 LINE",
"398 447 LINE",
"339 409 LINE",
"602 0 LINE"
);
}
);
width = 755;
},
{
anchors = (
{
name = after;
position = "{1256, 700}";
},
{
name = below;
position = "{638, 0}";
}
);
hints = (
{
horizontal = 1;
origin = "{1, 3}";
target = up;
type = BottomGhost;
},
{
horizontal = 1;
origin = "{1, 2}";
target = down;
type = TopGhost;
},
{
origin = "{1, 3}";
target = "{1, 0}";
type = Stem;
}
);
layerId = "671D7F47-0040-4C88-995A-F1154CC787CA";
paths = (
{
closed = 1;
nodes = (
"1133 700 LINE",
"989 700 LINE",
"101 227 LINE",
"96 148 LINE"
);
},
{
closed = 1;
nodes = (
"140 0 LINE",
"140 700 LINE",
"70 700 LINE",
"70 0 LINE"
);
},
{
closed = 1;
nodes = (
"1133 0 LINE",
"547 429 LINE",
"478 392 LINE",
"1014 0 LINE"
);
}
);
width = 1203;
},
{
anchors = (
{
name = after;
position = "{882, 700}";
},
{
name = below;
position = "{336, 0}";
}
);
hints = (
{
horizontal = 1;
origin = "{1, 3}";
target = up;
type = BottomGhost;
},
{
horizontal = 1;
origin = "{1, 2}";
target = down;
type = TopGhost;
}
);
layerId = "69FAE2FB-B0EC-4DE1-A39D-F4FC44956106";
paths = (
{
closed = 1;
nodes = (
"791 700 LINE",
"686 700 LINE",
"62 178 LINE",
"107 128 LINE"
);
},
{
closed = 1;
nodes = (
"87 0 LINE",
"236 700 LINE",
"166 700 LINE",
"17 0 LINE"
);
},
{
closed = 1;
nodes = (
"636 0 LINE",
"443 447 LINE",
"372 419 LINE",
"553 0 LINE"
);
}
);
width = 765;
}
);
leftMetricsKey = H;
unicode = "004B,006B";
},
{
glyphname = L;
lastChange = "2019-06-07 13:29:22 +0000";
layers = (
{
anchors = (
{
name = above;
position = "{138, 875}";
},
{
name = below;
position = "{360, 0}";
},
{
name = lowerRight;
position = "{550, 0}";
}
);
hints = (
{
horizontal = 1;
origin = "{0, 3}";
target = "{1, 2}";
type = Stem;
},
{
origin = "{0, 3}";
target = "{0, 0}";
type = Stem;
}
);
layerId = "E82D559A-267E-4BF3-BBA1-0778DA3FF57C";
paths = (
{
closed = 1;
nodes = (
"210 0 LINE",
"210 700 LINE",
"70 700 LINE",
"70 0 LINE"
);
},
{
closed = 1;
nodes = (
"620 0 LINE",
"620 140 LINE",
"140 140 LINE",
"140 0 LINE"
);
}
);
width = 655;
},
{
anchors = (
{
name = above;
position = "{138, 875}";
},
{
name = below;
position = "{495, 0}";
},
{
name = lowerRight;
position = "{837.5, 0}";
}
);
layerId = "B8F43E33-4D80-4AEE-B4E2-DC92E4FCAAE5";
paths = (
{
closed = 1;
nodes = (
"210 0 LINE",
"210 700 LINE",
"70 700 LINE",
"70 0 LINE"
);
},
{
closed = 1;
nodes = (
"907.5 0 LINE",
"907.5 140 LINE",
"140 140 LINE",
"140 0 LINE"
);
}
);
width = 942.5;
},
{
anchors = (
{
name = above;
position = "{271, 875}";
},
{
name = below;
position = "{327, 0}";
},
{
name = lowerRight;
position = "{497, 0}";
}
);
layerId = "198E78DA-6138-42C0-8847-C36925CEE918";
paths = (
{
closed = 1;
nodes = (
"157 0 LINE",
"306 700 LINE",
"166 700 LINE",
"17 0 LINE"
);
},
{
closed = 1;
nodes = (
"567 0 LINE",
"597 140 LINE",
"117 140 LINE",
"87 0 LINE"
);
}
);
width = 655;
},
{
anchors = (
{
name = above;
position = "{104, 875}";
},
{
name = below;
position = "{360, 0}";
},
{
name = lowerRight;
position = "{550, 0}";
}
);
layerId = "E0F5E986-8A77-409E-9DB3-A90D066F072F";
paths = (
{
closed = 1;
nodes = (
"140 0 LINE",
"140 700 LINE",
"70 700 LINE",
"70 0 LINE"
);
},
{
closed = 1;
nodes = (
"620 0 LINE",
"620 70 LINE",
"105 70 LINE",
"105 0 LINE"
);
}
);
width = 655;
},
{
anchors = (
{
name = above;
position = "{104, 875}";
},
{
name = below;
position = "{505, 0}";
},
{
name = lowerRight;
position = "{838, 0}";
}
);
hints = (
{
horizontal = 1;
origin = "{0, 3}";
target = "{1, 2}";
type = Stem;
},
{
origin = "{0, 3}";
target = "{0, 0}";
type = Stem;
}
);
layerId = "671D7F47-0040-4C88-995A-F1154CC787CA";
paths = (
{
closed = 1;
nodes = (
"140 0 LINE",
"140 700 LINE",
"70 700 LINE",
"70 0 LINE"
);
},
{
closed = 1;
nodes = (
"907 0 LINE",
"907 70 LINE",
"105 70 LINE",
"105 0 LINE"
);
}
);
width = 942.5;
},
{
anchors = (
{
name = above;
position = "{237, 875}";
},
{
name = below;
position = "{327, 0}";
},
{
name = lowerRight;
position = "{497, 0}";
}
);
hints = (
{
horizontal = 1;
origin = "{0, 3}";
target = "{1, 2}";
type = Stem;
},
{
origin = "{0, 3}";
target = "{0, 0}";
type = Stem;
}
);
layerId = "69FAE2FB-B0EC-4DE1-A39D-F4FC44956106";
paths = (
{
closed = 1;
nodes = (
"87 0 LINE",
"236 700 LINE",
"166 700 LINE",
"17 0 LINE"
);
},
{
closed = 1;
nodes = (
"566 0 LINE",
"582 70 LINE",
"67 70 LINE",
"51 0 LINE"
);
}
);
width = 655;
}
);
leftKerningGroup = L;
leftMetricsKey = H;
rightKerningGroup = L;
unicode = "004C,006C";
},
{
glyphname = Lslash;
lastChange = "2019-06-02 14:51:24 +0000";
layers = (
{
components = (
{
name = L;
transform = "{1, 0, 0, 1, 70, 0}";
}
);
layerId = "E82D559A-267E-4BF3-BBA1-0778DA3FF57C";
paths = (
{
closed = 1;
nodes = (
"350 341 LINE",
"350 481 LINE",
"70 341 LINE",
"70 201 LINE"
);
}
);
width = 725;
},
{
components = (
{
alignment = -1;
name = L;
transform = "{1, 0, 0, 1, 70, 0}";
}
);
layerId = "B8F43E33-4D80-4AEE-B4E2-DC92E4FCAAE5";
paths = (
{
closed = 1;
nodes = (
"350 341 LINE",
"350 481 LINE",
"70 341 LINE",
"70 201 LINE"
);
}
);
width = 1013;
},
{
components = (
{
name = L;
transform = "{1, 0, 0, 1, 70, 0}";
}
);
layerId = "198E78DA-6138-42C0-8847-C36925CEE918";
paths = (
{
closed = 1;
nodes = (
"370 334 LINE",
"400 486 LINE",
"90 346 LINE",
"60 194 LINE"
);
}
);
width = 725;
},
{
components = (
{
name = L;
transform = "{1, 0, 0, 1, 70, 0}";
}
);
layerId = "E0F5E986-8A77-409E-9DB3-A90D066F072F";
paths = (
{
closed = 1;
nodes = (
"277 395 LINE",
"277 483 LINE",
"70 331 LINE",
"70 244 LINE"
);
}
);
width = 725;
},
{
components = (
{
alignment = -1;
name = L;
transform = "{1, 0, 0, 1, 70, 0}";
}
);
layerId = "671D7F47-0040-4C88-995A-F1154CC787CA";
paths = (
{
closed = 1;
nodes = (
"277 395 LINE",
"277 483 LINE",
"70 331 LINE",
"70 244 LINE"
);
}
);
width = 1013.33333;
},
{
components = (
{
alignment = -1;
name = L;
transform = "{1, 0, 0, 1, 89, 0}";
}
);
layerId = "69FAE2FB-B0EC-4DE1-A39D-F4FC44956106";
paths = (
{
closed = 1;
nodes = (
"340 395 LINE",
"360 488 LINE",
"89 336 LINE",
"69 244 LINE"
);
}
);
width = 744;
}
);
leftKerningGroup = L;
leftMetricsKey = L;
rightKerningGroup = L;
rightMetricsKey = L;
unicode = "0141,0142";
},
{
glyphname = M;
lastChange = "2019-06-02 16:39:06 +0000";
layers = (
{
hints = (
{
origin = "{0, 15}";
target = "{0, 0}";
type = Stem;
},
{
origin = "{0, 7}";
target = "{0, 8}";
type = Stem;
}
);
layerId = "E82D559A-267E-4BF3-BBA1-0778DA3FF57C";
paths = (
{
closed = 1;
nodes = (
"210 0 LINE",
"210 446 LINE",
"189 443 LINE",
"364 0 LINE",
"481 0 LINE",
"661 443 LINE",
"640 446 LINE",
"640 0 LINE",
"780 0 LINE",
"780 700 LINE",
"616 700 LINE",
"409 172 LINE",
"441 172 LINE",
"234 700 LINE",
"70 700 LINE",
"70 0 LINE"
);
}
);
width = 850;
},
{
layerId = "B8F43E33-4D80-4AEE-B4E2-DC92E4FCAAE5";
paths = (
{
closed = 1;
nodes = (
"210 0 LINE",
"210 538 LINE",
"184 530 LINE",
"554 0 LINE",
"664 0 LINE",
"1025 529 LINE",
"1000 537 LINE",
"1000 0 LINE",
"1140 0 LINE",
"1140 700 LINE",
"984 700 LINE",
"580 119 LINE",
"632 119 LINE",
"227 700 LINE",
"70 700 LINE",
"70 0 LINE"
);
}
);
width = 1210;
},
{
layerId = "198E78DA-6138-42C0-8847-C36925CEE918";
paths = (
{
closed = 1;
nodes = (
"157 0 LINE",
"252 446 LINE",
"231 443 LINE",
"312 0 LINE",
"429 0 LINE",
"703 443 LINE",
"682 446 LINE",
"587 0 LINE",
"727 0 LINE",
"876 700 LINE",
"702 700 LINE",
"383 172 LINE",
"415 172 LINE",
"320 700 LINE",
"166 700 LINE",
"17 0 LINE"
);
}
);
width = 850;
},
{
layerId = "E0F5E986-8A77-409E-9DB3-A90D066F072F";
paths = (
{
closed = 1;
nodes = (
"140 0 LINE",
"140 604 LINE",
"122 600 LINE",
"390 0 LINE",
"459 0 LINE",
"728 602 LINE",
"710 606 LINE",
"710 0 LINE",
"780 0 LINE",
"780 700 LINE",
"695 700 LINE",
"407 52 LINE",
"443 52 LINE",
"154 700 LINE",
"70 700 LINE",
"70 0 LINE"
);
}
);
width = 850;
},
{
hints = (
{
origin = "{0, 8}";
target = "{0, 6}";
type = Stem;
},
{
origin = "{0, 3}";
target = "{0, 1}";
type = Stem;
}
);
layerId = "671D7F47-0040-4C88-995A-F1154CC787CA";
paths = (
{
closed = 1;
nodes = (
"140 0 LINE",
"140 630 LINE",
"110 630 LINE",
"548 0 LINE",
"604 0 LINE",
"1040 630 LINE",
"1010 630 LINE",
"1010 0 LINE",
"1080 0 LINE",
"1080 700 LINE",
"1003 700 LINE",
"550 46 LINE",
"602 46 LINE",
"147 700 LINE",
"70 700 LINE",
"70 0 LINE"
);
}
);
width = 1150;
},
{
hints = (
{
place = "{656, 70}";
type = Stem;
},
{
place = "{657, -434}";
type = Stem;
}
);
layerId = "69FAE2FB-B0EC-4DE1-A39D-F4FC44956106";
paths = (
{
closed = 1;
nodes = (
"88 0 LINE",
"223 630 LINE",
"187 630 LINE",
"345 0 LINE",
"407 0 LINE",
"817 630 LINE",
"790 630 LINE",
"656 0 LINE",
"727 0 LINE",
"876 700 LINE",
"781 700 LINE",
"365 54 LINE",
"400 54 LINE",
"244 700 LINE",
"166 700 LINE",
"17 0 LINE"
);
}
);
width = 850;
}
);
leftMetricsKey = H;
unicode = "004D,006D";
},
{
glyphname = N;
lastChange = "2019-06-02 14:52:39 +0000";
layers = (
{
anchors = (
{
name = above;
position = "{400, 875}";
},
{
name = below;
position = "{400, 0}";
},
{
name = lowerRight;
position = "{620, 0}";
}
);
hints = (
{
origin = "{0, 11}";
target = "{0, 0}";
type = Stem;
},
{
origin = "{0, 7}";
target = "{0, 4}";
type = Stem;
}
);
layerId = "E82D559A-267E-4BF3-BBA1-0778DA3FF57C";
paths = (
{
closed = 1;
nodes = (
"210 0 LINE",
"210 552 LINE",
"193 516 LINE",
"515 0 LINE",
"690 0 LINE",
"690 700 LINE",
"550 700 LINE",
"550 148 LINE",
"567 184 LINE",
"245 700 LINE",
"70 700 LINE",
"70 0 LINE"
);
}
);
width = 760;
},
{
anchors = (
{
name = above;
position = "{550, 875}";
},
{
name = below;
position = "{550, 0}";
},
{
name = lowerRight;
position = "{942, 0}";
}
);
layerId = "B8F43E33-4D80-4AEE-B4E2-DC92E4FCAAE5";
paths = (
{
closed = 1;
nodes = (
"210 0 LINE",
"210 603 LINE",
"176 588 LINE",
"843 0 LINE",
"1030 0 LINE",
"1030 700 LINE",
"890 700 LINE",
"890 98 LINE",
"924 113 LINE",
"258 700 LINE",
"70 700 LINE",
"70 0 LINE"
);
}
);
width = 1100;
},
{
anchors = (
{
name = above;
position = "{533, 875}";
},
{
name = below;
position = "{347, 0}";
},
{
name = lowerRight;
position = "{567, 0}";
}
);
layerId = "198E78DA-6138-42C0-8847-C36925CEE918";
paths = (
{
closed = 1;
nodes = (
"157 0 LINE",
"270 539 LINE",
"253 537 LINE",
"463 0 LINE",
"637 0 LINE",
"786 700 LINE",
"646 700 LINE",
"532 163 LINE",
"551 165 LINE",
"340 700 LINE",
"166 700 LINE",
"17 0 LINE"
);
}
);
width = 760;
},
{
anchors = (
{
name = above;
position = "{380, 875}";
},
{
name = below;
position = "{380, 0}";
},
{
name = lowerRight;
position = "{650, 0}";
}
);
layerId = "E0F5E986-8A77-409E-9DB3-A90D066F072F";
paths = (
{
closed = 1;
nodes = (
"140 0 LINE",
"140 656 LINE",
"111 644 LINE",
"606 0 LINE",
"690 0 LINE",
"690 700 LINE",
"620 700 LINE",
"620 44 LINE",
"649 56 LINE",
"154 700 LINE",
"70 700 LINE",
"70 0 LINE"
);
}
);
width = 760;
},
{
anchors = (
{
name = above;
position = "{538, 875}";
},
{
name = below;
position = "{539, 0}";
},
{
name = lowerRight;
position = "{973, 0}";
}
);
hints = (
{
origin = "{0, 11}";
target = "{0, 0}";
type = Stem;
},
{
origin = "{0, 7}";
target = "{0, 4}";
type = Stem;
}
);
layerId = "671D7F47-0040-4C88-995A-F1154CC787CA";
paths = (
{
closed = 1;
nodes = (
"140 0 LINE",
"140 688 LINE",
"103 667 LINE",
"911 0 LINE",
"1007 0 LINE",
"1007 700 LINE",
"937 700 LINE",
"937 14 LINE",
"974 34 LINE",
"167 700 LINE",
"70 700 LINE",
"70 0 LINE"
);
}
);
width = 1076.66667;
},
{
anchors = (
{
name = above;
position = "{521, 875}";
},
{
name = below;
position = "{335, 0}";
},
{
name = lowerRight;
position = "{615, 0}";
}
);
layerId = "69FAE2FB-B0EC-4DE1-A39D-F4FC44956106";
paths = (
{
closed = 1;
nodes = (
"89 0 LINE",
"228 653 LINE",
"197 648 LINE",
"570 0 LINE",
"651 0 LINE",
"800 700 LINE",
"728 700 LINE",
"589 47 LINE",
"621 52 LINE",
"246 700 LINE",
"166 700 LINE",
"17 0 LINE"
);
}
);
width = 774;
}
);
leftMetricsKey = H;
rightMetricsKey = H;
unicode = "004E,006E";
},
{
glyphname = Eng;
lastChange = "2019-06-02 22:46:42 +0000";
layers = (
{
hints = (
{
horizontal = 1;
origin = "{0, 20}";
target = "{0, 16}";
type = Stem;
},
{
origin = "{0, 8}";
target = "{0, 9}";
type = Stem;
},
{
origin = "{0, 19}";
target = "{0, 20}";
type = Stem;
},
{
origin = "{0, 0}";
target = "{0, 1}";
type = Stem;
}
);
layerId = "E82D559A-267E-4BF3-BBA1-0778DA3FF57C";
paths = (
{
closed = 1;
nodes = (
"550 -200 LINE",
"690 -130 LINE",
"690 700 LINE",
"550 700 LINE",
"550 166 LINE",
"574 173 LINE",
"245 700 LINE",
"70 700 LINE",
"70 0 LINE",
"210 0 LINE",
"210 534 LINE",
"186 527 LINE",
"550 -56 LINE",
"550 -70 LINE",
"550 -70 LINE",
"430 -70 LINE",
"430 -70 LINE",
"430 0 LINE",
"290 0 LINE",
"290 -130 LINE",
"430 -200 LINE"
);
}
);
width = 760;
},
{
layerId = "B8F43E33-4D80-4AEE-B4E2-DC92E4FCAAE5";
paths = (
{
closed = 1;
nodes = (
"890 -200 LINE",
"1030 -130 LINE",
"1030 700 LINE",
"890 700 LINE",
"890 98 LINE",
"924 113 LINE",
"258 700 LINE",
"70 700 LINE",
"70 0 LINE",
"210 0 LINE",
"210 603 LINE",
"176 588 LINE",
"890 -38 LINE",
"890 -70 LINE",
"890 -70 LINE",
"595 -70 LINE",
"595 -70 LINE",
"595 0 LINE",
"455 0 LINE",
"455 -130 LINE",
"595 -200 LINE"
);
}
);
width = 1100;
},
{
layerId = "198E78DA-6138-42C0-8847-C36925CEE918";
paths = (
{
closed = 1;
nodes = (
"455 -200 LINE",
"610 -130 LINE",
"786 700 LINE",
"646 700 LINE",
"533 166 LINE",
"557 173 LINE",
"340 700 LINE",
"166 700 LINE",
"17 0 LINE",
"157 0 LINE",
"270 534 LINE",
"246 527 LINE",
"486 -56 LINE",
"482 -70 LINE",
"482 -70 LINE",
"362 -70 LINE",
"362 -70 LINE",
"377 0 LINE",
"237 0 LINE",
"210 -130 LINE",
"335 -200 LINE"
);
}
);
width = 761;
},
{
layerId = "E0F5E986-8A77-409E-9DB3-A90D066F072F";
paths = (
{
closed = 1;
nodes = (
"570 -200 LINE",
"690 -130 LINE",
"690 700 LINE",
"620 700 LINE",
"620 49 LINE",
"647 58 LINE",
"154 700 LINE",
"70 700 LINE",
"70 0 LINE",
"140 0 LINE",
"140 651 LINE",
"113 642 LINE",
"620 -18 LINE",
"620 -87 LINE",
"553 -130 LINE",
"447 -130 LINE",
"380 -87 LINE",
"380 0 LINE",
"310 0 LINE",
"310 -130 LINE",
"430 -200 LINE"
);
}
);
width = 760;
},
{
hints = (
{
horizontal = 1;
origin = "{0, 20}";
target = "{0, 19}";
type = Stem;
},
{
horizontal = 1;
origin = "{0, 8}";
target = up;
type = BottomGhost;
},
{
horizontal = 1;
place = "{636, 64}";
type = Stem;
},
{
origin = "{0, 8}";
target = "{0, 9}";
type = Stem;
},
{
origin = "{0, 19}";
target = "{0, 16}";
type = Stem;
},
{
origin = "{0, 13}";
target = "{0, 1}";
type = Stem;
}
);
layerId = "671D7F47-0040-4C88-995A-F1154CC787CA";
paths = (
{
closed = 1;
nodes = (
"887 -200 LINE",
"1007 -130 LINE",
"1007 700 LINE",
"937 700 LINE",
"937 14 LINE",
"974 34 LINE",
"167 700 LINE",
"70 700 LINE",
"70 0 LINE",
"140 0 LINE",
"140 688 LINE",
"103 667 LINE",
"937 -21 LINE",
"937 -87 LINE",
"870 -130 LINE",
"606 -130 LINE",
"539 -87 LINE",
"539 0 LINE",
"469 0 LINE",
"469 -130 LINE",
"589 -200 LINE"
);
}
);
width = 1076.66667;
},
{
hints = (
{
horizontal = 1;
place = "{-200, 113}";
type = Stem;
},
{
place = "{17, 70}";
type = Stem;
},
{
place = "{180, 105}";
type = Stem;
},
{
place = "{475, 135}";
type = Stem;
}
);
layerId = "69FAE2FB-B0EC-4DE1-A39D-F4FC44956106";
paths = (
{
closed = 1;
nodes = (
"469 -201 LINE",
"623 -131 LINE",
"800 700 LINE",
"728 700 LINE",
"589 47 LINE",
"621 52 LINE",
"246 700 LINE",
"166 700 LINE",
"17 0 LINE",
"89 0 LINE",
"228 654 LINE",
"197 649 LINE",
"577 -12 LINE",
"562 -82 LINE",
"454 -131 LINE",
"380 -131 LINE",
"315 -95 LINE",
"335 0 LINE",
"264 0 LINE",
"236 -131 LINE",
"362 -201 LINE"
);
}
);
width = 774;
}
);
leftMetricsKey = N;
rightMetricsKey = J;
unicode = "014A,014B";
},
{
glyphname = O;
lastChange = "2019-06-02 16:51:57 +0000";
layers = (
{
anchors = (
{
name = above;
position = "{366, 875}";
},
{
name = lowerRight;
position = "{471, 0}";
}
);
hints = (
{
horizontal = 1;
origin = "{0, 7}";
target = "{1, 7}";
type = Stem;
},
{
horizontal = 1;
origin = "{1, 2}";
target = "{0, 4}";
type = Stem;
},
{
origin = "{0, 6}";
target = "{0, 7}";
type = Stem;
},
{
origin = "{0, 0}";
target = "{0, 1}";
type = Stem;
}
);
layerId = "E82D559A-267E-4BF3-BBA1-0778DA3FF57C";
paths = (
{
closed = 1;
nodes = (
"525 0 LINE",
"665 70 LINE",
"665 630 LINE",
"525 700 LINE",
"210 700 LINE",
"70 630 LINE",
"70 70 LINE",
"210 0 LINE"
);
},
{
closed = 1;
nodes = (
"210 140 LINE",
"210 560 LINE",
"210 560 LINE",
"525 560 LINE",
"525 560 LINE",
"525 140 LINE",
"525 140 LINE",
"210 140 LINE"
);
}
);
width = 735;
},
{
anchors = (
{
name = above;
position = "{588.5, 875}";
},
{
name = lowerRight;
position = "{868.5, 0}";
}
);
hints = (
{
horizontal = 1;
origin = "{0, 7}";
target = "{1, 7}";
type = Stem;
},
{
horizontal = 1;
origin = "{1, 2}";
target = "{0, 4}";
type = Stem;
},
{
origin = "{0, 6}";
target = "{0, 7}";
type = Stem;
},
{
origin = "{0, 0}";
target = "{0, 1}";
type = Stem;
}
);
layerId = "B8F43E33-4D80-4AEE-B4E2-DC92E4FCAAE5";
paths = (
{
closed = 1;
nodes = (
"963 0 LINE",
"1103 70 LINE",
"1103 630 LINE",
"963 700 LINE",
"210 700 LINE",
"70 630 LINE",
"70 70 LINE",
"210 0 LINE"
);
},
{
closed = 1;
nodes = (
"210 140 LINE",
"210 560 LINE",
"210 560 LINE",
"963 560 LINE",
"963 560 LINE",
"963 140 LINE",
"963 140 LINE",
"210 140 LINE"
);
}
);
width = 1173;
},
{
anchors = (
{
name = above;
position = "{500, 875}";
},
{
name = lowerRight;
position = "{419, 0}";
}
);
hints = (
{
horizontal = 1;
origin = "{0, 7}";
target = "{1, 7}";
type = Stem;
},
{
horizontal = 1;
origin = "{1, 3}";
target = "{0, 4}";
type = Stem;
}
);
layerId = "198E78DA-6138-42C0-8847-C36925CEE918";
paths = (
{
closed = 1;
nodes = (
"474 0 LINE",
"628 70 LINE",
"746 630 LINE",
"621 700 LINE",
"306 700 LINE",
"151 630 LINE",
"33 70 LINE",
"159 0 LINE"
);
},
{
closed = 1;
nodes = (
"188 140 LINE",
"277 560 LINE",
"277 560 LINE",
"592 560 LINE",
"592 560 LINE",
"503 140 LINE",
"503 140 LINE",
"188 140 LINE"
);
}
);
width = 736;
},
{
anchors = (
{
name = above;
position = "{366, 875}";
},
{
name = lowerRight;
position = "{471, 0}";
}
);
hints = (
{
horizontal = 1;
origin = "{1, 2}";
target = "{0, 4}";
type = Stem;
},
{
horizontal = 1;
origin = "{0, 7}";
target = "{1, 7}";
type = Stem;
},
{
origin = "{0, 6}";
target = "{1, 0}";
type = Stem;
},
{
origin = "{1, 5}";
target = "{0, 1}";
type = Stem;
}
);
layerId = "E0F5E986-8A77-409E-9DB3-A90D066F072F";
paths = (
{
closed = 1;
nodes = (
"525 0 LINE",
"665 70 LINE",
"665 630 LINE",
"525 700 LINE",
"210 700 LINE",
"70 630 LINE",
"70 70 LINE",
"210 0 LINE"
);
},
{
closed = 1;
nodes = (
"140 113 LINE",
"140 587 LINE",
"227 630 LINE",
"508 630 LINE",
"595 587 LINE",
"595 113 LINE",
"508 70 LINE",
"227 70 LINE"
);
}
);
width = 735;
},
{
anchors = (
{
name = above;
position = "{589, 875}";
},
{
name = lowerRight;
position = "{868, 0}";
}
);
hints = (
{
horizontal = 1;
origin = "{1, 2}";
target = "{0, 4}";
type = Stem;
},
{
horizontal = 1;
origin = "{0, 7}";
target = "{1, 7}";
type = Stem;
},
{
origin = "{0, 6}";
target = "{1, 0}";
type = Stem;
},
{
origin = "{1, 5}";
target = "{0, 1}";
type = Stem;
}
);
layerId = "671D7F47-0040-4C88-995A-F1154CC787CA";
paths = (
{
closed = 1;
nodes = (
"963 0 LINE",
"1103 70 LINE",
"1103 630 LINE",
"963 700 LINE",
"210 700 LINE",
"70 630 LINE",
"70 70 LINE",
"210 0 LINE"
);
},
{
closed = 1;
nodes = (
"140 113 LINE",
"140 587 LINE",
"227 630 LINE",
"946 630 LINE",
"1033 587 LINE",
"1033 113 LINE",
"946 70 LINE",
"227 70 LINE"
);
}
);
width = 1173;
},
{
anchors = (
{
name = above;
position = "{500, 875}";
},
{
name = lowerRight;
position = "{419, 0}";
}
);
hints = (
{
horizontal = 1;
origin = "{0, 7}";
target = "{0, 6}";
type = Stem;
},
{
horizontal = 1;
origin = "{0, 4}";
target = "{0, 5}";
type = Stem;
}
);
layerId = "69FAE2FB-B0EC-4DE1-A39D-F4FC44956106";
paths = (
{
closed = 1;
nodes = (
"474 0 LINE",
"628 70 LINE",
"746 630 LINE",
"621 700 LINE",
"306 700 LINE",
"151 630 LINE",
"33 70 LINE",
"159 0 LINE"
);
},
{
closed = 1;
nodes = (
"112 106 LINE",
"212 581 LINE",
"321 630 LINE",
"603 630 LINE",
"667 594 LINE",
"567 119 LINE",
"459 70 LINE",
"177 70 LINE"
);
}
);
width = 736;
}
);
leftKerningGroup = O;
rightKerningGroup = O;
unicode = "004F,006F";
},
{
glyphname = Oslash;
lastChange = "2019-06-02 16:54:24 +0000";
layers = (
{
components = (
{
name = O;
}
);
layerId = "E82D559A-267E-4BF3-BBA1-0778DA3FF57C";
paths = (
{
closed = 1;
nodes = (
"588 758 LINE",
"523 787 LINE",
"148 -58 LINE",
"213 -87 LINE"
);
}
);
width = 735;
},
{
components = (
{
alignment = -1;
name = O;
}
);
layerId = "B8F43E33-4D80-4AEE-B4E2-DC92E4FCAAE5";
paths = (
{
closed = 1;
nodes = (
"1061 731 LINE",
"1014 782 LINE",
"113 -32 LINE",
"160 -83 LINE"
);
}
);
width = 1173;
},
{
components = (
{
name = O;
}
);
layerId = "198E78DA-6138-42C0-8847-C36925CEE918";
paths = (
{
closed = 1;
nodes = (
"700 758 LINE",
"639 787 LINE",
"85 -58 LINE",
"146 -87 LINE"
);
}
);
width = 736;
},
{
components = (
{
name = O;
}
);
layerId = "E0F5E986-8A77-409E-9DB3-A90D066F072F";
paths = (
{
closed = 1;
nodes = (
"579 762 LINE",
"533 782 LINE",
"157 -62 LINE",
"203 -82 LINE"
);
}
);
width = 735;
},
{
components = (
{
alignment = -1;
name = O;
}
);
layerId = "671D7F47-0040-4C88-995A-F1154CC787CA";
paths = (
{
closed = 1;
nodes = (
"1059 728 LINE",
"1026 766 LINE",
"114 -27 LINE",
"147 -65 LINE"
);
}
);
width = 1173.33333;
},
{
components = (
{
alignment = -1;
name = O;
}
);
layerId = "69FAE2FB-B0EC-4DE1-A39D-F4FC44956106";
paths = (
{
closed = 1;
nodes = (
"691 762 LINE",
"649 782 LINE",
"94 -62 LINE",
"136 -82 LINE"
);
}
);
width = 736;
}
);
leftMetricsKey = O;
rightMetricsKey = O;
unicode = "00D8,00F8";
},
{
glyphname = OE;
lastChange = "2019-06-02 13:33:03 +0000";
layers = (
{
hints = (
{
horizontal = 1;
origin = "{1, 6}";
target = "{0, 7}";
type = Stem;
},
{
horizontal = 1;
origin = "{3, 2}";
target = "{3, 3}";
type = Stem;
},
{
horizontal = 1;
origin = "{0, 4}";
target = "{1, 1}";
type = Stem;
},
{
origin = "{0, 6}";
target = "{0, 7}";
type = Stem;
},
{
origin = "{0, 0}";
target = "{0, 1}";
type = Stem;
}
);
layerId = "E82D559A-267E-4BF3-BBA1-0778DA3FF57C";
paths = (
{
closed = 1;
nodes = (
"405 0 LINE",
"545 70 LINE",
"545 630 LINE",
"405 700 LINE",
"210 700 LINE",
"70 630 LINE",
"70 70 LINE",
"210 0 LINE"
);
},
{
closed = 1;
nodes = (
"210 605 LINE",
"165 560 LINE",
"450 560 LINE",
"405 605 LINE",
"405 95 LINE",
"450 140 LINE",
"165 140 LINE",
"210 95 LINE"
);
},
{
closed = 1;
nodes = (
"845 0 LINE",
"845 140 LINE",
"475 140 LINE",
"475 0 LINE"
);
},
{
closed = 1;
nodes = (
"755 280 LINE",
"755 420 LINE",
"475 420 LINE",
"475 280 LINE"
);
},
{
closed = 1;
nodes = (
"845 560 LINE",
"845 700 LINE",
"475 700 LINE",
"475 560 LINE"
);
}
);
width = 915;
},
{
hints = (
{
horizontal = 1;
origin = "{0, 7}";
target = "{1, 6}";
type = Stem;
},
{
horizontal = 1;
origin = "{3, 3}";
target = "{3, 2}";
type = Stem;
},
{
horizontal = 1;
origin = "{1, 1}";
target = "{0, 4}";
type = Stem;
},
{
origin = "{0, 6}";
target = "{0, 7}";
type = Stem;
},
{
place = "{743, 140}";
type = Stem;
}
);
layerId = "B8F43E33-4D80-4AEE-B4E2-DC92E4FCAAE5";
paths = (
{
closed = 1;
nodes = (
"742.5 0 LINE",
"882.5 70 LINE",
"882.5 630 LINE",
"742.5 700 LINE",
"210 700 LINE",
"70 630 LINE",
"70 70 LINE",
"210 0 LINE"
);
},
{
closed = 1;
nodes = (
"210 605 LINE",
"165 560 LINE",
"787.5 560 LINE",
"742.5 605 LINE",
"742.5 95 LINE",
"787.5 140 LINE",
"165 140 LINE",
"210 95 LINE"
);
},
{
closed = 1;
nodes = (
"1482.5 0 LINE",
"1482.5 140 LINE",
"812.5 140 LINE",
"812.5 0 LINE"
);
},
{
closed = 1;
nodes = (
"1442.5 280 LINE",
"1442.5 420 LINE",
"812.5 420 LINE",
"812.5 280 LINE"
);
},
{
closed = 1;
nodes = (
"1482.5 560 LINE",
"1482.5 700 LINE",
"812.5 700 LINE",
"812.5 560 LINE"
);
}
);
width = 1552.5;
},
{
hints = (
{
horizontal = 1;
origin = "{0, 7}";
target = "{1, 6}";
type = Stem;
},
{
horizontal = 1;
origin = "{3, 3}";
target = "{3, 2}";
type = Stem;
},
{
horizontal = 1;
origin = "{1, 1}";
target = "{0, 4}";
type = Stem;
}
);
layerId = "198E78DA-6138-42C0-8847-C36925CEE918";
paths = (
{
closed = 1;
nodes = (
"354 0 LINE",
"508 70 LINE",
"626 630 LINE",
"501 700 LINE",
"306 700 LINE",
"151 630 LINE",
"33 70 LINE",
"159 0 LINE"
);
},
{
closed = 1;
nodes = (
"286 605 LINE",
"231 560 LINE",
"516 560 LINE",
"481 605 LINE",
"374 95 LINE",
"429 140 LINE",
"144 140 LINE",
"179 95 LINE"
);
},
{
closed = 1;
nodes = (
"793 0 LINE",
"823 140 LINE",
"453 140 LINE",
"423 0 LINE"
);
},
{
closed = 1;
nodes = (
"763 280 LINE",
"792 420 LINE",
"512 420 LINE",
"483 280 LINE"
);
},
{
closed = 1;
nodes = (
"912 560 LINE",
"942 700 LINE",
"572 700 LINE",
"542 560 LINE"
);
}
);
width = 916;
},
{
hints = (
{
horizontal = 1;
origin = "{0, 7}";
target = "{0, 6}";
type = Stem;
},
{
horizontal = 1;
origin = "{3, 3}";
target = "{3, 2}";
type = Stem;
},
{
horizontal = 1;
origin = "{0, 5}";
target = "{0, 4}";
type = Stem;
},
{
origin = "{0, 6}";
target = "{1, 0}";
type = Stem;
},
{
origin = "{2, 3}";
target = "{0, 1}";
type = Stem;
}
);
layerId = "E0F5E986-8A77-409E-9DB3-A90D066F072F";
paths = (
{
closed = 1;
nodes = (
"425 0 LINE",
"565 70 LINE",
"565 630 LINE",
"425 700 LINE",
"210 700 LINE",
"70 630 LINE",
"70 70 LINE",
"210 0 LINE"
);
},
{
closed = 1;
nodes = (
"140 113 LINE",
"140 587 LINE",
"227 630 LINE",
"408 630 LINE",
"495 587 LINE",
"495 113 LINE",
"408 70 LINE",
"227 70 LINE"
);
},
{
closed = 1;
nodes = (
"933 0 LINE",
"933 70 LINE",
"495 70 LINE",
"495 0 LINE"
);
},
{
closed = 1;
nodes = (
"854 315 LINE",
"854 385 LINE",
"565 385 LINE",
"565 315 LINE"
);
},
{
closed = 1;
nodes = (
"933 630 LINE",
"933 700 LINE",
"495 700 LINE",
"495 630 LINE"
);
}
);
width = 1003;
},
{
hints = (
{
horizontal = 1;
origin = "{0, 7}";
target = "{0, 6}";
type = Stem;
},
{
horizontal = 1;
origin = "{3, 2}";
target = "{3, 3}";
type = Stem;
},
{
horizontal = 1;
origin = "{0, 4}";
target = "{0, 5}";
type = Stem;
},
{
origin = "{0, 6}";
target = "{1, 0}";
type = Stem;
},
{
place = "{832.5, 70.5}";
type = Stem;
}
);
layerId = "671D7F47-0040-4C88-995A-F1154CC787CA";
paths = (
{
closed = 1;
nodes = (
"763 0 LINE",
"903 70 LINE",
"903 630 LINE",
"763 700 LINE",
"210 700 LINE",
"70 630 LINE",
"70 70 LINE",
"210 0 LINE"
);
},
{
closed = 1;
nodes = (
"140 113 LINE",
"140 587 LINE",
"227 630 LINE",
"746 630 LINE",
"833 587 LINE",
"832 113 LINE",
"746 70 LINE",
"227 70 LINE"
);
},
{
closed = 1;
nodes = (
"1570 0 LINE",
"1570 70 LINE",
"832 70 LINE",
"832 0 LINE"
);
},
{
closed = 1;
nodes = (
"1542 315 LINE",
"1542 385 LINE",
"902 385 LINE",
"902 315 LINE"
);
},
{
closed = 1;
nodes = (
"1570 630 LINE",
"1570 700 LINE",
"832 700 LINE",
"832 630 LINE"
);
}
);
width = 1640;
},
{
guideLines = (
{
angle = 78;
position = "{467, 119}";
}
);
hints = (
{
horizontal = 1;
origin = "{0, 7}";
target = "{0, 6}";
type = Stem;
},
{
horizontal = 1;
origin = "{3, 2}";
target = "{3, 3}";
type = Stem;
},
{
horizontal = 1;
origin = "{0, 4}";
target = "{0, 5}";
type = Stem;
}
);
layerId = "69FAE2FB-B0EC-4DE1-A39D-F4FC44956106";
paths = (
{
closed = 1;
nodes = (
"374 0 LINE",
"528 70 LINE",
"646 630 LINE",
"521 700 LINE",
"306 700 LINE",
"151 630 LINE",
"33 70 LINE",
"159 0 LINE"
);
},
{
closed = 1;
nodes = (
"112 106 LINE",
"212 581 LINE",
"321 630 LINE",
"503 630 LINE",
"567 594 LINE",
"467 119 LINE",
"359 70 LINE",
"177 70 LINE"
);
},
{
closed = 1;
nodes = (
"879 0 LINE",
"895 70 LINE",
"457 70 LINE",
"441 0 LINE"
);
},
{
closed = 1;
nodes = (
"869 315 LINE",
"884 385 LINE",
"560 385 LINE",
"545 315 LINE"
);
},
{
closed = 1;
nodes = (
"1013 630 LINE",
"1029 700 LINE",
"591 700 LINE",
"575 630 LINE"
);
}
);
width = 1003;
}
);
leftMetricsKey = O;
rightMetricsKey = E;
unicode = "0152,0153";
},
{
glyphname = P;
lastChange = "2019-06-02 18:43:35 +0000";
layers = (
{
hints = (
{
horizontal = 1;
origin = "{1, 3}";
target = up;
type = BottomGhost;
},
{
horizontal = 1;
origin = "{0, 10}";
target = "{0, 11}";
type = Stem;
},
{
horizontal = 1;
origin = "{1, 2}";
target = "{0, 5}";
type = Stem;
},
{
origin = "{1, 3}";
target = "{1, 0}";
type = Stem;
},
{
origin = "{0, 8}";
target = "{0, 1}";
type = Stem;
}
);
layerId = "E82D559A-267E-4BF3-BBA1-0778DA3FF57C";
paths = (
{
closed = 1;
nodes = (
"514 280 LINE",
"654 350 LINE",
"654 630 LINE",
"514 700 LINE",
"140 700 LINE",
"140 560 LINE",
"504 560 LINE",
"504 560 LINE",
"504 420 LINE",
"504 420 LINE",
"140 420 LINE",
"140 280 LINE"
);
},
{
closed = 1;
nodes = (
"210 0 LINE",
"210 700 LINE",
"70 700 LINE",
"70 0 LINE"
);
}
);
width = 689;
},
{
hints = (
{
horizontal = 1;
origin = "{1, 3}";
target = up;
type = BottomGhost;
},
{
horizontal = 1;
origin = "{0, 10}";
target = "{0, 11}";
type = Stem;
},
{
horizontal = 1;
origin = "{1, 2}";
target = "{0, 5}";
type = Stem;
},
{
origin = "{1, 3}";
target = "{1, 0}";
type = Stem;
},
{
place = "{791.5, 150.5}";
type = Stem;
}
);
layerId = "B8F43E33-4D80-4AEE-B4E2-DC92E4FCAAE5";
paths = (
{
closed = 1;
nodes = (
"802 280 LINE",
"942 350 LINE",
"942 630 LINE",
"802 700 LINE",
"140 700 LINE",
"140 560 LINE",
"791 560 LINE",
"791 560 LINE",
"791 420 LINE",
"791 420 LINE",
"140 420 LINE",
"140 280 LINE"
);
},
{
closed = 1;
nodes = (
"210 0 LINE",
"210 700 LINE",
"70 700 LINE",
"70 0 LINE"
);
}
);
width = 977;
},
{
hints = (
{
horizontal = 1;
origin = "{1, 3}";
target = up;
type = BottomGhost;
},
{
horizontal = 1;
origin = "{0, 10}";
target = "{0, 11}";
type = Stem;
},
{
horizontal = 1;
origin = "{1, 2}";
target = "{0, 5}";
type = Stem;
}
);
layerId = "198E78DA-6138-42C0-8847-C36925CEE918";
paths = (
{
closed = 1;
nodes = (
"521 280 LINE",
"676 350 LINE",
"734 630 LINE",
"609 700 LINE",
"236 700 LINE",
"206 560 LINE",
"570 560 LINE",
"570 560 LINE",
"540 420 LINE",
"540 420 LINE",
"176 420 LINE",
"147 280 LINE"
);
},
{
closed = 1;
nodes = (
"157 0 LINE",
"306 700 LINE",
"166 700 LINE",
"17 0 LINE"
);
}
);
width = 690;
},
{
hints = (
{
horizontal = 1;
origin = "{1, 3}";
target = up;
type = BottomGhost;
},
{
horizontal = 1;
origin = "{0, 10}";
target = "{0, 11}";
type = Stem;
},
{
horizontal = 1;
origin = "{1, 2}";
target = "{0, 5}";
type = Stem;
},
{
origin = "{1, 3}";
target = "{1, 0}";
type = Stem;
},
{
origin = "{0, 8}";
target = "{0, 1}";
type = Stem;
}
);
layerId = "E0F5E986-8A77-409E-9DB3-A90D066F072F";
paths = (
{
closed = 1;
nodes = (
"514 315 LINE",
"654 385 LINE",
"654 630 LINE",
"514 700 LINE",
"105 700 LINE",
"105 630 LINE",
"497 630 LINE",
"584 587 LINE",
"584 428 LINE",
"497 385 LINE",
"105 385 LINE",
"105 315 LINE"
);
},
{
closed = 1;
nodes = (
"140 0 LINE",
"140 700 LINE",
"70 700 LINE",
"70 0 LINE"
);
}
);
width = 689;
},
{
hints = (
{
horizontal = 1;
origin = "{1, 3}";
target = up;
type = BottomGhost;
},
{
horizontal = 1;
origin = "{0, 10}";
target = "{0, 11}";
type = Stem;
},
{
horizontal = 1;
origin = "{1, 2}";
target = "{0, 5}";
type = Stem;
},
{
origin = "{1, 3}";
target = "{1, 0}";
type = Stem;
},
{
origin = "{0, 8}";
target = "{0, 1}";
type = Stem;
}
);
layerId = "671D7F47-0040-4C88-995A-F1154CC787CA";
paths = (
{
closed = 1;
nodes = (
"801 315 LINE",
"942 385 LINE",
"942 630 LINE",
"801 700 LINE",
"105 700 LINE",
"105 630 LINE",
"785 630 LINE",
"872 587 LINE",
"872 428 LINE",
"785 385 LINE",
"105 385 LINE",
"105 315 LINE"
);
},
{
closed = 1;
nodes = (
"140 0 LINE",
"140 700 LINE",
"70 700 LINE",
"70 0 LINE"
);
}
);
width = 977;
},
{
hints = (
{
horizontal = 1;
origin = "{1, 3}";
target = up;
type = BottomGhost;
},
{
horizontal = 1;
origin = "{0, 10}";
target = "{0, 11}";
type = Stem;
},
{
horizontal = 1;
origin = "{1, 2}";
target = "{0, 5}";
type = Stem;
}
);
layerId = "69FAE2FB-B0EC-4DE1-A39D-F4FC44956106";
paths = (
{
closed = 1;
nodes = (
"524 315 LINE",
"679 385 LINE",
"737 630 LINE",
"612 700 LINE",
"201 700 LINE",
"187 630 LINE",
"584 630 LINE",
"656 591 LINE",
"619 435 LINE",
"509 385 LINE",
"132 385 LINE",
"118 315 LINE"
);
},
{
closed = 1;
nodes = (
"87 0 LINE",
"236 700 LINE",
"166 700 LINE",
"17 0 LINE"
);
}
);
width = 691;
}
);
leftKerningGroup = H;
leftMetricsKey = H;
rightKerningGroup = F;
rightMetricsKey = F;
unicode = "0050,0070";
},
{
glyphname = Thorn;
lastChange = "2019-06-02 17:34:11 +0000";
layers = (
{
hints = (
{
horizontal = 1;
origin = "{0, 11}";
target = "{0, 10}";
type = Stem;
},
{
horizontal = 1;
origin = "{0, 5}";
target = "{0, 4}";
type = Stem;
},
{
origin = "{1, 3}";
target = "{1, 0}";
type = Stem;
},
{
origin = "{0, 9}";
target = "{0, 1}";
type = Stem;
}
);
layerId = "E82D559A-267E-4BF3-BBA1-0778DA3FF57C";
paths = (
{
closed = 1;
nodes = (
"515 140 LINE",
"655 210 LINE",
"655 490 LINE",
"515 560 LINE",
"141 560 LINE",
"141 420 LINE",
"505 420 LINE",
"505 420 LINE",
"505 280 LINE",
"505 280 LINE",
"141 280 LINE",
"141 140 LINE"
);
},
{
closed = 1;
nodes = (
"210 0 LINE",
"210 700 LINE",
"70 700 LINE",
"70 0 LINE"
);
}
);
width = 690;
},
{
hints = (
{
horizontal = 1;
origin = "{1, 3}";
target = up;
type = BottomGhost;
},
{
horizontal = 1;
origin = "{0, 11}";
target = "{0, 10}";
type = Stem;
},
{
horizontal = 1;
origin = "{0, 5}";
target = "{0, 4}";
type = Stem;
},
{
horizontal = 1;
origin = "{1, 2}";
target = down;
type = TopGhost;
},
{
origin = "{1, 3}";
target = "{1, 0}";
type = Stem;
},
{
origin = "{0, 8}";
target = "{0, 1}";
type = Stem;
}
);
layerId = "B8F43E33-4D80-4AEE-B4E2-DC92E4FCAAE5";
paths = (
{
closed = 1;
nodes = (
"803 140 LINE",
"943 210 LINE",
"943 490 LINE",
"803 560 LINE",
"141 560 LINE",
"141 420 LINE",
"792 420 LINE",
"792 420 LINE",
"792 280 LINE",
"792 280 LINE",
"141 280 LINE",
"141 140 LINE"
);
},
{
closed = 1;
nodes = (
"210 0 LINE",
"210 700 LINE",
"70 700 LINE",
"70 0 LINE"
);
}
);
width = 978;
},
{
hints = (
{
horizontal = 1;
origin = "{1, 3}";
target = up;
type = BottomGhost;
},
{
horizontal = 1;
origin = "{0, 11}";
target = "{0, 10}";
type = Stem;
},
{
horizontal = 1;
origin = "{0, 5}";
target = "{0, 4}";
type = Stem;
},
{
horizontal = 1;
origin = "{1, 2}";
target = down;
type = TopGhost;
}
);
layerId = "198E78DA-6138-42C0-8847-C36925CEE918";
paths = (
{
closed = 1;
nodes = (
"492 140 LINE",
"647 210 LINE",
"706 490 LINE",
"581 560 LINE",
"207 560 LINE",
"177 420 LINE",
"541 420 LINE",
"541 420 LINE",
"512 280 LINE",
"512 280 LINE",
"148 280 LINE",
"118 140 LINE"
);
},
{
closed = 1;
nodes = (
"157 0 LINE",
"306 700 LINE",
"166 700 LINE",
"17 0 LINE"
);
}
);
width = 691;
},
{
hints = (
{
horizontal = 1;
origin = "{1, 3}";
target = up;
type = BottomGhost;
},
{
horizontal = 1;
origin = "{0, 11}";
target = "{0, 10}";
type = Stem;
},
{
horizontal = 1;
origin = "{0, 5}";
target = "{0, 4}";
type = Stem;
},
{
horizontal = 1;
origin = "{1, 2}";
target = down;
type = TopGhost;
},
{
origin = "{1, 3}";
target = "{1, 0}";
type = Stem;
},
{
origin = "{0, 8}";
target = "{0, 1}";
type = Stem;
}
);
layerId = "E0F5E986-8A77-409E-9DB3-A90D066F072F";
paths = (
{
closed = 1;
nodes = (
"515 155 LINE",
"655 225 LINE",
"655 470 LINE",
"515 540 LINE",
"106 540 LINE",
"106 470 LINE",
"498 470 LINE",
"585 427 LINE",
"585 268 LINE",
"498 225 LINE",
"106 225 LINE",
"106 155 LINE"
);
},
{
closed = 1;
nodes = (
"140 0 LINE",
"140 700 LINE",
"70 700 LINE",
"70 0 LINE"
);
}
);
width = 690;
},
{
hints = (
{
horizontal = 1;
origin = "{0, 10}";
target = "{0, 11}";
type = Stem;
},
{
horizontal = 1;
origin = "{0, 4}";
target = "{0, 5}";
type = Stem;
},
{
origin = "{1, 3}";
target = "{1, 0}";
type = Stem;
},
{
origin = "{0, 8}";
target = "{0, 1}";
type = Stem;
}
);
layerId = "671D7F47-0040-4C88-995A-F1154CC787CA";
paths = (
{
closed = 1;
nodes = (
"802 155 LINE",
"943 225 LINE",
"943 470 LINE",
"802 540 LINE",
"106 540 LINE",
"106 470 LINE",
"786 470 LINE",
"873 427 LINE",
"873 268 LINE",
"786 225 LINE",
"106 225 LINE",
"106 155 LINE"
);
},
{
closed = 1;
nodes = (
"140 0 LINE",
"140 700 LINE",
"70 700 LINE",
"70 0 LINE"
);
}
);
width = 978;
},
{
hints = (
{
horizontal = 1;
origin = "{1, 3}";
target = up;
type = BottomGhost;
},
{
horizontal = 1;
origin = "{0, 10}";
target = "{0, 11}";
type = Stem;
},
{
horizontal = 1;
origin = "{0, 5}";
target = "{0, 4}";
type = Stem;
}
);
layerId = "69FAE2FB-B0EC-4DE1-A39D-F4FC44956106";
paths = (
{
closed = 1;
nodes = (
"490 157 LINE",
"645 227 LINE",
"703 472 LINE",
"578 542 LINE",
"167 542 LINE",
"153 472 LINE",
"550 472 LINE",
"622 433 LINE",
"585 277 LINE",
"475 227 LINE",
"98 227 LINE",
"84 157 LINE"
);
},
{
closed = 1;
nodes = (
"87 0 LINE",
"236 700 LINE",
"166 700 LINE",
"17 0 LINE"
);
}
);
width = 691;
}
);
leftKerningGroup = Thorn;
leftMetricsKey = P;
rightKerningGroup = Thorn;
rightMetricsKey = P;
unicode = "00DE,00FE";
},
{
glyphname = Q;
lastChange = "2019-06-02 13:13:09 +0000";
layers = (
{
components = (
{
name = O;
}
);
layerId = "E82D559A-267E-4BF3-BBA1-0778DA3FF57C";
paths = (
{
closed = 1;
nodes = (
"557 -67 LINE",
"418 247 LINE",
"290 190 LINE",
"429 -124 LINE"
);
}
);
width = 735;
},
{
components = (
{
alignment = -1;
name = O;
}
);
layerId = "B8F43E33-4D80-4AEE-B4E2-DC92E4FCAAE5";
paths = (
{
closed = 1;
nodes = (
"1017 -119 LINE",
"825 313 LINE",
"698 256 LINE",
"890 -176 LINE"
);
}
);
width = 1172.5;
},
{
components = (
{
name = O;
}
);
layerId = "198E78DA-6138-42C0-8847-C36925CEE918";
paths = (
{
closed = 1;
nodes = (
"605 -61 LINE",
"459 263 LINE",
"332 206 LINE",
"478 -118 LINE"
);
}
);
width = 741;
},
{
components = (
{
name = O;
}
);
layerId = "E0F5E986-8A77-409E-9DB3-A90D066F072F";
paths = (
{
closed = 1;
nodes = (
"586 -88 LINE",
"512 188 LINE",
"445 169 LINE",
"519 -107 LINE"
);
}
);
width = 735;
},
{
components = (
{
alignment = -1;
name = O;
}
);
layerId = "671D7F47-0040-4C88-995A-F1154CC787CA";
paths = (
{
closed = 1;
nodes = (
"1044 -135 LINE",
"929 228 LINE",
"862 209 LINE",
"977 -154 LINE"
);
}
);
width = 1172.5;
},
{
components = (
{
alignment = -1;
name = O;
}
);
layerId = "69FAE2FB-B0EC-4DE1-A39D-F4FC44956106";
paths = (
{
closed = 1;
nodes = (
"555 -94 LINE",
"495 189 LINE",
"426 172 LINE",
"485 -111 LINE"
);
}
);
width = 741;
}
);
unicode = "0051,0071";
},
{
glyphname = R;
lastChange = "2019-06-02 18:20:31 +0000";
layers = (
{
anchors = (
{
name = above;
position = "{380, 875}";
},
{
name = below;
position = "{357, 0}";
}
);
hints = (
{
horizontal = 1;
origin = "{1, 3}";
target = up;
type = BottomGhost;
},
{
horizontal = 1;
origin = "{0, 10}";
target = "{0, 11}";
type = Stem;
},
{
horizontal = 1;
origin = "{1, 2}";
target = "{0, 5}";
type = Stem;
},
{
origin = "{1, 3}";
target = "{1, 0}";
type = Stem;
},
{
origin = "{0, 8}";
target = "{0, 1}";
type = Stem;
}
);
layerId = "E82D559A-267E-4BF3-BBA1-0778DA3FF57C";
paths = (
{
closed = 1;
nodes = (
"515 280 LINE",
"655 350 LINE",
"655 630 LINE",
"515 700 LINE",
"141 700 LINE",
"141 560 LINE",
"505 560 LINE",
"505 560 LINE",
"505 420 LINE",
"505 420 LINE",
"141 420 LINE",
"141 280 LINE"
);
},
{
closed = 1;
nodes = (
"210 0 LINE",
"210 700 LINE",
"70 700 LINE",
"70 0 LINE"
);
},
{
closed = 1;
nodes = (
"680 0 LINE",
"521 371 LINE",
"396 319 LINE",
"526 0 LINE"
);
}
);
width = 715;
},
{
anchors = (
{
name = above;
position = "{517, 875}";
},
{
name = below;
position = "{517, 0}";
}
);
hints = (
{
horizontal = 1;
origin = "{1, 3}";
target = up;
type = BottomGhost;
},
{
horizontal = 1;
origin = "{0, 11}";
target = "{0, 10}";
type = Stem;
},
{
horizontal = 1;
origin = "{1, 2}";
target = "{0, 5}";
type = Stem;
},
{
origin = "{1, 3}";
target = "{1, 0}";
type = Stem;
},
{
origin = "{0, 8}";
target = "{0, 1}";
type = Stem;
}
);
layerId = "B8F43E33-4D80-4AEE-B4E2-DC92E4FCAAE5";
paths = (
{
closed = 1;
nodes = (
"803 280 LINE",
"943 350 LINE",
"943 630 LINE",
"803 700 LINE",
"141 700 LINE",
"141 560 LINE",
"793 560 LINE",
"793 560 LINE",
"793 420 LINE",
"793 420 LINE",
"141 420 LINE",
"141 280 LINE"
);
},
{
closed = 1;
nodes = (
"210 0 LINE",
"210 700 LINE",
"70 700 LINE",
"70 0 LINE"
);
},
{
closed = 1;
nodes = (
"1010 0 LINE",
"714 401 LINE",
"601 318 LINE",
"837 0 LINE"
);
}
);
width = 1045;
},
{
anchors = (
{
name = above;
position = "{473, 875}";
},
{
name = below;
position = "{314, 0}";
}
);
hints = (
{
horizontal = 1;
origin = "{1, 3}";
target = up;
type = BottomGhost;
},
{
horizontal = 1;
origin = "{0, 11}";
target = "{0, 10}";
type = Stem;
},
{
horizontal = 1;
origin = "{1, 2}";
target = "{0, 5}";
type = Stem;
}
);
layerId = "198E78DA-6138-42C0-8847-C36925CEE918";
paths = (
{
closed = 1;
nodes = (
"522 280 LINE",
"677 350 LINE",
"735 630 LINE",
"610 700 LINE",
"237 700 LINE",
"207 560 LINE",
"571 560 LINE",
"571 560 LINE",
"541 420 LINE",
"541 420 LINE",
"177 420 LINE",
"148 280 LINE"
);
},
{
closed = 1;
nodes = (
"157 0 LINE",
"306 700 LINE",
"166 700 LINE",
"17 0 LINE"
);
},
{
closed = 1;
nodes = (
"626 0 LINE",
"545 371 LINE",
"408 341 LINE",
"482 0 LINE"
);
}
);
width = 714;
},
{
anchors = (
{
name = above;
position = "{370, 875}";
},
{
name = below;
position = "{357, 0}";
}
);
hints = (
{
horizontal = 1;
origin = "{1, 3}";
target = up;
type = BottomGhost;
},
{
horizontal = 1;
origin = "{0, 11}";
target = "{0, 10}";
type = Stem;
},
{
horizontal = 1;
origin = "{1, 2}";
target = "{0, 5}";
type = Stem;
},
{
origin = "{1, 3}";
target = "{1, 0}";
type = Stem;
},
{
origin = "{0, 8}";
target = "{0, 1}";
type = Stem;
}
);
layerId = "E0F5E986-8A77-409E-9DB3-A90D066F072F";
paths = (
{
closed = 1;
nodes = (
"515 315 LINE",
"655 385 LINE",
"655 630 LINE",
"515 700 LINE",
"106 700 LINE",
"106 630 LINE",
"498 630 LINE",
"585 587 LINE",
"585 428 LINE",
"498 385 LINE",
"106 385 LINE",
"106 315 LINE"
);
},
{
closed = 1;
nodes = (
"140 0 LINE",
"140 700 LINE",
"70 700 LINE",
"70 0 LINE"
);
},
{
closed = 1;
nodes = (
"700 0 LINE",
"508 369 LINE",
"446 337 LINE",
"621 0 LINE"
);
}
);
width = 735;
},
{
anchors = (
{
name = above;
position = "{492, 875}";
},
{
name = below;
position = "{517, 0}";
}
);
hints = (
{
horizontal = 1;
origin = "{1, 3}";
target = up;
type = BottomGhost;
},
{
horizontal = 1;
origin = "{0, 10}";
target = "{0, 11}";
type = Stem;
},
{
horizontal = 1;
origin = "{1, 2}";
target = "{0, 5}";
type = Stem;
},
{
origin = "{1, 3}";
target = "{1, 0}";
type = Stem;
},
{
origin = "{0, 8}";
target = "{0, 1}";
type = Stem;
}
);
layerId = "671D7F47-0040-4C88-995A-F1154CC787CA";
paths = (
{
closed = 1;
nodes = (
"803 315 LINE",
"943 385 LINE",
"943 630 LINE",
"803 700 LINE",
"106 700 LINE",
"106 630 LINE",
"786 630 LINE",
"873 587 LINE",
"873 428 LINE",
"786 385 LINE",
"106 385 LINE",
"106 315 LINE"
);
},
{
closed = 1;
nodes = (
"140 0 LINE",
"140 700 LINE",
"70 700 LINE",
"70 0 LINE"
);
},
{
closed = 1;
nodes = (
"986 0 LINE",
"794 369 LINE",
"732 337 LINE",
"907 0 LINE"
);
}
);
width = 1021;
},
{
anchors = (
{
name = above;
position = "{463, 875}";
},
{
name = below;
position = "{314, 0}";
}
);
hints = (
{
horizontal = 1;
origin = "{1, 3}";
target = up;
type = BottomGhost;
},
{
horizontal = 1;
origin = "{0, 10}";
target = "{0, 11}";
type = Stem;
},
{
horizontal = 1;
origin = "{1, 2}";
target = "{0, 5}";
type = Stem;
}
);
layerId = "69FAE2FB-B0EC-4DE1-A39D-F4FC44956106";
paths = (
{
closed = 1;
nodes = (
"522 315 LINE",
"677 385 LINE",
"735 630 LINE",
"610 700 LINE",
"199 700 LINE",
"185 630 LINE",
"582 630 LINE",
"654 591 LINE",
"617 435 LINE",
"507 385 LINE",
"130 385 LINE",
"116 315 LINE"
);
},
{
closed = 1;
nodes = (
"87 0 LINE",
"236 700 LINE",
"166 700 LINE",
"17 0 LINE"
);
},
{
closed = 1;
nodes = (
"676 0 LINE",
"512 369 LINE",
"448 341 LINE",
"600 0 LINE"
);
}
);
width = 764;
}
);
leftMetricsKey = H;
unicode = "0052,0072";
},
{
glyphname = S;
lastChange = "2019-06-07 13:29:50 +0000";
layers = (
{
anchors = (
{
name = above;
position = "{368, 875}";
},
{
name = below;
position = "{369, 0}";
},
{
name = lowerRight;
position = "{470, 0}";
}
);
hints = (
{
horizontal = 1;
origin = "{0, 27}";
target = "{0, 22}";
type = Stem;
},
{
horizontal = 1;
origin = "{0, 17}";
target = "{0, 4}";
type = Stem;
},
{
horizontal = 1;
origin = "{0, 14}";
target = "{0, 7}";
type = Stem;
},
{
origin = "{0, 26}";
target = "{0, 23}";
type = Stem;
},
{
origin = "{0, 20}";
target = "{0, 1}";
type = Stem;
}
);
layerId = "E82D559A-267E-4BF3-BBA1-0778DA3FF57C";
paths = (
{
closed = 1;
nodes = (
"505 0 LINE",
"665 70 LINE",
"665 350 LINE",
"525 420 LINE",
"179 420 LINE",
"210 389 LINE",
"210 601 LINE",
"179 570 LINE",
"556 570 LINE",
"525 601 LINE",
"525 490 LINE",
"665 490 LINE",
"665 630 LINE",
"525 700 LINE",
"210 700 LINE",
"70 630 LINE",
"70 350 LINE",
"210 280 LINE",
"556 280 LINE",
"525 311 LINE",
"525 99 LINE",
"556 130 LINE",
"179 130 LINE",
"210 99 LINE",
"210 210 LINE",
"70 210 LINE",
"70 70 LINE",
"230 0 LINE"
);
}
);
width = 735;
},
{
anchors = (
{
name = above;
position = "{586, 875}";
},
{
name = below;
position = "{584, 0}";
},
{
name = lowerRight;
position = "{820, 0}";
}
);
hints = (
{
horizontal = 1;
origin = "{0, 27}";
target = "{0, 22}";
type = Stem;
},
{
horizontal = 1;
origin = "{0, 17}";
target = "{0, 4}";
type = Stem;
},
{
horizontal = 1;
origin = "{0, 7}";
target = "{0, 14}";
type = Stem;
},
{
origin = "{0, 26}";
target = "{0, 23}";
type = Stem;
},
{
origin = "{0, 20}";
target = "{0, 1}";
type = Stem;
}
);
layerId = "B8F43E33-4D80-4AEE-B4E2-DC92E4FCAAE5";
paths = (
{
closed = 1;
nodes = (
"943 0 LINE",
"1103 70 LINE",
"1103 350 LINE",
"963 420 LINE",
"179 420 LINE",
"210 389 LINE",
"210 601 LINE",
"179 570 LINE",
"994 570 LINE",
"963 601 LINE",
"963 490 LINE",
"1103 490 LINE",
"1103 630 LINE",
"963 700 LINE",
"210 700 LINE",
"70 630 LINE",
"70 350 LINE",
"210 280 LINE",
"994 280 LINE",
"963 311 LINE",
"963 99 LINE",
"994 130 LINE",
"179 130 LINE",
"210 99 LINE",
"210 210 LINE",
"70 210 LINE",
"70 70 LINE",
"230 0 LINE"
);
}
);
width = 1173;
},
{
anchors = (
{
name = above;
position = "{502, 875}";
},
{
name = below;
position = "{317, 0}";
},
{
name = lowerRight;
position = "{418, 0}";
}
);
hints = (
{
horizontal = 1;
origin = "{0, 27}";
target = "{0, 22}";
type = Stem;
},
{
horizontal = 1;
origin = "{0, 17}";
target = "{0, 4}";
type = Stem;
},
{
horizontal = 1;
origin = "{0, 7}";
target = "{0, 14}";
type = Stem;
}
);
layerId = "198E78DA-6138-42C0-8847-C36925CEE918";
paths = (
{
closed = 1;
nodes = (
"453 0 LINE",
"628 70 LINE",
"687 350 LINE",
"562 420 LINE",
"216 420 LINE",
"240 389 LINE",
"286 601 LINE",
"248 570 LINE",
"625 570 LINE",
"601 601 LINE",
"577 490 LINE",
"717 490 LINE",
"746 630 LINE",
"621 700 LINE",
"306 700 LINE",
"151 630 LINE",
"93 350 LINE",
"218 280 LINE",
"564 280 LINE",
"540 311 LINE",
"494 99 LINE",
"532 130 LINE",
"155 130 LINE",
"179 99 LINE",
"203 210 LINE",
"63 210 LINE",
"33 70 LINE",
"178 0 LINE"
);
}
);
width = 736;
},
{
anchors = (
{
name = above;
position = "{368, 875}";
},
{
name = below;
position = "{369, 0}";
},
{
name = lowerRight;
position = "{470, 0}";
}
);
hints = (
{
horizontal = 1;
origin = "{0, 27}";
target = "{0, 26}";
type = Stem;
},
{
horizontal = 1;
origin = "{0, 17}";
target = "{0, 16}";
type = Stem;
},
{
horizontal = 1;
origin = "{0, 15}";
target = "{0, 14}";
type = Stem;
},
{
origin = "{0, 26}";
target = "{0, 23}";
type = Stem;
},
{
origin = "{0, 20}";
target = "{0, 1}";
type = Stem;
}
);
layerId = "E0F5E986-8A77-409E-9DB3-A90D066F072F";
paths = (
{
closed = 1;
nodes = (
"505 0 LINE",
"665 70 LINE",
"665 315 LINE",
"525 385 LINE",
"227 385 LINE",
"140 428 LINE",
"140 587 LINE",
"227 630 LINE",
"508 630 LINE",
"595 587 LINE",
"595 490 LINE",
"665 490 LINE",
"665 630 LINE",
"525 700 LINE",
"210 700 LINE",
"70 630 LINE",
"70 385 LINE",
"210 315 LINE",
"508 315 LINE",
"595 272 LINE",
"595 116 LINE",
"490 70 LINE",
"245 70 LINE",
"140 116 LINE",
"140 210 LINE",
"70 210 LINE",
"70 70 LINE",
"230 0 LINE"
);
}
);
width = 735;
},
{
anchors = (
{
name = above;
position = "{586, 875}";
},
{
name = below;
position = "{584, 0}";
},
{
name = lowerRight;
position = "{820, 0}";
}
);
hints = (
{
horizontal = 1;
origin = "{0, 27}";
target = "{0, 26}";
type = Stem;
},
{
horizontal = 1;
origin = "{0, 17}";
target = "{0, 16}";
type = Stem;
},
{
horizontal = 1;
origin = "{0, 14}";
target = "{0, 15}";
type = Stem;
},
{
origin = "{0, 26}";
target = "{0, 23}";
type = Stem;
},
{
origin = "{0, 20}";
target = "{0, 1}";
type = Stem;
}
);
layerId = "671D7F47-0040-4C88-995A-F1154CC787CA";
paths = (
{
closed = 1;
nodes = (
"943 0 LINE",
"1103 70 LINE",
"1103 315 LINE",
"963 385 LINE",
"227 385 LINE",
"140 428 LINE",
"140 587 LINE",
"227 630 LINE",
"946 630 LINE",
"1033 587 LINE",
"1033 490 LINE",
"1103 490 LINE",
"1103 630 LINE",
"963 700 LINE",
"210 700 LINE",
"70 630 LINE",
"70 385 LINE",
"210 315 LINE",
"946 315 LINE",
"1033 272 LINE",
"1033 116 LINE",
"928 70 LINE",
"245 70 LINE",
"140 116 LINE",
"140 210 LINE",
"70 210 LINE",
"70 70 LINE",
"230 0 LINE"
);
}
);
width = 1173.33333;
},
{
anchors = (
{
name = above;
position = "{501, 875}";
},
{
name = below;
position = "{316, 0}";
},
{
name = lowerRight;
position = "{417, 0}";
}
);
hints = (
{
horizontal = 1;
origin = "{0, 27}";
target = "{0, 26}";
type = Stem;
},
{
horizontal = 1;
origin = "{0, 17}";
target = "{0, 16}";
type = Stem;
},
{
horizontal = 1;
origin = "{0, 14}";
target = "{0, 15}";
type = Stem;
}
);
layerId = "69FAE2FB-B0EC-4DE1-A39D-F4FC44956106";
paths = (
{
closed = 1;
nodes = (
"473 0 LINE",
"627 70 LINE",
"679 315 LINE",
"561 385 LINE",
"244 385 LINE",
"178 426 LINE",
"211 581 LINE",
"320 630 LINE",
"602 630 LINE",
"668 593 LINE",
"646 490 LINE",
"716 490 LINE",
"746 629 LINE",
"620 700 LINE",
"305 700 LINE",
"152 630 LINE",
"99 385 LINE",
"217 315 LINE",
"535 315 LINE",
"600 274 LINE",
"567 120 LINE",
"458 70 LINE",
"176 70 LINE",
"111 106 LINE",
"132 210 LINE",
"62 210 LINE",
"32 70 LINE",
"158 0 LINE"
);
}
);
width = 735;
}
);
leftMetricsKey = O;
rightMetricsKey = O;
unicode = "0053,0073";
},
{
glyphname = Germandbls;
lastChange = "2019-06-02 18:12:03 +0000";
layers = (
{
layerId = "E82D559A-267E-4BF3-BBA1-0778DA3FF57C";
paths = (
{
closed = 1;
nodes = (
"210 0 LINE",
"210 591 LINE",
"179 560 LINE",
"429 560 LINE",
"417 585 LINE",
"305 385 LINE",
"375 280 LINE",
"575 280 LINE",
"575 280 LINE",
"575 140 LINE",
"575 140 LINE",
"280 140 LINE",
"280 0 LINE",
"585 0 LINE",
"725 70 LINE",
"725 350 LINE",
"585 420 LINE",
"454 420 LINE",
"465 396 LINE",
"560 560 LINE",
"485 700 LINE",
"70 700 LINE",
"70 0 LINE"
);
}
);
width = 795;
},
{
layerId = "B8F43E33-4D80-4AEE-B4E2-DC92E4FCAAE5";
paths = (
{
closed = 1;
nodes = (
"210 0 LINE",
"210 591 LINE",
"179 560 LINE",
"654 560 LINE",
"609 609 LINE",
"511 399 LINE",
"607 280 LINE",
"953 280 LINE",
"953 280 LINE",
"953 140 LINE",
"953 140 LINE",
"351 140 LINE",
"351 0 LINE",
"963 0 LINE",
"1103 70 LINE",
"1103 350 LINE",
"963 420 LINE",
"606 420 LINE",
"653 358 LINE",
"746 567 LINE",
"653 700 LINE",
"70 700 LINE",
"70 0 LINE"
);
}
);
width = 1173;
},
{
layerId = "198E78DA-6138-42C0-8847-C36925CEE918";
paths = (
{
closed = 1;
nodes = (
"157 0 LINE",
"282 591 LINE",
"245 560 LINE",
"482 560 LINE",
"470 585 LINE",
"323 393 LINE",
"390 280 LINE",
"591 280 LINE",
"591 280 LINE",
"561 140 LINE",
"561 140 LINE",
"256 140 LINE",
"227 0 LINE",
"542 0 LINE",
"696 70 LINE",
"756 350 LINE",
"631 420 LINE",
"475 420 LINE",
"486 396 LINE",
"617 555 LINE",
"541 700 LINE",
"166 700 LINE",
"17 0 LINE"
);
}
);
width = 805;
},
{
layerId = "E0F5E986-8A77-409E-9DB3-A90D066F072F";
paths = (
{
closed = 1;
nodes = (
"140 0 LINE",
"140 675 LINE",
"95 630 LINE",
"569 630 LINE",
"549 669 LINE",
"363 360 LINE",
"388 315 LINE",
"568 315 LINE",
"655 272 LINE",
"655 113 LINE",
"568 70 LINE",
"245 70 LINE",
"245 0 LINE",
"585 0 LINE",
"725 70 LINE",
"725 315 LINE",
"585 385 LINE",
"414 385 LINE",
"434 346 LINE",
"617 650 LINE",
"590 700 LINE",
"70 700 LINE",
"70 0 LINE"
);
}
);
width = 795;
},
{
layerId = "671D7F47-0040-4C88-995A-F1154CC787CA";
paths = (
{
closed = 1;
nodes = (
"140 0 LINE",
"140 675 LINE",
"95 630 LINE",
"692 630 LINE",
"671 660 LINE",
"545 367 LINE",
"588 315 LINE",
"948 315 LINE",
"1035 272 LINE",
"1035 113 LINE",
"948 70 LINE",
"305 70 LINE",
"305 0 LINE",
"965 0 LINE",
"1105 70 LINE",
"1105 315 LINE",
"965 385 LINE",
"587 385 LINE",
"612 354 LINE",
"737 639 LINE",
"692 700 LINE",
"70 700 LINE",
"70 0 LINE"
);
}
);
width = 1175;
},
{
layerId = "69FAE2FB-B0EC-4DE1-A39D-F4FC44956106";
paths = (
{
closed = 1;
nodes = (
"88 0 LINE",
"232 674 LINE",
"178 630 LINE",
"617 630 LINE",
"598 666 LINE",
"394 385 LINE",
"435 315 LINE",
"613 315 LINE",
"675 280 LINE",
"636 120 LINE",
"527 70 LINE",
"207 70 LINE",
"192 0 LINE",
"542 0 LINE",
"696 70 LINE",
"756 315 LINE",
"631 385 LINE",
"440 385 LINE",
"459 348 LINE",
"669 645 LINE",
"631 700 LINE",
"166 700 LINE",
"17 0 LINE"
);
}
);
width = 812;
}
);
leftMetricsKey = H;
rightMetricsKey = B;
unicode = "1E9E,00DF";
},
{
glyphname = T;
lastChange = "2019-06-06 05:08:15 +0000";
layers = (
{
anchors = (
{
name = above;
position = "{314, 875}";
},
{
name = below;
position = "{316, 0}";
}
);
hints = (
{
horizontal = 1;
origin = "{0, 3}";
target = up;
type = BottomGhost;
},
{
horizontal = 1;
origin = "{1, 2}";
target = "{1, 3}";
type = Stem;
},
{
origin = "{0, 3}";
target = "{0, 0}";
type = Stem;
}
);
layerId = "E82D559A-267E-4BF3-BBA1-0778DA3FF57C";
paths = (
{
closed = 1;
nodes = (
"385 0 LINE",
"385 700 LINE",
"245 700 LINE",
"245 0 LINE"
);
},
{
closed = 1;
nodes = (
"595 560 LINE",
"595 700 LINE",
"35 700 LINE",
"35 560 LINE"
);
}
);
width = 630;
},
{
anchors = (
{
name = above;
position = "{489, 875}";
},
{
name = below;
position = "{486, 0}";
}
);
hints = (
{
horizontal = 1;
origin = "{0, 3}";
target = up;
type = BottomGhost;
},
{
horizontal = 1;
origin = "{1, 2}";
target = "{1, 3}";
type = Stem;
},
{
origin = "{0, 3}";
target = "{0, 0}";
type = Stem;
}
);
layerId = "B8F43E33-4D80-4AEE-B4E2-DC92E4FCAAE5";
paths = (
{
closed = 1;
nodes = (
"560 0 LINE",
"560 700 LINE",
"420 700 LINE",
"420 0 LINE"
);
},
{
closed = 1;
nodes = (
"945 560 LINE",
"945 700 LINE",
"35 700 LINE",
"35 560 LINE"
);
}
);
width = 980;
},
{
anchors = (
{
name = above;
position = "{447, 875}";
},
{
name = below;
position = "{263, 0}";
}
);
hints = (
{
horizontal = 1;
origin = "{0, 3}";
target = up;
type = BottomGhost;
},
{
horizontal = 1;
origin = "{1, 2}";
target = "{1, 3}";
type = Stem;
}
);
layerId = "198E78DA-6138-42C0-8847-C36925CEE918";
paths = (
{
closed = 1;
nodes = (
"332 0 LINE",
"481 700 LINE",
"341 700 LINE",
"192 0 LINE"
);
},
{
closed = 1;
nodes = (
"661 560 LINE",
"691 700 LINE",
"131 700 LINE",
"101 560 LINE"
);
}
);
width = 630;
},
{
anchors = (
{
name = above;
position = "{314, 875}";
},
{
name = below;
position = "{316, 0}";
}
);
hints = (
{
horizontal = 1;
origin = "{0, 3}";
target = up;
type = BottomGhost;
},
{
horizontal = 1;
origin = "{1, 2}";
target = "{1, 3}";
type = Stem;
},
{
origin = "{0, 3}";
target = "{0, 0}";
type = Stem;
}
);
layerId = "E0F5E986-8A77-409E-9DB3-A90D066F072F";
paths = (
{
closed = 1;
nodes = (
"350 0 LINE",
"350 700 LINE",
"280 700 LINE",
"280 0 LINE"
);
},
{
closed = 1;
nodes = (
"595 630 LINE",
"595 700 LINE",
"35 700 LINE",
"35 630 LINE"
);
}
);
width = 630;
},
{
anchors = (
{
name = above;
position = "{489, 875}";
},
{
name = below;
position = "{486, 0}";
}
);
hints = (
{
horizontal = 1;
origin = "{0, 3}";
target = up;
type = BottomGhost;
},
{
horizontal = 1;
origin = "{1, 2}";
target = "{1, 3}";
type = Stem;
},
{
origin = "{0, 3}";
target = "{0, 0}";
type = Stem;
}
);
layerId = "671D7F47-0040-4C88-995A-F1154CC787CA";
paths = (
{
closed = 1;
nodes = (
"525 0 LINE",
"525 700 LINE",
"455 700 LINE",
"455 0 LINE"
);
},
{
closed = 1;
nodes = (
"945 630 LINE",
"945 700 LINE",
"35 700 LINE",
"35 630 LINE"
);
}
);
width = 980;
},
{
anchors = (
{
name = above;
position = "{448, 875}";
},
{
name = below;
position = "{264, 0}";
}
);
hints = (
{
horizontal = 1;
origin = "{0, 3}";
target = up;
type = BottomGhost;
},
{
horizontal = 1;
origin = "{1, 2}";
target = "{1, 3}";
type = Stem;
}
);
layerId = "69FAE2FB-B0EC-4DE1-A39D-F4FC44956106";
paths = (
{
closed = 1;
nodes = (
"298 0 LINE",
"447 700 LINE",
"377 700 LINE",
"228 0 LINE"
);
},
{
closed = 1;
nodes = (
"677 630 LINE",
"691 700 LINE",
"131 700 LINE",
"117 630 LINE"
);
}
);
width = 631;
}
);
leftKerningGroup = T;
rightKerningGroup = T;
unicode = "0054,0074";
},
{
glyphname = Tbar;
lastChange = "2019-06-02 18:13:17 +0000";
layers = (
{
components = (
{
name = T;
}
);
hints = (
{
horizontal = 1;
origin = "{0, 3}";
target = "{0, 2}";
type = Stem;
}
);
layerId = "E82D559A-267E-4BF3-BBA1-0778DA3FF57C";
paths = (
{
closed = 1;
nodes = (
"490 280 LINE",
"490 420 LINE",
"140 420 LINE",
"140 280 LINE"
);
}
);
width = 630;
},
{
components = (
{
alignment = -1;
name = T;
}
);
layerId = "B8F43E33-4D80-4AEE-B4E2-DC92E4FCAAE5";
paths = (
{
closed = 1;
nodes = (
"735 280 LINE",
"735 420 LINE",
"245 420 LINE",
"245 280 LINE"
);
}
);
width = 980;
},
{
components = (
{
name = T;
}
);
layerId = "198E78DA-6138-42C0-8847-C36925CEE918";
paths = (
{
closed = 1;
nodes = (
"495 280 LINE",
"524 420 LINE",
"174 420 LINE",
"145 280 LINE"
);
}
);
width = 630;
},
{
components = (
{
name = T;
}
);
layerId = "E0F5E986-8A77-409E-9DB3-A90D066F072F";
paths = (
{
closed = 1;
nodes = (
"510 325 LINE",
"510 375 LINE",
"120 375 LINE",
"120 325 LINE"
);
}
);
width = 630;
},
{
components = (
{
alignment = -1;
name = T;
}
);
hints = (
{
horizontal = 1;
origin = "{0, 3}";
target = "{0, 2}";
type = Stem;
}
);
layerId = "671D7F47-0040-4C88-995A-F1154CC787CA";
paths = (
{
closed = 1;
nodes = (
"743 325 LINE",
"743 375 LINE",
"237 375 LINE",
"237 325 LINE"
);
}
);
width = 980;
},
{
components = (
{
alignment = -1;
name = T;
}
);
hints = (
{
horizontal = 1;
origin = "{0, 3}";
target = "{0, 2}";
type = Stem;
}
);
layerId = "69FAE2FB-B0EC-4DE1-A39D-F4FC44956106";
paths = (
{
closed = 1;
nodes = (
"525 325 LINE",
"536 375 LINE",
"146 375 LINE",
"135 325 LINE"
);
}
);
width = 631;
}
);
leftMetricsKey = T;
rightMetricsKey = T;
unicode = "0166,0167";
},
{
glyphname = U;
lastChange = "2019-06-02 22:02:41 +0000";
layers = (
{
anchors = (
{
name = above;
position = "{368, 875}";
},
{
name = lowerRight;
position = "{525, 0}";
}
);
hints = (
{
horizontal = 1;
origin = "{0, 6}";
target = "{0, 11}";
type = Stem;
},
{
horizontal = 1;
origin = "{0, 9}";
target = down;
type = TopGhost;
},
{
origin = "{0, 10}";
target = "{0, 11}";
type = Stem;
},
{
origin = "{0, 0}";
target = "{0, 1}";
type = Stem;
}
);
layerId = "E82D559A-267E-4BF3-BBA1-0778DA3FF57C";
paths = (
{
closed = 1;
nodes = (
"525 0 LINE",
"665 70 LINE",
"665 700 LINE",
"525 700 LINE",
"525 140 LINE",
"525 140 LINE",
"210 140 LINE",
"210 140 LINE",
"210 700 LINE",
"70 700 LINE",
"70 70 LINE",
"210 0 LINE"
);
}
);
width = 735;
},
{
anchors = (
{
name = above;
position = "{585.5, 875}";
},
{
name = lowerRight;
position = "{963, 0}";
}
);
hints = (
{
horizontal = 1;
origin = "{0, 6}";
target = "{0, 11}";
type = Stem;
},
{
horizontal = 1;
origin = "{0, 9}";
target = down;
type = TopGhost;
},
{
origin = "{0, 10}";
target = "{0, 11}";
type = Stem;
},
{
origin = "{0, 0}";
target = "{0, 1}";
type = Stem;
}
);
layerId = "B8F43E33-4D80-4AEE-B4E2-DC92E4FCAAE5";
paths = (
{
closed = 1;
nodes = (
"963 0 LINE",
"1103 70 LINE",
"1103 700 LINE",
"963 700 LINE",
"963 140 LINE",
"963 140 LINE",
"210 140 LINE",
"210 140 LINE",
"210 700 LINE",
"70 700 LINE",
"70 70 LINE",
"210 0 LINE"
);
}
);
width = 1172.5;
},
{
anchors = (
{
name = above;
position = "{501, 875}";
},
{
name = lowerRight;
position = "{473, 0}";
}
);
hints = (
{
horizontal = 1;
origin = "{0, 1}";
target = "{0, 11}";
type = Stem;
},
{
horizontal = 1;
origin = "{0, 9}";
target = down;
type = TopGhost;
}
);
layerId = "198E78DA-6138-42C0-8847-C36925CEE918";
paths = (
{
closed = 1;
nodes = (
"473 0 LINE",
"627 70 LINE",
"761 700 LINE",
"621 700 LINE",
"502 140 LINE",
"502 140 LINE",
"187 140 LINE",
"187 140 LINE",
"306 700 LINE",
"166 700 LINE",
"32 70 LINE",
"158 0 LINE"
);
}
);
width = 735;
},
{
anchors = (
{
name = above;
position = "{368, 875}";
},
{
name = lowerRight;
position = "{525, 0}";
}
);
hints = (
{
horizontal = 1;
origin = "{0, 10}";
target = "{0, 11}";
type = Stem;
},
{
horizontal = 1;
origin = "{0, 9}";
target = down;
type = TopGhost;
},
{
origin = "{0, 10}";
target = "{0, 7}";
type = Stem;
},
{
origin = "{0, 4}";
target = "{0, 1}";
type = Stem;
}
);
layerId = "E0F5E986-8A77-409E-9DB3-A90D066F072F";
paths = (
{
closed = 1;
nodes = (
"525 0 LINE",
"665 70 LINE",
"665 700 LINE",
"595 700 LINE",
"595 113 LINE",
"508 70 LINE",
"227 70 LINE",
"140 113 LINE",
"140 700 LINE",
"70 700 LINE",
"70 70 LINE",
"210 0 LINE"
);
}
);
width = 735;
},
{
anchors = (
{
name = above;
position = "{586, 875}";
},
{
name = lowerRight;
position = "{963, 0}";
}
);
hints = (
{
horizontal = 1;
origin = "{0, 10}";
target = "{0, 11}";
type = Stem;
},
{
horizontal = 1;
origin = "{0, 9}";
target = down;
type = TopGhost;
},
{
origin = "{0, 10}";
target = "{0, 7}";
type = Stem;
},
{
origin = "{0, 4}";
target = "{0, 1}";
type = Stem;
}
);
layerId = "671D7F47-0040-4C88-995A-F1154CC787CA";
paths = (
{
closed = 1;
nodes = (
"963 0 LINE",
"1103 70 LINE",
"1103 700 LINE",
"1033 700 LINE",
"1033 113 LINE",
"946 70 LINE",
"227 70 LINE",
"140 113 LINE",
"140 700 LINE",
"70 700 LINE",
"70 70 LINE",
"210 0 LINE"
);
}
);
width = 1172.5;
},
{
anchors = (
{
name = above;
position = "{502, 875}";
},
{
name = lowerRight;
position = "{474, 0}";
}
);
hints = (
{
horizontal = 1;
origin = "{0, 10}";
target = "{0, 11}";
type = Stem;
},
{
horizontal = 1;
origin = "{0, 9}";
target = down;
type = TopGhost;
}
);
layerId = "69FAE2FB-B0EC-4DE1-A39D-F4FC44956106";
paths = (
{
closed = 1;
nodes = (
"474 0 LINE",
"628 70 LINE",
"761 700 LINE",
"689 700 LINE",
"567 119 LINE",
"459 70 LINE",
"177 70 LINE",
"112 106 LINE",
"237 700 LINE",
"166 700 LINE",
"33 70 LINE",
"159 0 LINE"
);
}
);
width = 736;
}
);
leftMetricsKey = O;
rightMetricsKey = O;
unicode = "0055,0075";
},
{
glyphname = V;
lastChange = "2019-06-06 05:08:30 +0000";
layers = (
{
layerId = "E82D559A-267E-4BF3-BBA1-0778DA3FF57C";
paths = (
{
closed = 1;
nodes = (
"409 0 LINE",
"675 700 LINE",
"526 700 LINE",
"306 123 LINE",
"403 123 LINE",
"184 700 LINE",
"35 700 LINE",
"301 0 LINE"
);
}
);
width = 710;
},
{
layerId = "B8F43E33-4D80-4AEE-B4E2-DC92E4FCAAE5";
paths = (
{
closed = 1;
nodes = (
"751 0 LINE",
"1295 700 LINE",
"1114 700 LINE",
"649 113 LINE",
"682 113 LINE",
"217 700 LINE",
"35 700 LINE",
"579 0 LINE"
);
}
);
width = 1330;
},
{
layerId = "198E78DA-6138-42C0-8847-C36925CEE918";
paths = (
{
closed = 1;
nodes = (
"351 0 LINE",
"766 700 LINE",
"605 700 LINE",
"262 123 LINE",
"369 123 LINE",
"273 700 LINE",
"131 700 LINE",
"248 0 LINE"
);
}
);
width = 705;
},
{
layerId = "E0F5E986-8A77-409E-9DB3-A90D066F072F";
paths = (
{
closed = 1;
nodes = (
"389 0 LINE",
"655 700 LINE",
"581 700 LINE",
"322 20 LINE",
"367 20 LINE",
"109 700 LINE",
"35 700 LINE",
"301 0 LINE"
);
}
);
width = 690;
},
{
layerId = "671D7F47-0040-4C88-995A-F1154CC787CA";
paths = (
{
closed = 1;
nodes = (
"656 0 LINE",
"1212 700 LINE",
"1124 700 LINE",
"596 36 LINE",
"652 36 LINE",
"125 700 LINE",
"35 700 LINE",
"591 0 LINE"
);
}
);
width = 1247;
},
{
layerId = "69FAE2FB-B0EC-4DE1-A39D-F4FC44956106";
paths = (
{
closed = 1;
nodes = (
"331 0 LINE",
"746 700 LINE",
"665 700 LINE",
"291 70 LINE",
"307 70 LINE",
"200 700 LINE",
"131 700 LINE",
"248 0 LINE"
);
}
);
width = 685;
}
);
leftKerningGroup = V;
rightKerningGroup = V;
unicode = "0056,0076";
},
{
glyphname = W;
lastChange = "2019-06-07 13:28:06 +0000";
layers = (
{
anchors = (
{
name = above;
position = "{455, 875}";
}
);
layerId = "E82D559A-267E-4BF3-BBA1-0778DA3FF57C";
paths = (
{
closed = 1;
nodes = (
"357 0 LINE",
"466 450 LINE",
"445 450 LINE",
"552 0 LINE",
"691 0 LINE",
"859 700 LINE",
"719 700 LINE",
"610 223 LINE",
"631 223 LINE",
"525 700 LINE",
"384 700 LINE",
"276 223 LINE",
"297 223 LINE",
"191 700 LINE",
"50 700 LINE",
"218 0 LINE"
);
}
);
width = 909;
},
{
anchors = (
{
name = above;
position = "{723, 875}";
}
);
layerId = "B8F43E33-4D80-4AEE-B4E2-DC92E4FCAAE5";
paths = (
{
closed = 1;
nodes = (
"502 0 LINE",
"741 568 LINE",
"703 568 LINE",
"942 0 LINE",
"1084 0 LINE",
"1399 700 LINE",
"1234 700 LINE",
"998 176 LINE",
"1036 176 LINE",
"803 700 LINE",
"644 700 LINE",
"416 176 LINE",
"455 176 LINE",
"211 700 LINE",
"50 700 LINE",
"361 0 LINE"
);
}
);
width = 1449;
},
{
anchors = (
{
name = above;
position = "{585, 875}";
}
);
layerId = "198E78DA-6138-42C0-8847-C36925CEE918";
paths = (
{
closed = 1;
nodes = (
"312 0 LINE",
"516 450 LINE",
"480 450 LINE",
"480 0 LINE",
"646 0 LINE",
"962 700 LINE",
"806 700 LINE",
"596 223 LINE",
"620 223 LINE",
"620 700 LINE",
"471 700 LINE",
"262 223 LINE",
"286 223 LINE",
"286 700 LINE",
"146 700 LINE",
"146 0 LINE"
);
}
);
width = 916;
},
{
anchors = (
{
name = above;
position = "{470, 875}";
}
);
layerId = "E0F5E986-8A77-409E-9DB3-A90D066F072F";
paths = (
{
closed = 1;
nodes = (
"312 0 LINE",
"484 610 LINE",
"460 610 LINE",
"631 0 LINE",
"696 0 LINE",
"893 700 LINE",
"820 700 LINE",
"653 105 LINE",
"677 105 LINE",
"509 700 LINE",
"434 700 LINE",
"269 105 LINE",
"293 105 LINE",
"125 700 LINE",
"50 700 LINE",
"247 0 LINE"
);
}
);
width = 943;
},
{
anchors = (
{
name = above;
position = "{717, 875}";
}
);
layerId = "671D7F47-0040-4C88-995A-F1154CC787CA";
paths = (
{
closed = 1;
nodes = (
"437 0 LINE",
"736 674 LINE",
"700 674 LINE",
"1001 0 LINE",
"1069 0 LINE",
"1393 700 LINE",
"1315 700 LINE",
"1025 70 LINE",
"1046 70 LINE",
"765 700 LINE",
"671 700 LINE",
"391 70 LINE",
"413 70 LINE",
"128 700 LINE",
"50 700 LINE",
"369 0 LINE"
);
}
);
width = 1443;
},
{
anchors = (
{
name = above;
position = "{595, 875}";
}
);
layerId = "69FAE2FB-B0EC-4DE1-A39D-F4FC44956106";
paths = (
{
closed = 1;
nodes = (
"257 0 LINE",
"554 594 LINE",
"532 599 LINE",
"559 0 LINE",
"651 0 LINE",
"996 700 LINE",
"918 700 LINE",
"607 70 LINE",
"622 70 LINE",
"592 700 LINE",
"533 700 LINE",
"221 70 LINE",
"242 70 LINE",
"216 700 LINE",
"146 700 LINE",
"175 0 LINE"
);
}
);
width = 950;
}
);
leftKerningGroup = W;
rightKerningGroup = W;
unicode = "0057,0077";
},
{
glyphname = X;
lastChange = "2019-06-02 16:57:09 +0000";
layers = (
{
layerId = "E82D559A-267E-4BF3-BBA1-0778DA3FF57C";
paths = (
{
closed = 1;
nodes = (
"523 700 LINE",
"690 700 LINE",
"237 0 LINE",
"70 0 LINE"
);
},
{
closed = 1;
nodes = (
"70 700 LINE",
"237 700 LINE",
"690 0 LINE",
"523 0 LINE"
);
}
);
width = 760;
},
{
layerId = "B8F43E33-4D80-4AEE-B4E2-DC92E4FCAAE5";
paths = (
{
closed = 1;
nodes = (
"70 700 LINE",
"285 700 LINE",
"1125 0 LINE",
"908 0 LINE"
);
},
{
closed = 1;
nodes = (
"911 700 LINE",
"1125 700 LINE",
"287 0 LINE",
"70 0 LINE"
);
}
);
width = 1195;
},
{
layerId = "198E78DA-6138-42C0-8847-C36925CEE918";
paths = (
{
closed = 1;
nodes = (
"621 700 LINE",
"786 700 LINE",
"184 0 LINE",
"19 0 LINE"
);
},
{
closed = 1;
nodes = (
"166 700 LINE",
"320 700 LINE",
"639 0 LINE",
"485 0 LINE"
);
}
);
width = 762;
},
{
layerId = "E0F5E986-8A77-409E-9DB3-A90D066F072F";
paths = (
{
closed = 1;
nodes = (
"70 700 LINE",
"158 700 LINE",
"670 0 LINE",
"584 0 LINE"
);
},
{
closed = 1;
nodes = (
"582 700 LINE",
"670 700 LINE",
"156 0 LINE",
"70 0 LINE"
);
}
);
width = 740;
},
{
layerId = "671D7F47-0040-4C88-995A-F1154CC787CA";
paths = (
{
closed = 1;
nodes = (
"70 700 LINE",
"206 700 LINE",
"1105 0 LINE",
"969 0 LINE"
);
},
{
closed = 1;
nodes = (
"970 700 LINE",
"1105 700 LINE",
"206 0 LINE",
"70 0 LINE"
);
}
);
width = 1175;
},
{
layerId = "69FAE2FB-B0EC-4DE1-A39D-F4FC44956106";
paths = (
{
closed = 1;
nodes = (
"104 0 LINE",
"752 700 LINE",
"657 700 LINE",
"17 -1 LINE"
);
},
{
closed = 1;
nodes = (
"616 0 LINE",
"253 700 LINE",
"167 700 LINE",
"532 0 LINE"
);
}
);
width = 739;
}
);
leftMetricsKey = H;
rightMetricsKey = H;
unicode = "0058,0078";
},
{
glyphname = Y;
lastChange = "2019-06-07 13:30:39 +0000";
layers = (
{
anchors = (
{
name = above;
position = "{380, 875}";
},
{
name = lowerRight;
position = "{440, 0}";
}
);
hints = (
{
origin = "{0, 9}";
target = "{0, 0}";
type = Stem;
}
);
layerId = "E82D559A-267E-4BF3-BBA1-0778DA3FF57C";
paths = (
{
closed = 1;
nodes = (
"450 0 LINE",
"450 331 LINE",
"690 700 LINE",
"523 700 LINE",
"356 441 LINE",
"404 441 LINE",
"237 700 LINE",
"70 700 LINE",
"310 331 LINE",
"310 0 LINE"
);
}
);
width = 760;
},
{
anchors = (
{
name = above;
position = "{555, 875}";
},
{
name = lowerRight;
position = "{615, 0}";
}
);
layerId = "B8F43E33-4D80-4AEE-B4E2-DC92E4FCAAE5";
paths = (
{
closed = 1;
nodes = (
"625 0 LINE",
"625 240 LINE",
"1040 700 LINE",
"853 700 LINE",
"525 325 LINE",
"585 325 LINE",
"257 700 LINE",
"70 700 LINE",
"485 240 LINE",
"485 0 LINE"
);
}
);
width = 1110;
},
{
anchors = (
{
name = above;
position = "{512, 875}";
},
{
name = lowerRight;
position = "{386, 0}";
}
);
layerId = "198E78DA-6138-42C0-8847-C36925CEE918";
paths = (
{
closed = 1;
nodes = (
"396 0 LINE",
"467 331 LINE",
"786 700 LINE",
"617 700 LINE",
"395 441 LINE",
"443 441 LINE",
"331 700 LINE",
"166 700 LINE",
"327 331 LINE",
"256 0 LINE"
);
}
);
width = 760;
},
{
anchors = (
{
name = above;
position = "{357, 875}";
},
{
name = lowerRight;
position = "{382, 0}";
}
);
layerId = "E0F5E986-8A77-409E-9DB3-A90D066F072F";
paths = (
{
closed = 1;
nodes = (
"392 0 LINE",
"392 262 LINE",
"645 700 LINE",
"565 700 LINE",
"336 302 LINE",
"381 302 LINE",
"150 700 LINE",
"70 700 LINE",
"322 263 LINE",
"322 0 LINE"
);
}
);
width = 715;
},
{
anchors = (
{
name = above;
position = "{532, 875}";
},
{
name = lowerRight;
position = "{557, 0}";
}
);
hints = (
{
origin = "{0, 0}";
target = "{0, 0}";
type = Stem;
}
);
layerId = "671D7F47-0040-4C88-995A-F1154CC787CA";
paths = (
{
closed = 1;
nodes = (
"567 0 LINE",
"567 177 LINE",
"995 700 LINE",
"905 700 LINE",
"503 210 LINE",
"560 210 LINE",
"160 700 LINE",
"70 700 LINE",
"497 178 LINE",
"497 0 LINE"
);
}
);
width = 1065;
},
{
anchors = (
{
name = above;
position = "{489, 875}";
},
{
name = lowerRight;
position = "{328, 0}";
}
);
hints = (
{
origin = "{0, 8}";
target = "{0, 6}";
type = Stem;
}
);
layerId = "69FAE2FB-B0EC-4DE1-A39D-F4FC44956106";
paths = (
{
closed = 1;
nodes = (
"347 0 LINE",
"404 272 LINE",
"728 700 LINE",
"651 700 LINE",
"354 307 LINE",
"398 301 LINE",
"239 700 LINE",
"166 700 LINE",
"335 274 LINE",
"277 0 LINE"
);
}
);
width = 702;
}
);
leftKerningGroup = Y;
leftMetricsKey = H;
rightKerningGroup = Y;
rightMetricsKey = H;
unicode = "0059,0079";
},
{
glyphname = Z;
lastChange = "2019-06-02 17:08:49 +0000";
layers = (
{
anchors = (
{
name = above;
position = "{365, 875}";
},
{
name = lowerRight;
position = "{515, 0}";
}
);
hints = (
{
horizontal = 1;
origin = "{0, 11}";
target = "{0, 2}";
type = Stem;
},
{
horizontal = 1;
origin = "{0, 7}";
target = "{0, 6}";
type = Stem;
}
);
layerId = "E82D559A-267E-4BF3-BBA1-0778DA3FF57C";
paths = (
{
closed = 1;
nodes = (
"655 0 LINE",
"655 140 LINE",
"234 140 LINE",
"247 108 LINE",
"662 579 LINE",
"595 700 LINE",
"105 700 LINE",
"105 560 LINE",
"506 560 LINE",
"493 592 LINE",
"70 113 LINE",
"145 0 LINE"
);
}
);
width = 732;
},
{
anchors = (
{
name = above;
position = "{550, 875}";
},
{
name = lowerRight;
position = "{715, 0}";
}
);
layerId = "B8F43E33-4D80-4AEE-B4E2-DC92E4FCAAE5";
paths = (
{
closed = 1;
nodes = (
"980 0 LINE",
"980 140 LINE",
"249 140 LINE",
"257 115.5 LINE",
"1019.5 531.5 LINE",
"992.5 700 LINE",
"105 700 LINE",
"105 560 LINE",
"831 560 LINE",
"823 584.5 LINE",
"70 180.5 LINE",
"87.5 0 LINE"
);
}
);
width = 1089.5;
},
{
anchors = (
{
name = above;
position = "{498, 875}";
},
{
name = lowerRight;
position = "{462, 0}";
}
);
layerId = "198E78DA-6138-42C0-8847-C36925CEE918";
paths = (
{
closed = 1;
nodes = (
"602 0 LINE",
"632 140 LINE",
"212 140 LINE",
"219 108 LINE",
"732 579 LINE",
"690 700 LINE",
"201 700 LINE",
"171 560 LINE",
"571 560 LINE",
"564 592 LINE",
"41 113 LINE",
"93 0 LINE"
);
}
);
width = 732;
},
{
anchors = (
{
name = above;
position = "{365, 875}";
},
{
name = lowerRight;
position = "{499, 0}";
}
);
layerId = "E0F5E986-8A77-409E-9DB3-A90D066F072F";
paths = (
{
closed = 1;
nodes = (
"619 0 LINE",
"619 70 LINE",
"116 70 LINE",
"132 36 LINE",
"631 630 LINE",
"599 700 LINE",
"103 700 LINE",
"103 630 LINE",
"585 630 LINE",
"569 664 LINE",
"70 70 LINE",
"103 0 LINE"
);
}
);
width = 701;
},
{
anchors = (
{
name = above;
position = "{546, 875}";
},
{
name = lowerRight;
position = "{695, 0}";
}
);
hints = (
{
horizontal = 1;
origin = "{0, 11}";
target = "{0, 10}";
type = Stem;
},
{
horizontal = 1;
origin = "{0, 7}";
target = "{0, 6}";
type = Stem;
}
);
layerId = "671D7F47-0040-4C88-995A-F1154CC787CA";
paths = (
{
closed = 1;
nodes = (
"940 0 LINE",
"940 70 LINE",
"145 70 LINE",
"154 44 LINE",
"964 630 LINE",
"943 700 LINE",
"99 700 LINE",
"99 630 LINE",
"891 630 LINE",
"882 656 LINE",
"70 70 LINE",
"93 0 LINE"
);
}
);
width = 1034;
},
{
anchors = (
{
name = above;
position = "{489, 875}";
},
{
name = lowerRight;
position = "{437, 0}";
}
);
hints = (
{
horizontal = 1;
origin = "{0, 11}";
target = "{0, 2}";
type = Stem;
},
{
horizontal = 1;
origin = "{0, 7}";
target = "{0, 6}";
type = Stem;
}
);
layerId = "69FAE2FB-B0EC-4DE1-A39D-F4FC44956106";
paths = (
{
closed = 1;
nodes = (
"557 0 LINE",
"587 70 LINE",
"85 70 LINE",
"95 36 LINE",
"692 630 LINE",
"685 700 LINE",
"190 700 LINE",
"160 630 LINE",
"641 630 LINE",
"631 664 LINE",
"32 70 LINE",
"42 0 LINE"
);
}
);
width = 695;
}
);
unicode = "005A,007A";
},
{
glyphname = A.ss01;
lastChange = "2019-06-06 05:04:15 +0000";
layers = (
{
anchors = (
{
name = above;
position = "{366, 875}";
},
{
name = lowerRight;
position = "{665, 0}";
}
);
hints = (
{
horizontal = 1;
origin = "{0, 11}";
target = up;
type = BottomGhost;
},
{
horizontal = 1;
origin = "{1, 3}";
target = "{1, 2}";
type = Stem;
},
{
horizontal = 1;
origin = "{0, 9}";
target = "{0, 10}";
type = Stem;
},
{
origin = "{0, 11}";
target = "{0, 0}";
type = Stem;
},
{
origin = "{0, 5}";
target = "{0, 6}";
type = Stem;
}
);
layerId = "E0F5E986-8A77-409E-9DB3-A90D066F072F";
paths = (
{
closed = 1;
nodes = (
"140 0 LINE",
"140 587 LINE",
"227 630 LINE",
"508 630 LINE",
"595 587 LINE",
"595 0 LINE",
"665 0 LINE",
"665 630 LINE",
"525 700 LINE",
"210 700 LINE",
"70 630 LINE",
"70 0 LINE"
);
},
{
closed = 1;
nodes = (
"630 265 LINE",
"630 335 LINE",
"105 335 LINE",
"105 265 LINE"
);
}
);
width = 735;
},
{
anchors = (
{
name = above;
position = "{366, 875}";
},
{
name = lowerRight;
position = "{665, 0}";
}
);
hints = (
{
horizontal = 1;
origin = "{0, 11}";
target = up;
type = BottomGhost;
},
{
horizontal = 1;
origin = "{1, 3}";
target = "{1, 2}";
type = Stem;
},
{
horizontal = 1;
origin = "{0, 9}";
target = "{0, 2}";
type = Stem;
},
{
origin = "{0, 11}";
target = "{0, 0}";
type = Stem;
},
{
origin = "{0, 5}";
target = "{0, 6}";
type = Stem;
}
);
layerId = "E82D559A-267E-4BF3-BBA1-0778DA3FF57C";
paths = (
{
closed = 1;
nodes = (
"210 0 LINE",
"210 543 LINE",
"243 560 LINE",
"492 560 LINE",
"525 543 LINE",
"525 0 LINE",
"665 0 LINE",
"665 630 LINE",
"525 700 LINE",
"210 700 LINE",
"70 630 LINE",
"70 0 LINE"
);
},
{
closed = 1;
nodes = (
"630 230 LINE",
"630 370 LINE",
"105 370 LINE",
"105 230 LINE"
);
}
);
width = 735;
},
{
anchors = (
{
name = above;
position = "{499, 875}";
},
{
name = lowerRight;
position = "{612, 0}";
}
);
hints = (
{
horizontal = 1;
origin = "{0, 11}";
target = up;
type = BottomGhost;
},
{
horizontal = 1;
origin = "{1, 3}";
target = "{1, 2}";
type = Stem;
},
{
horizontal = 1;
origin = "{0, 9}";
target = "{0, 10}";
type = Stem;
}
);
layerId = "69FAE2FB-B0EC-4DE1-A39D-F4FC44956106";
paths = (
{
closed = 1;
nodes = (
"87 0 LINE",
"211 587 LINE",
"308 630 LINE",
"589 630 LINE",
"666 587 LINE",
"542 0 LINE",
"612 0 LINE",
"746 630 LINE",
"620 700 LINE",
"305 700 LINE",
"151 630 LINE",
"17 0 LINE"
);
},
{
closed = 1;
nodes = (
"633 265 LINE",
"648 335 LINE",
"123 335 LINE",
"108 265 LINE"
);
}
);
width = 735;
},
{
anchors = (
{
name = above;
position = "{499, 875}";
},
{
name = lowerRight;
position = "{612, 0}";
}
);
hints = (
{
horizontal = 1;
origin = "{0, 11}";
target = up;
type = BottomGhost;
},
{
horizontal = 1;
origin = "{1, 3}";
target = "{1, 2}";
type = Stem;
},
{
horizontal = 1;
origin = "{0, 9}";
target = "{0, 2}";
type = Stem;
}
);
layerId = "198E78DA-6138-42C0-8847-C36925CEE918";
paths = (
{
closed = 1;
nodes = (
"157 0 LINE",
"272 543 LINE",
"309 560 LINE",
"558 560 LINE",
"587 543 LINE",
"472 0 LINE",
"612 0 LINE",
"746 630 LINE",
"620 700 LINE",
"305 700 LINE",
"151 630 LINE",
"17 0 LINE"
);
},
{
closed = 1;
nodes = (
"625 230 LINE",
"655 370 LINE",
"130 370 LINE",
"100 230 LINE"
);
}
);
width = 735;
},
{
anchors = (
{
name = above;
position = "{587, 875}";
},
{
name = lowerRight;
position = "{1103, 0}";
}
);
hints = (
{
horizontal = 1;
origin = "{0, 11}";
target = up;
type = BottomGhost;
},
{
horizontal = 1;
origin = "{1, 3}";
target = "{1, 2}";
type = Stem;
},
{
horizontal = 1;
origin = "{0, 9}";
target = "{0, 10}";
type = Stem;
},
{
origin = "{0, 11}";
target = "{0, 0}";
type = Stem;
},
{
origin = "{0, 5}";
target = "{0, 6}";
type = Stem;
}
);
layerId = "671D7F47-0040-4C88-995A-F1154CC787CA";
paths = (
{
closed = 1;
nodes = (
"140 0 LINE",
"140 587 LINE",
"227 630 LINE",
"946 630 LINE",
"1033 587 LINE",
"1033 0 LINE",
"1103 0 LINE",
"1103 630 LINE",
"963 700 LINE",
"210 700 LINE",
"70 630 LINE",
"70 0 LINE"
);
},
{
closed = 1;
nodes = (
"1068 265 LINE",
"1068 335 LINE",
"105 335 LINE",
"105 265 LINE"
);
}
);
width = 1173;
},
{
anchors = (
{
name = above;
position = "{586, 875}";
},
{
name = lowerRight;
position = "{1103, 0}";
}
);
hints = (
{
horizontal = 1;
origin = "{0, 11}";
target = up;
type = BottomGhost;
},
{
horizontal = 1;
origin = "{1, 3}";
target = "{1, 2}";
type = Stem;
},
{
horizontal = 1;
origin = "{0, 9}";
target = "{0, 2}";
type = Stem;
},
{
origin = "{0, 11}";
target = "{0, 0}";
type = Stem;
},
{
origin = "{0, 5}";
target = "{0, 6}";
type = Stem;
}
);
layerId = "B8F43E33-4D80-4AEE-B4E2-DC92E4FCAAE5";
paths = (
{
closed = 1;
nodes = (
"210 0 LINE",
"210 543 LINE",
"243 560 LINE",
"930 560 LINE",
"963 543 LINE",
"963 0 LINE",
"1103 0 LINE",
"1103 630 LINE",
"963 700 LINE",
"210 700 LINE",
"70 630 LINE",
"70 0 LINE"
);
},
{
closed = 1;
nodes = (
"1068 230 LINE",
"1068 370 LINE",
"105 370 LINE",
"105 230 LINE"
);
}
);
width = 1173;
}
);
},
{
glyphname = I.ss01;
lastChange = "2019-06-02 22:00:33 +0000";
layers = (
{
anchors = (
{
name = above;
position = "{175, 875}";
},
{
name = lowerRight;
position = "{280, 0}";
}
);
hints = (
{
origin = "{0, 3}";
target = "{0, 0}";
type = Stem;
}
);
layerId = "E82D559A-267E-4BF3-BBA1-0778DA3FF57C";
paths = (
{
closed = 1;
nodes = (
"245 0 LINE",
"245 700 LINE",
"105 700 LINE",
"105 0 LINE"
);
},
{
closed = 1;
nodes = (
"280 0 LINE",
"280 70 LINE",
"70 70 LINE",
"70 0 LINE"
);
},
{
closed = 1;
nodes = (
"280 630 LINE",
"280 700 LINE",
"70 700 LINE",
"70 630 LINE"
);
}
);
width = 350;
},
{
anchors = (
{
name = above;
position = "{210, 875}";
},
{
name = lowerRight;
position = "{350, 0}";
}
);
layerId = "B8F43E33-4D80-4AEE-B4E2-DC92E4FCAAE5";
paths = (
{
closed = 1;
nodes = (
"280 0 LINE",
"280 700 LINE",
"140 700 LINE",
"140 0 LINE"
);
},
{
closed = 1;
nodes = (
"350 0 LINE",
"350 70 LINE",
"70 70 LINE",
"70 0 LINE"
);
},
{
closed = 1;
nodes = (
"350 630 LINE",
"350 700 LINE",
"70 700 LINE",
"70 630 LINE"
);
}
);
width = 420;
},
{
anchors = (
{
name = above;
position = "{308, 875}";
},
{
name = lowerRight;
position = "{227, 0}";
}
);
layerId = "198E78DA-6138-42C0-8847-C36925CEE918";
paths = (
{
closed = 1;
nodes = (
"192 0 LINE",
"341 700 LINE",
"201 700 LINE",
"52 0 LINE"
);
},
{
closed = 1;
nodes = (
"227 0 LINE",
"242 70 LINE",
"32 70 LINE",
"17 0 LINE"
);
},
{
closed = 1;
nodes = (
"361 630 LINE",
"376 700 LINE",
"166 700 LINE",
"151 630 LINE"
);
}
);
width = 350;
},
{
anchors = (
{
name = above;
position = "{175, 875}";
},
{
name = lowerRight;
position = "{279, 0}";
}
);
layerId = "E0F5E986-8A77-409E-9DB3-A90D066F072F";
paths = (
{
closed = 1;
nodes = (
"210 0 LINE",
"210 700 LINE",
"140 700 LINE",
"140 0 LINE"
);
},
{
closed = 1;
nodes = (
"280 0 LINE",
"280 70 LINE",
"70 70 LINE",
"70 0 LINE"
);
},
{
closed = 1;
nodes = (
"280 630 LINE",
"280 700 LINE",
"70 700 LINE",
"70 630 LINE"
);
}
);
width = 350;
},
{
anchors = (
{
name = above;
position = "{175, 875}";
},
{
name = lowerRight;
position = "{280, 0}";
}
);
hints = (
{
origin = "{0, 3}";
target = "{0, 0}";
type = Stem;
}
);
layerId = "671D7F47-0040-4C88-995A-F1154CC787CA";
paths = (
{
closed = 1;
nodes = (
"210 0 LINE",
"210 700 LINE",
"140 700 LINE",
"140 0 LINE"
);
},
{
closed = 1;
nodes = (
"280 0 LINE",
"280 70 LINE",
"70 70 LINE",
"70 0 LINE"
);
},
{
closed = 1;
nodes = (
"280 630 LINE",
"280 700 LINE",
"70 700 LINE",
"70 630 LINE"
);
}
);
width = 350;
},
{
anchors = (
{
name = above;
position = "{308, 875}";
},
{
name = lowerRight;
position = "{227, 0}";
}
);
hints = (
{
origin = "{0, 3}";
target = "{0, 0}";
type = Stem;
}
);
layerId = "69FAE2FB-B0EC-4DE1-A39D-F4FC44956106";
paths = (
{
closed = 1;
nodes = (
"157 0 LINE",
"306 700 LINE",
"236 700 LINE",
"87 0 LINE"
);
},
{
closed = 1;
nodes = (
"227 0 LINE",
"242 70 LINE",
"32 70 LINE",
"17 0 LINE"
);
},
{
closed = 1;
nodes = (
"361 630 LINE",
"376 700 LINE",
"166 700 LINE",
"151 630 LINE"
);
}
);
width = 350;
}
);
leftMetricsKey = H;
rightMetricsKey = H;
},
{
glyphname = napostrophe;
lastChange = "2019-06-02 13:50:11 +0000";
layers = (
{
components = (
{
name = N;
transform = "{1, 0, 0, 1, 147, 0}";
}
);
layerId = "E82D559A-267E-4BF3-BBA1-0778DA3FF57C";
paths = (
{
closed = 1;
nodes = (
"147 560 LINE",
"147 700 LINE",
"35 700 LINE",
"35 588 LINE",
"91 588 LINE",
"35 546 LINE",
"69 502 LINE"
);
}
);
width = 907;
},
{
components = (
{
name = N;
transform = "{1, 0, 0, 1, 147, 0}";
}
);
layerId = "B8F43E33-4D80-4AEE-B4E2-DC92E4FCAAE5";
paths = (
{
closed = 1;
nodes = (
"147 560 LINE",
"147 700 LINE",
"35 700 LINE",
"35 588 LINE",
"91 588 LINE",
"35 546 LINE",
"69 502 LINE"
);
}
);
width = 1247;
},
{
components = (
{
name = N;
transform = "{1, 0, 0, 1, 146, 0}";
}
);
layerId = "198E78DA-6138-42C0-8847-C36925CEE918";
paths = (
{
closed = 1;
nodes = (
"214 560 LINE",
"243 700 LINE",
"131 700 LINE",
"107 588 LINE",
"162 588 LINE",
"99 546 LINE",
"125 502 LINE"
);
}
);
width = 906;
},
{
components = (
{
alignment = -1;
name = N;
transform = "{1, 0, 0, 1, 131, 0}";
}
);
layerId = "E0F5E986-8A77-409E-9DB3-A90D066F072F";
paths = (
{
closed = 1;
nodes = (
"131 574 LINE",
"131 700 LINE",
"35 700 LINE",
"35 604 LINE",
"88 604 LINE",
"37 566 LINE",
"67 526 LINE"
);
}
);
width = 891;
},
{
components = (
{
alignment = -1;
name = N;
transform = "{1, 0, 0, 1, 131, 0}";
}
);
layerId = "671D7F47-0040-4C88-995A-F1154CC787CA";
paths = (
{
closed = 1;
nodes = (
"131 574 LINE",
"131 700 LINE",
"35 700 LINE",
"35 604 LINE",
"88 604 LINE",
"37 566 LINE",
"67 526 LINE"
);
}
);
width = 1207.66667;
},
{
components = (
{
alignment = -1;
name = N;
transform = "{1, 0, 0, 1, 133, 0}";
}
);
layerId = "69FAE2FB-B0EC-4DE1-A39D-F4FC44956106";
paths = (
{
closed = 1;
nodes = (
"201 574 LINE",
"230 700 LINE",
"134 700 LINE",
"110 604 LINE",
"162 604 LINE",
"104 566 LINE",
"126 526 LINE"
);
}
);
width = 907;
}
);
rightMetricsKey = N;
unicode = 0149;
},
{
glyphname = ordmasculine;
lastChange = "2019-06-02 00:52:56 +0000";
layers = (
{
layerId = "E82D559A-267E-4BF3-BBA1-0778DA3FF57C";
paths = (
{
closed = 1;
nodes = (
"295 370 LINE",
"375 410 LINE",
"375 660 LINE",
"295 700 LINE",
"150 700 LINE",
"70 660 LINE",
"70 410 LINE",
"150 370 LINE"
);
},
{
closed = 1;
nodes = (
"375 230 LINE",
"375 300 LINE",
"70 300 LINE",
"70 230 LINE"
);
},
{
closed = 1;
nodes = (
"150 632 LINE",
"130 620 LINE",
"315 620 LINE",
"295 632 LINE",
"295 438 LINE",
"315 450 LINE",
"130 450 LINE",
"150 438 LINE"
);
}
);
width = 445;
},
{
layerId = "B8F43E33-4D80-4AEE-B4E2-DC92E4FCAAE5";
paths = (
{
closed = 1;
nodes = (
"295 370 LINE",
"375 410 LINE",
"375 660 LINE",
"295 700 LINE",
"150 700 LINE",
"70 660 LINE",
"70 410 LINE",
"150 370 LINE"
);
},
{
closed = 1;
nodes = (
"375 230 LINE",
"375 300 LINE",
"70 300 LINE",
"70 230 LINE"
);
},
{
closed = 1;
nodes = (
"150 632 LINE",
"130 620 LINE",
"315 620 LINE",
"295 632 LINE",
"295 438 LINE",
"315 450 LINE",
"130 450 LINE",
"150 438 LINE"
);
}
);
width = 445;
},
{
layerId = "198E78DA-6138-42C0-8847-C36925CEE918";
paths = (
{
closed = 1;
nodes = (
"321 370 LINE",
"409 410 LINE",
"462 660 LINE",
"391 700 LINE",
"246 700 LINE",
"157 660 LINE",
"104 410 LINE",
"176 370 LINE"
);
},
{
closed = 1;
nodes = (
"371 230 LINE",
"386 300 LINE",
"81 300 LINE",
"66 230 LINE"
);
},
{
closed = 1;
nodes = (
"231 632 LINE",
"209 620 LINE",
"394 620 LINE",
"376 632 LINE",
"335 438 LINE",
"358 450 LINE",
"173 450 LINE",
"190 438 LINE"
);
}
);
width = 445;
},
{
layerId = "E0F5E986-8A77-409E-9DB3-A90D066F072F";
paths = (
{
closed = 1;
nodes = (
"295 370 LINE",
"375 410 LINE",
"375 660 LINE",
"295 700 LINE",
"150 700 LINE",
"70 660 LINE",
"70 410 LINE",
"150 370 LINE"
);
},
{
closed = 1;
nodes = (
"375 230 LINE",
"375 300 LINE",
"70 300 LINE",
"70 230 LINE"
);
},
{
closed = 1;
nodes = (
"140 642 LINE",
"120 630 LINE",
"325 630 LINE",
"305 642 LINE",
"305 428 LINE",
"325 440 LINE",
"120 440 LINE",
"140 428 LINE"
);
}
);
width = 445;
},
{
layerId = "671D7F47-0040-4C88-995A-F1154CC787CA";
paths = (
{
closed = 1;
nodes = (
"295 370 LINE",
"375 410 LINE",
"375 660 LINE",
"295 700 LINE",
"150 700 LINE",
"70 660 LINE",
"70 410 LINE",
"150 370 LINE"
);
},
{
closed = 1;
nodes = (
"375 230 LINE",
"375 300 LINE",
"70 300 LINE",
"70 230 LINE"
);
},
{
closed = 1;
nodes = (
"140 642 LINE",
"120 630 LINE",
"325 630 LINE",
"305 642 LINE",
"305 428 LINE",
"325 440 LINE",
"120 440 LINE",
"140 428 LINE"
);
}
);
width = 445;
},
{
layerId = "69FAE2FB-B0EC-4DE1-A39D-F4FC44956106";
paths = (
{
closed = 1;
nodes = (
"321 370 LINE",
"409 410 LINE",
"462 660 LINE",
"391 700 LINE",
"246 700 LINE",
"157 660 LINE",
"104 410 LINE",
"176 370 LINE"
);
},
{
closed = 1;
nodes = (
"371 230 LINE",
"386 300 LINE",
"81 300 LINE",
"66 230 LINE"
);
},
{
closed = 1;
nodes = (
"221 642 LINE",
"199 630 LINE",
"404 630 LINE",
"386 642 LINE",
"345 428 LINE",
"368 440 LINE",
"163 440 LINE",
"180 428 LINE"
);
}
);
width = 445;
}
);
unicode = 00BA;
},
{
glyphname = zero;
lastChange = "2019-06-02 22:25:22 +0000";
layers = (
{
hints = (
{
horizontal = 1;
place = "{0, 140}";
type = Stem;
},
{
horizontal = 1;
place = "{560, 140}";
type = Stem;
},
{
place = "{70, 140}";
type = Stem;
},
{
place = "{525, 140}";
type = Stem;
},
{
horizontal = 1;
origin = "{0, 7}";
target = "{1, 0}";
type = Stem;
},
{
horizontal = 1;
origin = "{1, 2}";
target = "{0, 4}";
type = Stem;
},
{
origin = "{0, 6}";
target = "{0, 7}";
type = Stem;
},
{
origin = "{0, 0}";
target = "{0, 1}";
type = Stem;
}
);
layerId = "E82D559A-267E-4BF3-BBA1-0778DA3FF57C";
paths = (
{
closed = 1;
nodes = (
"525 0 LINE",
"665 70 LINE",
"665 630 LINE",
"525 700 LINE",
"210 700 LINE",
"70 630 LINE",
"70 70 LINE",
"210 0 LINE"
);
},
{
closed = 1;
nodes = (
"210 140 LINE",
"210 560 LINE",
"210 560 LINE",
"525 560 LINE",
"525 560 LINE",
"525 140 LINE",
"525 140 LINE",
"210 140 LINE"
);
}
);
width = 735;
},
{
hints = (
{
horizontal = 1;
origin = "{0, 7}";
target = "{1, 0}";
type = Stem;
},
{
horizontal = 1;
origin = "{1, 2}";
target = "{0, 4}";
type = Stem;
},
{
origin = "{0, 6}";
target = "{0, 7}";
type = Stem;
},
{
origin = "{0, 0}";
target = "{0, 1}";
type = Stem;
}
);
layerId = "B8F43E33-4D80-4AEE-B4E2-DC92E4FCAAE5";
paths = (
{
closed = 1;
nodes = (
"963 0 LINE",
"1103 70 LINE",
"1103 630 LINE",
"963 700 LINE",
"210 700 LINE",
"70 630 LINE",
"70 70 LINE",
"210 0 LINE"
);
},
{
closed = 1;
nodes = (
"210 140 LINE",
"210 560 LINE",
"210 560 LINE",
"963 560 LINE",
"963 560 LINE",
"963 140 LINE",
"963 140 LINE",
"210 140 LINE"
);
}
);
width = 1173;
},
{
hints = (
{
horizontal = 1;
origin = "{0, 7}";
target = "{1, 0}";
type = Stem;
},
{
horizontal = 1;
origin = "{1, 3}";
target = "{0, 4}";
type = Stem;
}
);
layerId = "198E78DA-6138-42C0-8847-C36925CEE918";
paths = (
{
closed = 1;
nodes = (
"474 0 LINE",
"628 70 LINE",
"746 630 LINE",
"621 700 LINE",
"306 700 LINE",
"151 630 LINE",
"33 70 LINE",
"159 0 LINE"
);
},
{
closed = 1;
nodes = (
"188 140 LINE",
"277 560 LINE",
"277 560 LINE",
"592 560 LINE",
"592 560 LINE",
"503 140 LINE",
"503 140 LINE",
"188 140 LINE"
);
}
);
width = 736;
},
{
hints = (
{
horizontal = 1;
place = "{630, 70}";
type = Stem;
},
{
horizontal = 1;
place = "{0, 70}";
type = Stem;
},
{
place = "{70, 70}";
type = Stem;
},
{
place = "{595, 70}";
type = Stem;
},
{
horizontal = 1;
origin = "{1, 2}";
target = "{0, 4}";
type = Stem;
},
{
horizontal = 1;
origin = "{0, 7}";
target = "{1, 7}";
type = Stem;
},
{
origin = "{0, 6}";
target = "{1, 0}";
type = Stem;
},
{
origin = "{1, 5}";
target = "{0, 1}";
type = Stem;
}
);
layerId = "E0F5E986-8A77-409E-9DB3-A90D066F072F";
paths = (
{
closed = 1;
nodes = (
"525 0 LINE",
"665 70 LINE",
"665 630 LINE",
"525 700 LINE",
"210 700 LINE",
"70 630 LINE",
"70 70 LINE",
"210 0 LINE"
);
},
{
closed = 1;
nodes = (
"140 113 LINE",
"140 587 LINE",
"227 630 LINE",
"508 630 LINE",
"595 587 LINE",
"595 113 LINE",
"508 70 LINE",
"227 70 LINE"
);
}
);
width = 735;
},
{
hints = (
{
horizontal = 1;
origin = "{0, 7}";
target = "{0, 6}";
type = Stem;
},
{
horizontal = 1;
origin = "{0, 4}";
target = "{0, 5}";
type = Stem;
},
{
origin = "{0, 6}";
target = "{1, 0}";
type = Stem;
},
{
origin = "{1, 5}";
target = "{0, 1}";
type = Stem;
}
);
layerId = "671D7F47-0040-4C88-995A-F1154CC787CA";
paths = (
{
closed = 1;
nodes = (
"963 0 LINE",
"1103 70 LINE",
"1103 630 LINE",
"963 700 LINE",
"210 700 LINE",
"70 630 LINE",
"70 70 LINE",
"210 0 LINE"
);
},
{
closed = 1;
nodes = (
"140 113 LINE",
"140 587 LINE",
"227 630 LINE",
"946 630 LINE",
"1033 587 LINE",
"1033 113 LINE",
"946 70 LINE",
"227 70 LINE"
);
}
);
width = 1173;
},
{
hints = (
{
horizontal = 1;
origin = "{0, 6}";
target = "{0, 7}";
type = Stem;
},
{
horizontal = 1;
origin = "{0, 4}";
target = "{0, 5}";
type = Stem;
}
);
layerId = "69FAE2FB-B0EC-4DE1-A39D-F4FC44956106";
paths = (
{
closed = 1;
nodes = (
"474 0 LINE",
"628 70 LINE",
"746 630 LINE",
"621 700 LINE",
"306 700 LINE",
"151 630 LINE",
"33 70 LINE",
"159 0 LINE"
);
},
{
closed = 1;
nodes = (
"112 106 LINE",
"212 581 LINE",
"321 630 LINE",
"603 630 LINE",
"667 594 LINE",
"567 119 LINE",
"459 70 LINE",
"177 70 LINE"
);
}
);
width = 736;
}
);
unicode = 0030;
},
{
glyphname = one;
lastChange = "2019-06-02 00:52:56 +0000";
layers = (
{
hints = (
{
origin = "{0, 3}";
target = "{0, 0}";
type = Stem;
}
);
layerId = "E82D559A-267E-4BF3-BBA1-0778DA3FF57C";
paths = (
{
closed = 1;
nodes = (
"210 0 LINE",
"210 700 LINE",
"70 700 LINE",
"70 0 LINE"
);
}
);
width = 280;
},
{
layerId = "B8F43E33-4D80-4AEE-B4E2-DC92E4FCAAE5";
paths = (
{
closed = 1;
nodes = (
"210 0 LINE",
"210 700 LINE",
"70 700 LINE",
"70 0 LINE"
);
}
);
width = 280;
},
{
layerId = "198E78DA-6138-42C0-8847-C36925CEE918";
paths = (
{
closed = 1;
nodes = (
"157 0 LINE",
"306 700 LINE",
"166 700 LINE",
"17 0 LINE"
);
}
);
width = 280;
},
{
layerId = "E0F5E986-8A77-409E-9DB3-A90D066F072F";
paths = (
{
closed = 1;
nodes = (
"140 0 LINE",
"140 700 LINE",
"70 700 LINE",
"70 0 LINE"
);
}
);
width = 210;
},
{
hints = (
{
origin = "{0, 3}";
target = "{0, 0}";
type = Stem;
}
);
layerId = "671D7F47-0040-4C88-995A-F1154CC787CA";
paths = (
{
closed = 1;
nodes = (
"140 0 LINE",
"140 700 LINE",
"70 700 LINE",
"70 0 LINE"
);
}
);
width = 210;
},
{
hints = (
{
origin = "{0, 3}";
target = "{0, 0}";
type = Stem;
}
);
layerId = "69FAE2FB-B0EC-4DE1-A39D-F4FC44956106";
paths = (
{
closed = 1;
nodes = (
"87 0 LINE",
"236 700 LINE",
"166 700 LINE",
"17 0 LINE"
);
}
);
width = 210;
}
);
unicode = 0031;
},
{
glyphname = two;
lastChange = "2019-06-02 23:56:27 +0000";
layers = (
{
layerId = "E82D559A-267E-4BF3-BBA1-0778DA3FF57C";
paths = (
{
closed = 1;
nodes = (
"210 0 LINE",
"210 280 LINE",
"210 280 LINE",
"525 280 LINE",
"665 350 LINE",
"665 630 LINE",
"525 700 LINE",
"210 700 LINE",
"70 630 LINE",
"70 490 LINE",
"210 490 LINE",
"210 560 LINE",
"210 560 LINE",
"525 560 LINE",
"525 560 LINE",
"525 420 LINE",
"525 420 LINE",
"210 420 LINE",
"70 350 LINE",
"70 0 LINE"
);
},
{
closed = 1;
nodes = (
"665 0 LINE",
"665 140 LINE",
"140 140 LINE",
"140 0 LINE"
);
}
);
width = 735;
},
{
layerId = "B8F43E33-4D80-4AEE-B4E2-DC92E4FCAAE5";
paths = (
{
closed = 1;
nodes = (
"210 0 LINE",
"210 280 LINE",
"210 280 LINE",
"788 280 LINE",
"928 350 LINE",
"928 630 LINE",
"788 700 LINE",
"210 700 LINE",
"70 630 LINE",
"70 490 LINE",
"210 490 LINE",
"210 560 LINE",
"210 560 LINE",
"788 560 LINE",
"788 560 LINE",
"788 420 LINE",
"788 420 LINE",
"210 420 LINE",
"70 350 LINE",
"70 0 LINE"
);
},
{
closed = 1;
nodes = (
"928 0 LINE",
"928 140 LINE",
"140 140 LINE",
"140 0 LINE"
);
}
);
width = 998;
},
{
layerId = "198E78DA-6138-42C0-8847-C36925CEE918";
paths = (
{
closed = 1;
nodes = (
"157 0 LINE",
"216 280 LINE",
"216 280 LINE",
"531 280 LINE",
"686 350 LINE",
"746 630 LINE",
"620 700 LINE",
"305 700 LINE",
"151 630 LINE",
"121 490 LINE",
"261 490 LINE",
"276 560 LINE",
"276 560 LINE",
"591 560 LINE",
"591 560 LINE",
"561 420 LINE",
"561 420 LINE",
"246 420 LINE",
"91 350 LINE",
"17 0 LINE"
);
},
{
closed = 1;
nodes = (
"612 0 LINE",
"641 140 LINE",
"116 140 LINE",
"87 0 LINE"
);
}
);
width = 735;
},
{
layerId = "E0F5E986-8A77-409E-9DB3-A90D066F072F";
paths = (
{
closed = 1;
nodes = (
"140 0 LINE",
"140 272 LINE",
"227 315 LINE",
"525 315 LINE",
"665 385 LINE",
"665 630 LINE",
"525 700 LINE",
"210 700 LINE",
"70 630 LINE",
"70 490 LINE",
"140 490 LINE",
"140 587 LINE",
"227 630 LINE",
"508 630 LINE",
"595 587 LINE",
"595 428 LINE",
"508 385 LINE",
"210 385 LINE",
"70 315 LINE",
"70 0 LINE"
);
},
{
closed = 1;
nodes = (
"665 0 LINE",
"665 70 LINE",
"105 70 LINE",
"105 0 LINE"
);
}
);
width = 735;
},
{
layerId = "671D7F47-0040-4C88-995A-F1154CC787CA";
paths = (
{
closed = 1;
nodes = (
"140 0 LINE",
"140 272 LINE",
"227 315 LINE",
"788 315 LINE",
"928 385 LINE",
"928 630 LINE",
"788 700 LINE",
"210 700 LINE",
"70 630 LINE",
"70 490 LINE",
"140 490 LINE",
"140 587 LINE",
"227 630 LINE",
"771 630 LINE",
"858 587 LINE",
"858 428 LINE",
"771 385 LINE",
"210 385 LINE",
"70 315 LINE",
"70 0 LINE"
);
},
{
closed = 1;
nodes = (
"928 0 LINE",
"928 70 LINE",
"105 70 LINE",
"105 0 LINE"
);
}
);
width = 998.33333;
},
{
layerId = "69FAE2FB-B0EC-4DE1-A39D-F4FC44956106";
paths = (
{
closed = 1;
nodes = (
"89 0 LINE",
"144 265 LINE",
"254 315 LINE",
"539 315 LINE",
"694 385 LINE",
"746 630 LINE",
"620 700 LINE",
"305 700 LINE",
"151 630 LINE",
"121 490 LINE",
"192 490 LINE",
"212 581 LINE",
"320 630 LINE",
"602 630 LINE",
"665 595 LINE",
"634 435 LINE",
"524 385 LINE",
"239 385 LINE",
"84 315 LINE",
"17 0 LINE"
);
},
{
closed = 1;
nodes = (
"613 0 LINE",
"627 70 LINE",
"67 70 LINE",
"53 0 LINE"
);
}
);
width = 736;
}
);
unicode = 0032;
},
{
glyphname = three;
lastChange = "2019-06-03 00:02:32 +0000";
layers = (
{
hints = (
{
horizontal = 1;
origin = "{0, 29}";
target = "{0, 24}";
type = Stem;
},
{
horizontal = 1;
origin = "{0, 19}";
target = "{0, 18}";
type = Stem;
},
{
horizontal = 1;
origin = "{0, 13}";
target = "{0, 8}";
type = Stem;
},
{
origin = "{0, 28}";
target = "{0, 29}";
type = Stem;
},
{
origin = "{0, 22}";
target = "{0, 1}";
type = Stem;
}
);
layerId = "E82D559A-267E-4BF3-BBA1-0778DA3FF57C";
paths = (
{
closed = 1;
nodes = (
"525 0 LINE",
"665 70 LINE",
"665 280 LINE",
"573 372 LINE",
"573 328 LINE",
"665 420 LINE",
"665 630 LINE",
"525 700 LINE",
"210 700 LINE",
"70 630 LINE",
"70 490 LINE",
"210 490 LINE",
"210 560 LINE",
"210 560 LINE",
"515 560 LINE",
"515 560 LINE",
"515 420 LINE",
"515 420 LINE",
"280 420 LINE",
"280 280 LINE",
"515 280 LINE",
"515 280 LINE",
"515 140 LINE",
"515 140 LINE",
"210 140 LINE",
"210 140 LINE",
"210 210 LINE",
"70 210 LINE",
"70 70 LINE",
"210 0 LINE"
);
}
);
width = 735;
},
{
layerId = "B8F43E33-4D80-4AEE-B4E2-DC92E4FCAAE5";
paths = (
{
closed = 1;
nodes = (
"787.5 0 LINE",
"927.5 70 LINE",
"927.5 280 LINE",
"825.5 382 LINE",
"825.5 318 LINE",
"927.5 420 LINE",
"927.5 630 LINE",
"787.5 700 LINE",
"210 700 LINE",
"70 630 LINE",
"70 490 LINE",
"210 490 LINE",
"210 560 LINE",
"210 560 LINE",
"778 560 LINE",
"778 560 LINE",
"778 420 LINE",
"778 420 LINE",
"455 420 LINE",
"455 280 LINE",
"778 280 LINE",
"778 280 LINE",
"778 140 LINE",
"778 140 LINE",
"210 140 LINE",
"210 140 LINE",
"210 210 LINE",
"70 210 LINE",
"70 70 LINE",
"210 0 LINE"
);
}
);
width = 997.5;
},
{
layerId = "198E78DA-6138-42C0-8847-C36925CEE918";
paths = (
{
closed = 1;
nodes = (
"474 0 LINE",
"628 70 LINE",
"671 280 LINE",
"591 382 LINE",
"580 318 LINE",
"703 420 LINE",
"746 630 LINE",
"621 700 LINE",
"306 700 LINE",
"151 630 LINE",
"122 490 LINE",
"262 490 LINE",
"277 560 LINE",
"277 560 LINE",
"582 560 LINE",
"582 560 LINE",
"553 420 LINE",
"553 420 LINE",
"317 420 LINE",
"288 280 LINE",
"522 280 LINE",
"522 280 LINE",
"493 140 LINE",
"493 140 LINE",
"188 140 LINE",
"188 140 LINE",
"203 210 LINE",
"63 210 LINE",
"33 70 LINE",
"159 0 LINE"
);
}
);
width = 737;
},
{
layerId = "E0F5E986-8A77-409E-9DB3-A90D066F072F";
paths = (
{
closed = 1;
nodes = (
"525 0 LINE",
"665 70 LINE",
"665 280 LINE",
"563 382 LINE",
"563 318 LINE",
"665 420 LINE",
"665 630 LINE",
"525 700 LINE",
"210 700 LINE",
"70 630 LINE",
"70 490 LINE",
"140 490 LINE",
"140 587 LINE",
"227 630 LINE",
"515 630 LINE",
"595 591 LINE",
"595 450 LINE",
"530 385 LINE",
"280 385 LINE",
"280 315 LINE",
"530 315 LINE",
"595 250 LINE",
"595 110 LINE",
"515 70 LINE",
"227 70 LINE",
"140 113 LINE",
"140 210 LINE",
"70 210 LINE",
"70 70 LINE",
"210 0 LINE"
);
}
);
width = 735;
},
{
hints = (
{
horizontal = 1;
origin = "{0, 29}";
target = "{0, 24}";
type = Stem;
},
{
horizontal = 1;
origin = "{0, 19}";
target = "{0, 18}";
type = Stem;
},
{
horizontal = 1;
origin = "{0, 13}";
target = "{0, 8}";
type = Stem;
},
{
origin = "{0, 28}";
target = "{0, 29}";
type = Stem;
},
{
origin = "{0, 22}";
target = "{0, 1}";
type = Stem;
}
);
layerId = "671D7F47-0040-4C88-995A-F1154CC787CA";
paths = (
{
closed = 1;
nodes = (
"787 0 LINE",
"928 70 LINE",
"928 280 LINE",
"826 382 LINE",
"826 318 LINE",
"928 420 LINE",
"928 630 LINE",
"787 700 LINE",
"210 700 LINE",
"70 630 LINE",
"70 490 LINE",
"140 490 LINE",
"140 587 LINE",
"227 630 LINE",
"778 630 LINE",
"858 591 LINE",
"858 450 LINE",
"793 385 LINE",
"455 385 LINE",
"455 315 LINE",
"793 315 LINE",
"858 250 LINE",
"858 110 LINE",
"778 70 LINE",
"227 70 LINE",
"140 113 LINE",
"140 210 LINE",
"70 210 LINE",
"70 70 LINE",
"210 0 LINE"
);
}
);
width = 997.5;
},
{
hints = (
{
horizontal = 1;
origin = "{0, 14}";
target = "{0, 13}";
type = Stem;
},
{
horizontal = 1;
origin = "{0, 19}";
target = "{0, 18}";
type = Stem;
},
{
horizontal = 1;
origin = "{0, 26}";
target = "{0, 25}";
type = Stem;
},
{
origin = "{0, 13}";
target = "{0, 14}";
type = Stem;
},
{
origin = "{0, 22}";
target = "{0, 16}";
type = Stem;
}
);
layerId = "69FAE2FB-B0EC-4DE1-A39D-F4FC44956106";
paths = (
{
closed = 1;
nodes = (
"474 0 LINE",
"628 70 LINE",
"671 280 LINE",
"589 384 LINE",
"582 320 LINE",
"703 420 LINE",
"746 630 LINE",
"621 700 LINE",
"306 700 LINE",
"151 630 LINE",
"122 490 LINE",
"194 490 LINE",
"212 581 LINE",
"321 630 LINE",
"603 630 LINE",
"667 594 LINE",
"639 458 LINE",
"550 385 LINE",
"311 385 LINE",
"297 315 LINE",
"555 315 LINE",
"596 262 LINE",
"567 119 LINE",
"459 70 LINE",
"177 70 LINE",
"112 106 LINE",
"134 210 LINE",
"63 210 LINE",
"33 70 LINE",
"159 0 LINE"
);
}
);
width = 737;
}
);
unicode = 0033;
},
{
glyphname = four;
lastChange = "2019-06-03 01:07:42 +0000";
layers = (
{
hints = (
{
horizontal = 1;
origin = "{0, 4}";
target = "{0, 7}";
type = Stem;
},
{
origin = "{0, 11}";
target = "{0, 0}";
type = Stem;
}
);
layerId = "E82D559A-267E-4BF3-BBA1-0778DA3FF57C";
paths = (
{
closed = 1;
nodes = (
"600 0 LINE",
"600 700 LINE",
"380 700 LINE",
"35 253 LINE",
"90 140 LINE",
"690 140 LINE",
"690 280 LINE",
"177 280 LINE",
"195 244 LINE",
"487 626 LINE",
"460 635 LINE",
"460 0 LINE"
);
}
);
width = 760;
},
{
layerId = "B8F43E33-4D80-4AEE-B4E2-DC92E4FCAAE5";
paths = (
{
closed = 1;
nodes = (
"785 0 LINE",
"785 700 LINE",
"570 700 LINE",
"35 318 LINE",
"100 140 LINE",
"950 140 LINE",
"950 280 LINE",
"145 280 LINE",
"167 240 LINE",
"685 619 LINE",
"645 619 LINE",
"645 0 LINE"
);
}
);
width = 1020;
},
{
layerId = "198E78DA-6138-42C0-8847-C36925CEE918";
paths = (
{
closed = 1;
nodes = (
"547 0 LINE",
"696 700 LINE",
"475 700 LINE",
"36 253 LINE",
"68 140 LINE",
"667 140 LINE",
"697 280 LINE",
"185 280 LINE",
"196 244 LINE",
"568 626 LINE",
"542 635 LINE",
"407 0 LINE"
);
}
);
width = 761;
},
{
layerId = "E0F5E986-8A77-409E-9DB3-A90D066F072F";
paths = (
{
closed = 1;
nodes = (
"630 0 LINE",
"630 700 LINE",
"530 700 LINE",
"35 245 LINE",
"62 175 LINE",
"720 175 LINE",
"720 245 LINE",
"99 245 LINE",
"108 217 LINE",
"591 661 LINE",
"560 677 LINE",
"560 0 LINE"
);
}
);
width = 790;
},
{
hints = (
{
horizontal = 1;
origin = "{0, 4}";
target = "{0, 7}";
type = Stem;
},
{
origin = "{0, 11}";
target = "{0, 0}";
type = Stem;
}
);
layerId = "671D7F47-0040-4C88-995A-F1154CC787CA";
paths = (
{
closed = 1;
nodes = (
"790 0 LINE",
"790 700 LINE",
"695 700 LINE",
"35 257 LINE",
"60 175 LINE",
"955 175 LINE",
"955 245 LINE",
"91 245 LINE",
"105 225 LINE",
"759 661 LINE",
"720 681 LINE",
"720 0 LINE"
);
}
);
width = 1025;
},
{
hints = (
{
horizontal = 1;
place = "{175, 70}";
type = Stem;
},
{
place = "{560, 70}";
type = Stem;
}
);
layerId = "69FAE2FB-B0EC-4DE1-A39D-F4FC44956106";
paths = (
{
closed = 1;
nodes = (
"577 0 LINE",
"725 700 LINE",
"625 700 LINE",
"34 245 LINE",
"46 175 LINE",
"684 175 LINE",
"699 245 LINE",
"98 245 LINE",
"101 217 LINE",
"678 661 LINE",
"651 677 LINE",
"507 0 LINE"
);
}
);
width = 770;
}
);
unicode = 0034;
},
{
glyphname = five;
lastChange = "2019-06-03 01:02:36 +0000";
layers = (
{
hints = (
{
horizontal = 1;
origin = "{0, 19}";
target = "{0, 14}";
type = Stem;
},
{
horizontal = 1;
origin = "{0, 9}";
target = "{0, 4}";
type = Stem;
},
{
horizontal = 1;
origin = "{1, 3}";
target = "{0, 7}";
type = Stem;
},
{
origin = "{0, 18}";
target = "{0, 19}";
type = Stem;
},
{
origin = "{0, 0}";
target = "{0, 1}";
type = Stem;
}
);
layerId = "E82D559A-267E-4BF3-BBA1-0778DA3FF57C";
paths = (
{
closed = 1;
nodes = (
"525 0 LINE",
"665 70 LINE",
"665 385 LINE",
"525 455 LINE",
"210 455 LINE",
"210 455 LINE",
"210 700 LINE",
"70 700 LINE",
"70 385 LINE",
"210 315 LINE",
"525 315 LINE",
"525 315 LINE",
"525 140 LINE",
"525 140 LINE",
"210 140 LINE",
"210 140 LINE",
"210 210 LINE",
"70 210 LINE",
"70 70 LINE",
"210 0 LINE"
);
},
{
closed = 1;
nodes = (
"665 560 LINE",
"665 700 LINE",
"140 700 LINE",
"140 560 LINE"
);
}
);
width = 735;
},
{
layerId = "B8F43E33-4D80-4AEE-B4E2-DC92E4FCAAE5";
paths = (
{
closed = 1;
nodes = (
"788 0 LINE",
"928 70 LINE",
"928 385 LINE",
"788 455 LINE",
"210 455 LINE",
"210 455 LINE",
"210 700 LINE",
"70 700 LINE",
"70 385 LINE",
"210 315 LINE",
"788 315 LINE",
"788 315 LINE",
"788 140 LINE",
"788 140 LINE",
"210 140 LINE",
"210 140 LINE",
"210 210 LINE",
"70 210 LINE",
"70 70 LINE",
"210 0 LINE"
);
},
{
closed = 1;
nodes = (
"928 560 LINE",
"928 700 LINE",
"140 700 LINE",
"140 560 LINE"
);
}
);
width = 997.5;
},
{
layerId = "198E78DA-6138-42C0-8847-C36925CEE918";
paths = (
{
closed = 1;
nodes = (
"473 0 LINE",
"627 70 LINE",
"693 385 LINE",
"568 455 LINE",
"254 455 LINE",
"254 455 LINE",
"306 700 LINE",
"166 700 LINE",
"99 385 LINE",
"224 315 LINE",
"539 315 LINE",
"539 315 LINE",
"502 140 LINE",
"502 140 LINE",
"187 140 LINE",
"187 140 LINE",
"202 210 LINE",
"62 210 LINE",
"32 70 LINE",
"158 0 LINE"
);
},
{
closed = 1;
nodes = (
"731 560 LINE",
"761 700 LINE",
"236 700 LINE",
"206 560 LINE"
);
}
);
width = 735;
},
{
layerId = "E0F5E986-8A77-409E-9DB3-A90D066F072F";
paths = (
{
closed = 1;
nodes = (
"525 0 LINE",
"665 70 LINE",
"665 385 LINE",
"525 455 LINE",
"119 455 LINE",
"140 435 LINE",
"140 700 LINE",
"70 700 LINE",
"70 385 LINE",
"70 385 LINE",
"508 385 LINE",
"595 342 LINE",
"595 113 LINE",
"508 70 LINE",
"227 70 LINE",
"140 113 LINE",
"140 210 LINE",
"70 210 LINE",
"70 70 LINE",
"210 0 LINE"
);
},
{
closed = 1;
nodes = (
"665 630 LINE",
"665 700 LINE",
"105 700 LINE",
"105 630 LINE"
);
}
);
width = 735;
},
{
hints = (
{
horizontal = 1;
origin = "{0, 19}";
target = "{0, 14}";
type = Stem;
},
{
horizontal = 1;
origin = "{0, 9}";
target = "{0, 4}";
type = Stem;
},
{
horizontal = 1;
origin = "{1, 3}";
target = "{0, 7}";
type = Stem;
},
{
origin = "{0, 11}";
target = "{0, 12}";
type = Stem;
},
{
origin = "{0, 1}";
target = "{0, 2}";
type = Stem;
},
{
origin = "{0, 12}";
target = "{0, 1}";
type = Stem;
},
{
origin = "{0, 17}";
target = "{0, 16}";
type = Stem;
}
);
layerId = "671D7F47-0040-4C88-995A-F1154CC787CA";
paths = (
{
closed = 1;
nodes = (
"788 0 LINE",
"928 70 LINE",
"928 385 LINE",
"788 455 LINE",
"119 455 LINE",
"140 435 LINE",
"140 700 LINE",
"70 700 LINE",
"70 385 LINE",
"70 385 LINE",
"771 385 LINE",
"858 342 LINE",
"858 113 LINE",
"771 70 LINE",
"227 70 LINE",
"140 113 LINE",
"140 210 LINE",
"70 210 LINE",
"70 70 LINE",
"210 0 LINE"
);
},
{
closed = 1;
nodes = (
"928 630 LINE",
"928 700 LINE",
"105 700 LINE",
"105 630 LINE"
);
}
);
width = 997.5;
},
{
hints = (
{
horizontal = 1;
origin = "{0, 19}";
target = "{0, 18}";
type = Stem;
},
{
horizontal = 1;
origin = "{0, 4}";
target = "{0, 8}";
type = Stem;
},
{
horizontal = 1;
origin = "{0, 7}";
target = "{1, 3}";
type = Stem;
}
);
layerId = "69FAE2FB-B0EC-4DE1-A39D-F4FC44956106";
paths = (
{
closed = 1;
nodes = (
"473 0 LINE",
"627 70 LINE",
"694 385 LINE",
"568 455 LINE",
"185 455 LINE",
"185 455 LINE",
"237 700 LINE",
"166 700 LINE",
"99 385 LINE",
"99 385 LINE",
"550 385 LINE",
"614 349 LINE",
"566 119 LINE",
"458 70 LINE",
"176 70 LINE",
"111 106 LINE",
"133 210 LINE",
"62 210 LINE",
"32 70 LINE",
"158 0 LINE"
);
},
{
closed = 1;
nodes = (
"747 630 LINE",
"761 700 LINE",
"201 700 LINE",
"171 630 LINE"
);
}
);
width = 736;
}
);
unicode = 0035;
},
{
glyphname = six;
lastChange = "2019-06-03 01:15:48 +0000";
layers = (
{
hints = (
{
horizontal = 1;
origin = "{0, 23}";
target = "{0, 10}";
type = Stem;
},
{
horizontal = 1;
origin = "{0, 5}";
target = "{0, 4}";
type = Stem;
},
{
horizontal = 1;
origin = "{0, 13}";
target = "{0, 20}";
type = Stem;
},
{
origin = "{0, 22}";
target = "{0, 23}";
type = Stem;
},
{
origin = "{0, 0}";
target = "{0, 1}";
type = Stem;
}
);
layerId = "E82D559A-267E-4BF3-BBA1-0778DA3FF57C";
paths = (
{
closed = 1;
nodes = (
"525 0 LINE",
"665 70 LINE",
"665 350 LINE",
"525 420 LINE",
"140 420 LINE",
"140 280 LINE",
"525 280 LINE",
"525 280 LINE",
"525 140 LINE",
"525 140 LINE",
"210 140 LINE",
"210 140 LINE",
"210 560 LINE",
"210 560 LINE",
"525 560 LINE",
"525 560 LINE",
"525 525 LINE",
"665 525 LINE",
"665 630 LINE",
"525 700 LINE",
"210 700 LINE",
"70 630 LINE",
"70 70 LINE",
"210 0 LINE"
);
}
);
width = 735;
},
{
hints = (
{
horizontal = 1;
origin = "{0, 23}";
target = "{0, 10}";
type = Stem;
},
{
horizontal = 1;
origin = "{0, 5}";
target = "{0, 4}";
type = Stem;
},
{
horizontal = 1;
origin = "{0, 20}";
target = "{0, 12}";
type = Stem;
},
{
origin = "{0, 22}";
target = "{0, 23}";
type = Stem;
},
{
origin = "{0, 0}";
target = "{0, 1}";
type = Stem;
}
);
layerId = "B8F43E33-4D80-4AEE-B4E2-DC92E4FCAAE5";
paths = (
{
closed = 1;
nodes = (
"787 0 LINE",
"927 70 LINE",
"927 350 LINE",
"787 420 LINE",
"140 420 LINE",
"140 280 LINE",
"787 280 LINE",
"787 280 LINE",
"787 140 LINE",
"787 140 LINE",
"210 140 LINE",
"210 140 LINE",
"210 560 LINE",
"210 560 LINE",
"787 560 LINE",
"787 560 LINE",
"787 525 LINE",
"927 525 LINE",
"927 630 LINE",
"787 700 LINE",
"210 700 LINE",
"70 630 LINE",
"70 70 LINE",
"210 0 LINE"
);
}
);
width = 997;
},
{
hints = (
{
horizontal = 1;
origin = "{0, 23}";
target = "{0, 10}";
type = Stem;
},
{
horizontal = 1;
origin = "{0, 5}";
target = "{0, 4}";
type = Stem;
},
{
horizontal = 1;
origin = "{0, 20}";
target = "{0, 12}";
type = Stem;
}
);
layerId = "198E78DA-6138-42C0-8847-C36925CEE918";
paths = (
{
closed = 1;
nodes = (
"474 0 LINE",
"628 70 LINE",
"687 350 LINE",
"562 420 LINE",
"177 420 LINE",
"148 280 LINE",
"532 280 LINE",
"532 280 LINE",
"503 140 LINE",
"503 140 LINE",
"188 140 LINE",
"188 140 LINE",
"277 560 LINE",
"277 560 LINE",
"592 560 LINE",
"592 560 LINE",
"585 525 LINE",
"725 525 LINE",
"746 630 LINE",
"621 700 LINE",
"306 700 LINE",
"151 630 LINE",
"33 70 LINE",
"159 0 LINE"
);
}
);
width = 737;
},
{
hints = (
{
horizontal = 1;
origin = "{0, 23}";
target = "{0, 22}";
type = Stem;
},
{
horizontal = 1;
origin = "{0, 5}";
target = "{0, 4}";
type = Stem;
},
{
horizontal = 1;
origin = "{0, 20}";
target = "{0, 21}";
type = Stem;
},
{
origin = "{0, 22}";
target = "{0, 11}";
type = Stem;
},
{
origin = "{0, 8}";
target = "{0, 1}";
type = Stem;
}
);
layerId = "E0F5E986-8A77-409E-9DB3-A90D066F072F";
paths = (
{
closed = 1;
nodes = (
"525 0 LINE",
"665 70 LINE",
"665 315 LINE",
"525 385 LINE",
"124 385 LINE",
"124 315 LINE",
"508 315 LINE",
"595 272 LINE",
"595 113 LINE",
"508 70 LINE",
"227 70 LINE",
"140 113 LINE",
"140 587 LINE",
"227 630 LINE",
"508 630 LINE",
"595 587 LINE",
"595 490 LINE",
"665 490 LINE",
"665 630 LINE",
"525 700 LINE",
"210 700 LINE",
"70 630 LINE",
"70 70 LINE",
"210 0 LINE"
);
}
);
width = 735;
},
{
hints = (
{
horizontal = 1;
origin = "{0, 23}";
target = "{0, 10}";
type = Stem;
},
{
horizontal = 1;
origin = "{0, 5}";
target = "{0, 4}";
type = Stem;
},
{
horizontal = 1;
origin = "{0, 13}";
target = "{0, 20}";
type = Stem;
},
{
origin = "{0, 16}";
target = "{0, 17}";
type = Stem;
},
{
origin = "{0, 22}";
target = "{0, 11}";
type = Stem;
}
);
layerId = "671D7F47-0040-4C88-995A-F1154CC787CA";
paths = (
{
closed = 1;
nodes = (
"787 0 LINE",
"927 70 LINE",
"927 315 LINE",
"787 385 LINE",
"105 385 LINE",
"105 315 LINE",
"770 315 LINE",
"857 272 LINE",
"857 113 LINE",
"770 70 LINE",
"227 70 LINE",
"140 113 LINE",
"140 587 LINE",
"227 630 LINE",
"770 630 LINE",
"857 587 LINE",
"857 490 LINE",
"927 490 LINE",
"927 630 LINE",
"787 700 LINE",
"210 700 LINE",
"70 630 LINE",
"70 70 LINE",
"210 0 LINE"
);
}
);
width = 997;
},
{
hints = (
{
horizontal = 1;
place = "{0, 70}";
type = Stem;
},
{
horizontal = 1;
place = "{315, 70}";
type = Stem;
},
{
horizontal = 1;
place = "{630, 70}";
type = Stem;
}
);
layerId = "69FAE2FB-B0EC-4DE1-A39D-F4FC44956106";
paths = (
{
closed = 1;
nodes = (
"473 0 LINE",
"627 70 LINE",
"680 315 LINE",
"554 385 LINE",
"134 385 LINE",
"120 315 LINE",
"523 315 LINE",
"600 272 LINE",
"567 113 LINE",
"470 70 LINE",
"189 70 LINE",
"112 113 LINE",
"212 587 LINE",
"309 630 LINE",
"590 630 LINE",
"667 587 LINE",
"647 490 LINE",
"717 490 LINE",
"747 630 LINE",
"621 700 LINE",
"306 700 LINE",
"152 630 LINE",
"32 70 LINE",
"158 0 LINE"
);
}
);
width = 736;
}
);
unicode = 0036;
},
{
glyphname = seven;
lastChange = "2019-06-02 00:52:56 +0000";
layers = (
{
hints = (
{
horizontal = 1;
origin = "{0, 7}";
target = "{0, 3}";
type = Stem;
},
{
origin = "{0, 4}";
target = "{0, 5}";
type = Stem;
}
);
layerId = "E82D559A-267E-4BF3-BBA1-0778DA3FF57C";
paths = (
{
closed = 1;
nodes = (
"379 0 LINE",
"664 582 LINE",
"606 700 LINE",
"70 700 LINE",
"70 490 LINE",
"210 490 LINE",
"210 605 LINE",
"165 560 LINE",
"541 560 LINE",
"516 600 LINE",
"222 0 LINE"
);
}
);
width = 699;
},
{
layerId = "B8F43E33-4D80-4AEE-B4E2-DC92E4FCAAE5";
paths = (
{
closed = 1;
nodes = (
"432 0 LINE",
"979 642 LINE",
"926 700 LINE",
"70 700 LINE",
"70 490 LINE",
"210 490 LINE",
"210 605 LINE",
"165 560 LINE",
"761 560 LINE",
"746 595 LINE",
"235 0 LINE"
);
}
);
width = 1054;
},
{
layerId = "198E78DA-6138-42C0-8847-C36925CEE918";
paths = (
{
closed = 1;
nodes = (
"327 0 LINE",
"735 582 LINE",
"701 700 LINE",
"166 700 LINE",
"121 490 LINE",
"261 490 LINE",
"285 605 LINE",
"230 560 LINE",
"606 560 LINE",
"588 600 LINE",
"168 0 LINE"
);
}
);
width = 734;
},
{
layerId = "E0F5E986-8A77-409E-9DB3-A90D066F072F";
paths = (
{
closed = 1;
nodes = (
"319 0 LINE",
"665 633 LINE",
"632 700 LINE",
"70 700 LINE",
"70 490 LINE",
"140 490 LINE",
"140 675 LINE",
"95 630 LINE",
"627 630 LINE",
"603 666 LINE",
"239 0 LINE"
);
}
);
width = 700;
},
{
hints = (
{
horizontal = 1;
origin = "{0, 7}";
target = "{0, 3}";
type = Stem;
},
{
origin = "{0, 4}";
target = "{0, 5}";
type = Stem;
}
);
layerId = "671D7F47-0040-4C88-995A-F1154CC787CA";
paths = (
{
closed = 1;
nodes = (
"326 0 LINE",
"953 693 LINE",
"925 700 LINE",
"70 700 LINE",
"70 490 LINE",
"140 490 LINE",
"140 675 LINE",
"95 630 LINE",
"800 630 LINE",
"786 661 LINE",
"192 0 LINE"
);
}
);
width = 1055;
},
{
hints = (
{
horizontal = 1;
origin = "{0, 7}";
target = "{0, 3}";
type = Stem;
},
{
origin = "{0, 4}";
target = "{0, 5}";
type = Stem;
}
);
layerId = "69FAE2FB-B0EC-4DE1-A39D-F4FC44956106";
paths = (
{
closed = 1;
nodes = (
"267 0 LINE",
"736 633 LINE",
"727 700 LINE",
"166 700 LINE",
"121 490 LINE",
"191 490 LINE",
"215 675 LINE",
"160 630 LINE",
"692 630 LINE",
"675 666 LINE",
"185 0 LINE"
);
}
);
width = 735;
}
);
unicode = 0037;
},
{
glyphname = eight;
lastChange = "2019-06-04 04:02:50 +0000";
layers = (
{
hints = (
{
horizontal = 1;
place = "{0, 70}";
type = Stem;
},
{
horizontal = 1;
origin = "{1, 0}";
target = "{0, 1}";
type = Stem;
},
{
horizontal = 1;
origin = "{2, 0}";
target = "{0, 15}";
type = Stem;
},
{
origin = "{0, 1}";
target = "{2, 6}";
type = Stem;
},
{
origin = "{1, 2}";
target = "{0, 12}";
type = Stem;
}
);
layerId = "E82D559A-267E-4BF3-BBA1-0778DA3FF57C";
paths = (
{
closed = 1;
nodes = (
"70 630 LINE",
"70 420 LINE",
"162 328 LINE",
"162 372 LINE",
"70 280 LINE",
"70 70 LINE",
"210 0 LINE",
"525 0 LINE",
"665 70 LINE",
"665 280 LINE",
"573 372 LINE",
"573 328 LINE",
"665 420 LINE",
"665 630 LINE",
"525 700 LINE",
"210 700 LINE"
);
},
{
closed = 1;
nodes = (
"220 280 LINE",
"515 280 LINE",
"515 280 LINE",
"515 140 LINE",
"515 140 LINE",
"220 140 LINE",
"220 140 LINE",
"220 280 LINE"
);
},
{
closed = 1;
nodes = (
"220 560 LINE",
"515 560 LINE",
"515 560 LINE",
"515 420 LINE",
"515 420 LINE",
"220 420 LINE",
"220 420 LINE",
"220 560 LINE"
);
}
);
width = 735;
},
{
layerId = "B8F43E33-4D80-4AEE-B4E2-DC92E4FCAAE5";
paths = (
{
closed = 1;
nodes = (
"70 630 LINE",
"70 420 LINE",
"162 328 LINE",
"162 372 LINE",
"70 280 LINE",
"70 70 LINE",
"210 0 LINE",
"788 0 LINE",
"928 70 LINE",
"928 280 LINE",
"836 372 LINE",
"836 328 LINE",
"928 420 LINE",
"928 630 LINE",
"788 700 LINE",
"210 700 LINE"
);
},
{
closed = 1;
nodes = (
"220 280 LINE",
"778 280 LINE",
"778 280 LINE",
"778 140 LINE",
"778 140 LINE",
"220 140 LINE",
"220 140 LINE",
"220 280 LINE"
);
},
{
closed = 1;
nodes = (
"220 560 LINE",
"778 560 LINE",
"778 560 LINE",
"778 420 LINE",
"778 420 LINE",
"220 420 LINE",
"220 420 LINE",
"220 560 LINE"
);
}
);
width = 997.5;
},
{
layerId = "198E78DA-6138-42C0-8847-C36925CEE918";
paths = (
{
closed = 1;
nodes = (
"152 630 LINE",
"107 420 LINE",
"181 325 LINE",
"186 370 LINE",
"77 280 LINE",
"32 70 LINE",
"158 0 LINE",
"473 0 LINE",
"627 70 LINE",
"672 280 LINE",
"598 375 LINE",
"593 330 LINE",
"702 420 LINE",
"747 630 LINE",
"621 700 LINE",
"306 700 LINE"
);
},
{
closed = 1;
nodes = (
"227 280 LINE",
"522 280 LINE",
"522 280 LINE",
"492 140 LINE",
"492 140 LINE",
"197 140 LINE",
"197 140 LINE",
"227 280 LINE"
);
},
{
closed = 1;
nodes = (
"287 560 LINE",
"582 560 LINE",
"582 560 LINE",
"552 420 LINE",
"552 420 LINE",
"257 420 LINE",
"257 420 LINE",
"287 560 LINE"
);
}
);
width = 736;
},
{
layerId = "E0F5E986-8A77-409E-9DB3-A90D066F072F";
paths = (
{
closed = 1;
nodes = (
"70 630 LINE",
"70 420 LINE",
"172 318 LINE",
"172 382 LINE",
"70 280 LINE",
"70 70 LINE",
"210 0 LINE",
"525 0 LINE",
"665 70 LINE",
"665 280 LINE",
"563 382 LINE",
"563 318 LINE",
"665 420 LINE",
"665 630 LINE",
"525 700 LINE",
"210 700 LINE"
);
},
{
closed = 1;
nodes = (
"205 315 LINE",
"530 315 LINE",
"595 250 LINE",
"595 109 LINE",
"515 70 LINE",
"220 70 LINE",
"140 109 LINE",
"140 250 LINE"
);
},
{
closed = 1;
nodes = (
"220 630 LINE",
"515 630 LINE",
"595 591 LINE",
"595 450 LINE",
"530 385 LINE",
"205 385 LINE",
"140 450 LINE",
"140 591 LINE"
);
}
);
width = 735;
},
{
hints = (
{
horizontal = 1;
place = "{0, 70}";
type = Stem;
},
{
horizontal = 1;
origin = "{1, 1}";
target = "{0, 12}";
type = Stem;
},
{
horizontal = 1;
origin = "{0, 13}";
target = "{0, 14}";
type = Stem;
},
{
origin = "{0, 12}";
target = "{2, 4}";
type = Stem;
},
{
origin = "{1, 0}";
target = "{0, 1}";
type = Stem;
}
);
layerId = "671D7F47-0040-4C88-995A-F1154CC787CA";
paths = (
{
closed = 1;
nodes = (
"70 630 LINE",
"70 420 LINE",
"172 318 LINE",
"172 382 LINE",
"70 280 LINE",
"70 70 LINE",
"210 0 LINE",
"787 0 LINE",
"928 70 LINE",
"928 280 LINE",
"826 382 LINE",
"826 318 LINE",
"928 420 LINE",
"928 630 LINE",
"788 700 LINE",
"211 700 LINE"
);
},
{
closed = 1;
nodes = (
"204 315 LINE",
"794 315 LINE",
"858 251 LINE",
"858 113 LINE",
"771 70 LINE",
"227 70 LINE",
"140 113 LINE",
"140 251 LINE"
);
},
{
closed = 1;
nodes = (
"227 630 LINE",
"771 630 LINE",
"858 587 LINE",
"858 449 LINE",
"794 385 LINE",
"204 385 LINE",
"140 449 LINE",
"140 587 LINE"
);
}
);
width = 998;
},
{
hints = (
{
horizontal = 1;
place = "{0, 70}";
type = Stem;
},
{
horizontal = 1;
origin = "{1, 0}";
target = "{0, 6}";
type = Stem;
},
{
horizontal = 1;
place = "{700, -421}";
type = Stem;
}
);
layerId = "69FAE2FB-B0EC-4DE1-A39D-F4FC44956106";
paths = (
{
closed = 1;
nodes = (
"151 630 LINE",
"108 420 LINE",
"191 317 LINE",
"198 381 LINE",
"76 280 LINE",
"33 70 LINE",
"159 0 LINE",
"474 0 LINE",
"628 70 LINE",
"671 279 LINE",
"590 385 LINE",
"582 320 LINE",
"703 420 LINE",
"746 630 LINE",
"621 700 LINE",
"306 700 LINE"
);
},
{
closed = 1;
nodes = (
"229 315 LINE",
"555 315 LINE",
"596 262 LINE",
"567 119 LINE",
"459 70 LINE",
"177 70 LINE",
"112 106 LINE",
"140 242 LINE"
);
},
{
closed = 1;
nodes = (
"321 630 LINE",
"603 630 LINE",
"667 594 LINE",
"639 458 LINE",
"550 385 LINE",
"226 385 LINE",
"183 438 LINE",
"212 581 LINE"
);
}
);
width = 737;
}
);
unicode = 0038;
},
{
glyphname = nine;
lastChange = "2019-06-03 01:16:32 +0000";
layers = (
{
hints = (
{
horizontal = 1;
place = "{0, 140}";
type = Stem;
},
{
horizontal = 1;
place = "{280, 140}";
type = Stem;
},
{
horizontal = 1;
place = "{560, 140}";
type = Stem;
},
{
place = "{70, 140}";
type = Stem;
},
{
place = "{525, 140}";
type = Stem;
},
{
horizontal = 1;
origin = "{0, 3}";
target = "{0, 14}";
type = Stem;
},
{
horizontal = 1;
origin = "{0, 9}";
target = "{0, 8}";
type = Stem;
},
{
horizontal = 1;
origin = "{0, 17}";
target = "{0, 0}";
type = Stem;
},
{
origin = "{0, 2}";
target = "{0, 3}";
type = Stem;
},
{
origin = "{0, 4}";
target = "{0, 5}";
type = Stem;
}
);
layerId = "E82D559A-267E-4BF3-BBA1-0778DA3FF57C";
paths = (
{
closed = 1;
nodes = (
"525 0 LINE",
"665 70 LINE",
"665 630 LINE",
"525 700 LINE",
"210 700 LINE",
"70 630 LINE",
"70 350 LINE",
"210 280 LINE",
"595 280 LINE",
"595 420 LINE",
"210 420 LINE",
"210 420 LINE",
"210 560 LINE",
"210 560 LINE",
"525 560 LINE",
"525 560 LINE",
"525 140 LINE",
"525 140 LINE",
"210 140 LINE",
"210 140 LINE",
"210 175 LINE",
"70 175 LINE",
"70 70 LINE",
"210 0 LINE"
);
}
);
width = 735;
},
{
hints = (
{
horizontal = 1;
origin = "{0, 3}";
target = "{0, 14}";
type = Stem;
},
{
horizontal = 1;
origin = "{0, 9}";
target = "{0, 8}";
type = Stem;
},
{
horizontal = 1;
origin = "{0, 0}";
target = "{0, 16}";
type = Stem;
},
{
origin = "{0, 2}";
target = "{0, 3}";
type = Stem;
},
{
origin = "{0, 4}";
target = "{0, 5}";
type = Stem;
}
);
layerId = "B8F43E33-4D80-4AEE-B4E2-DC92E4FCAAE5";
paths = (
{
closed = 1;
nodes = (
"787 0 LINE",
"927 70 LINE",
"927 630 LINE",
"787 700 LINE",
"210 700 LINE",
"70 630 LINE",
"70 350 LINE",
"210 280 LINE",
"857 280 LINE",
"857 420 LINE",
"210 420 LINE",
"210 420 LINE",
"210 560 LINE",
"210 560 LINE",
"787 560 LINE",
"787 560 LINE",
"787 140 LINE",
"787 140 LINE",
"210 140 LINE",
"210 140 LINE",
"210 175 LINE",
"70 175 LINE",
"70 70 LINE",
"210 0 LINE"
);
}
);
width = 997;
},
{
hints = (
{
horizontal = 1;
origin = "{0, 23}";
target = "{0, 18}";
type = Stem;
},
{
horizontal = 1;
origin = "{0, 7}";
target = "{0, 10}";
type = Stem;
},
{
horizontal = 1;
origin = "{0, 4}";
target = "{0, 12}";
type = Stem;
}
);
layerId = "198E78DA-6138-42C0-8847-C36925CEE918";
paths = (
{
closed = 1;
nodes = (
"473 0 LINE",
"627 70 LINE",
"747 630 LINE",
"621 700 LINE",
"306 700 LINE",
"152 630 LINE",
"92 350 LINE",
"217 280 LINE",
"602 280 LINE",
"632 420 LINE",
"247 420 LINE",
"247 420 LINE",
"277 560 LINE",
"277 560 LINE",
"592 560 LINE",
"592 560 LINE",
"502 140 LINE",
"502 140 LINE",
"187 140 LINE",
"187 140 LINE",
"195 175 LINE",
"55 175 LINE",
"32 70 LINE",
"158 0 LINE"
);
}
);
width = 736;
},
{
hints = (
{
horizontal = 1;
origin = "{0, 3}";
target = "{0, 2}";
type = Stem;
},
{
horizontal = 1;
origin = "{0, 9}";
target = "{0, 8}";
type = Stem;
},
{
horizontal = 1;
origin = "{0, 0}";
target = "{0, 1}";
type = Stem;
},
{
origin = "{0, 2}";
target = "{0, 15}";
type = Stem;
},
{
origin = "{0, 12}";
target = "{0, 5}";
type = Stem;
}
);
layerId = "E0F5E986-8A77-409E-9DB3-A90D066F072F";
paths = (
{
closed = 1;
nodes = (
"525 0 LINE",
"665 70 LINE",
"665 630 LINE",
"525 700 LINE",
"210 700 LINE",
"70 630 LINE",
"70 385 LINE",
"210 315 LINE",
"611 315 LINE",
"611 385 LINE",
"227 385 LINE",
"140 428 LINE",
"140 587 LINE",
"227 630 LINE",
"508 630 LINE",
"595 587 LINE",
"595 113 LINE",
"508 70 LINE",
"227 70 LINE",
"140 113 LINE",
"140 210 LINE",
"70 210 LINE",
"70 70 LINE",
"210 0 LINE"
);
}
);
width = 735;
},
{
hints = (
{
horizontal = 1;
place = "{0, 70}";
type = Stem;
},
{
horizontal = 1;
place = "{315, 70}";
type = Stem;
},
{
horizontal = 1;
place = "{630, 70}";
type = Stem;
},
{
horizontal = 1;
origin = "{0, 3}";
target = "{0, 14}";
type = Stem;
},
{
horizontal = 1;
origin = "{0, 9}";
target = "{0, 8}";
type = Stem;
},
{
horizontal = 1;
origin = "{0, 17}";
target = "{0, 0}";
type = Stem;
},
{
origin = "{0, 20}";
target = "{0, 21}";
type = Stem;
},
{
origin = "{0, 2}";
target = "{0, 15}";
type = Stem;
}
);
layerId = "671D7F47-0040-4C88-995A-F1154CC787CA";
paths = (
{
closed = 1;
nodes = (
"787 0 LINE",
"927 70 LINE",
"927 630 LINE",
"787 700 LINE",
"210 700 LINE",
"70 630 LINE",
"70 385 LINE",
"210 315 LINE",
"892 315 LINE",
"892 385 LINE",
"227 385 LINE",
"140 428 LINE",
"140 587 LINE",
"227 630 LINE",
"770 630 LINE",
"857 587 LINE",
"857 113 LINE",
"770 70 LINE",
"227 70 LINE",
"140 113 LINE",
"140 210 LINE",
"70 210 LINE",
"70 70 LINE",
"210 0 LINE"
);
}
);
width = 997;
},
{
hints = (
{
horizontal = 1;
place = "{0, 70}";
type = Stem;
},
{
horizontal = 1;
place = "{315, 70}";
type = Stem;
},
{
horizontal = 1;
place = "{630, 70}";
type = Stem;
}
);
layerId = "69FAE2FB-B0EC-4DE1-A39D-F4FC44956106";
paths = (
{
closed = 1;
nodes = (
"473 0 LINE",
"627 70 LINE",
"747 630 LINE",
"621 700 LINE",
"306 700 LINE",
"152 630 LINE",
"99 385 LINE",
"225 315 LINE",
"626 315 LINE",
"640 385 LINE",
"256 385 LINE",
"179 428 LINE",
"212 587 LINE",
"309 630 LINE",
"590 630 LINE",
"667 587 LINE",
"567 113 LINE",
"470 70 LINE",
"189 70 LINE",
"112 113 LINE",
"132 210 LINE",
"62 210 LINE",
"32 70 LINE",
"158 0 LINE"
);
}
);
width = 736;
}
);
unicode = 0039;
},
{
glyphname = one.ss01;
lastChange = "2019-06-02 00:52:56 +0000";
layers = (
{
hints = (
{
origin = "{0, 3}";
target = "{0, 0}";
type = Stem;
}
);
layerId = "E82D559A-267E-4BF3-BBA1-0778DA3FF57C";
paths = (
{
closed = 1;
nodes = (
"394 0 LINE",
"394 700 LINE",
"254 700 LINE",
"254 0 LINE"
);
},
{
closed = 1;
nodes = (
"127 465 LINE",
"394 700 LINE",
"182 700 LINE",
"35 570 LINE"
);
}
);
width = 464;
},
{
layerId = "B8F43E33-4D80-4AEE-B4E2-DC92E4FCAAE5";
paths = (
{
closed = 1;
nodes = (
"465 0 LINE",
"465 700 LINE",
"325 700 LINE",
"325 0 LINE"
);
},
{
closed = 1;
nodes = (
"127 403 LINE",
"465 700 LINE",
"253 700 LINE",
"35 508 LINE"
);
}
);
width = 535;
},
{
layerId = "198E78DA-6138-42C0-8847-C36925CEE918";
paths = (
{
closed = 1;
nodes = (
"341 0 LINE",
"490 700 LINE",
"350 700 LINE",
"201 0 LINE"
);
},
{
closed = 1;
nodes = (
"175 465 LINE",
"491 700 LINE",
"277 700 LINE",
"103 570 LINE"
);
}
);
width = 465;
},
{
layerId = "E0F5E986-8A77-409E-9DB3-A90D066F072F";
paths = (
{
closed = 1;
nodes = (
"346 0 LINE",
"346 700 LINE",
"276 700 LINE",
"276 0 LINE"
);
},
{
closed = 1;
nodes = (
"77 500 LINE",
"346 700 LINE",
"229 700 LINE",
"35 556 LINE"
);
}
);
width = 416;
},
{
hints = (
{
origin = "{0, 3}";
target = "{0, 0}";
type = Stem;
}
);
layerId = "671D7F47-0040-4C88-995A-F1154CC787CA";
paths = (
{
closed = 1;
nodes = (
"411 0 LINE",
"411 700 LINE",
"341 700 LINE",
"341 0 LINE"
);
},
{
closed = 1;
nodes = (
"77 443 LINE",
"411 700 LINE",
"294 700 LINE",
"35 499 LINE"
);
}
);
width = 481;
},
{
hints = (
{
origin = "{0, 3}";
target = "{0, 0}";
type = Stem;
}
);
layerId = "69FAE2FB-B0EC-4DE1-A39D-F4FC44956106";
paths = (
{
closed = 1;
nodes = (
"293 0 LINE",
"442 700 LINE",
"372 700 LINE",
"223 0 LINE"
);
},
{
closed = 1;
nodes = (
"125 500 LINE",
"443 700 LINE",
"324 700 LINE",
"103 556 LINE"
);
}
);
width = 417;
}
);
},
{
glyphname = two.ss01;
lastChange = "2019-06-03 00:54:22 +0000";
layers = (
{
hints = (
{
horizontal = 1;
origin = "{0, 17}";
target = "{0, 3}";
type = Stem;
},
{
horizontal = 1;
origin = "{0, 12}";
target = "{0, 7}";
type = Stem;
},
{
origin = "{0, 9}";
target = "{0, 10}";
type = Stem;
},
{
origin = "{0, 15}";
target = "{0, 0}";
type = Stem;
}
);
layerId = "E82D559A-267E-4BF3-BBA1-0778DA3FF57C";
paths = (
{
closed = 1;
nodes = (
"666 0 LINE",
"666 140 LINE",
"312 140 LINE",
"312 140 LINE",
"666 425 LINE",
"666 630 LINE",
"526 700 LINE",
"210 700 LINE",
"70 630 LINE",
"70 490 LINE",
"210 490 LINE",
"210 560 LINE",
"210 560 LINE",
"526 560 LINE",
"526 560 LINE",
"526 491 LINE",
"50 101 LINE",
"91 0 LINE"
);
}
);
width = 736;
},
{
layerId = "B8F43E33-4D80-4AEE-B4E2-DC92E4FCAAE5";
paths = (
{
closed = 1;
nodes = (
"927.5 0 LINE",
"927.5 140 LINE",
"348 140 LINE",
"348 140 LINE",
"927.5 390 LINE",
"927.5 630 LINE",
"787.5 700 LINE",
"210 700 LINE",
"70 630 LINE",
"70 490 LINE",
"210 490 LINE",
"210 560 LINE",
"210 560 LINE",
"788 560 LINE",
"788 560 LINE",
"788 473 LINE",
"64 173 LINE",
"95 0 LINE"
);
}
);
width = 997.5;
},
{
layerId = "198E78DA-6138-42C0-8847-C36925CEE918";
paths = (
{
closed = 1;
nodes = (
"613 0 LINE",
"643 140 LINE",
"299 140 LINE",
"299 140 LINE",
"707 440 LINE",
"746 630 LINE",
"621 700 LINE",
"306 700 LINE",
"151 630 LINE",
"122 490 LINE",
"262 490 LINE",
"277 560 LINE",
"277 560 LINE",
"591 560 LINE",
"591 560 LINE",
"579 501 LINE",
"47 108 LINE",
"69 0 LINE"
);
}
);
width = 737;
},
{
layerId = "E0F5E986-8A77-409E-9DB3-A90D066F072F";
paths = (
{
closed = 1;
nodes = (
"665 0 LINE",
"665 70 LINE",
"140 70 LINE",
"140 131 LINE",
"665 420 LINE",
"665 630 LINE",
"525 700 LINE",
"210 700 LINE",
"70 630 LINE",
"70 490 LINE",
"140 490 LINE",
"140 587 LINE",
"227 630 LINE",
"508 630 LINE",
"595 587 LINE",
"595 460 LINE",
"70 170 LINE",
"70 0 LINE"
);
}
);
width = 735;
},
{
hints = (
{
horizontal = 1;
origin = "{0, 4}";
target = "{0, 3}";
type = Stem;
},
{
horizontal = 1;
origin = "{0, 12}";
target = "{0, 7}";
type = Stem;
},
{
origin = "{0, 9}";
target = "{0, 10}";
type = Stem;
},
{
origin = "{0, 2}";
target = "{0, 5}";
type = Stem;
}
);
layerId = "671D7F47-0040-4C88-995A-F1154CC787CA";
paths = (
{
closed = 1;
nodes = (
"928 0 LINE",
"928 70 LINE",
"140 70 LINE",
"140 132 LINE",
"928 395 LINE",
"928 630 LINE",
"787 700 LINE",
"210 700 LINE",
"70 630 LINE",
"70 490 LINE",
"140 490 LINE",
"140 587 LINE",
"227 630 LINE",
"770 630 LINE",
"857 587 LINE",
"857 440 LINE",
"70 179 LINE",
"70 0 LINE"
);
}
);
width = 998;
},
{
hints = (
{
horizontal = 1;
origin = "{0, 17}";
target = "{0, 3}";
type = Stem;
},
{
horizontal = 1;
place = "{630, 70}";
type = Stem;
},
{
place = "{114, 70}";
type = Stem;
},
{
origin = "{0, 4}";
target = "{0, 1}";
type = Stem;
}
);
layerId = "69FAE2FB-B0EC-4DE1-A39D-F4FC44956106";
paths = (
{
closed = 1;
nodes = (
"612 0 LINE",
"626 70 LINE",
"102 70 LINE",
"114 124 LINE",
"699 413 LINE",
"746 630 LINE",
"620 700 LINE",
"306 700 LINE",
"152 630 LINE",
"122 490 LINE",
"192 490 LINE",
"212 587 LINE",
"309 630 LINE",
"589 630 LINE",
"666 587 LINE",
"637 449 LINE",
"51 159 LINE",
"18 0 LINE"
);
}
);
width = 735;
}
);
},
{
glyphname = zero.zero;
lastChange = "2019-06-02 22:31:38 +0000";
layers = (
{
components = (
{
name = zero;
}
);
layerId = "E82D559A-267E-4BF3-BBA1-0778DA3FF57C";
paths = (
{
closed = 1;
nodes = (
"608 570 LINE",
"493 651 LINE",
"128 130 LINE",
"243 49 LINE"
);
}
);
width = 735;
},
{
components = (
{
alignment = -1;
name = zero;
}
);
layerId = "B8F43E33-4D80-4AEE-B4E2-DC92E4FCAAE5";
paths = (
{
closed = 1;
nodes = (
"1022 507 LINE",
"956 630 LINE",
"151 193 LINE",
"218 71 LINE"
);
}
);
width = 1173;
},
{
components = (
{
name = zero;
}
);
layerId = "198E78DA-6138-42C0-8847-C36925CEE918";
paths = (
{
closed = 1;
nodes = (
"684 560 LINE",
"586 644 LINE",
"94 140 LINE",
"192 56 LINE"
);
}
);
width = 736;
},
{
components = (
{
name = zero;
}
);
layerId = "E0F5E986-8A77-409E-9DB3-A90D066F072F";
paths = (
{
closed = 1;
nodes = (
"567 624 LINE",
"507 659 LINE",
"168 74 LINE",
"229 40 LINE"
);
}
);
width = 735;
},
{
components = (
{
alignment = -1;
name = zero;
}
);
layerId = "671D7F47-0040-4C88-995A-F1154CC787CA";
paths = (
{
closed = 1;
nodes = (
"996 633 LINE",
"949 680 LINE",
"178 67 LINE",
"226 21 LINE"
);
}
);
width = 1173;
},
{
components = (
{
alignment = -1;
name = zero;
}
);
layerId = "69FAE2FB-B0EC-4DE1-A39D-F4FC44956106";
paths = (
{
closed = 1;
nodes = (
"654 642 LINE",
"603 683 LINE",
"125 57 LINE",
"177 17 LINE"
);
}
);
width = 736;
}
);
leftMetricsKey = zero;
rightMetricsKey = zero;
},
{
glyphname = period;
lastChange = "2019-06-02 00:52:56 +0000";
layers = (
{
layerId = "E82D559A-267E-4BF3-BBA1-0778DA3FF57C";
paths = (
{
closed = 1;
nodes = (
"210 0 LINE",
"210 140 LINE",
"70 140 LINE",
"70 0 LINE"
);
}
);
width = 280;
},
{
layerId = "B8F43E33-4D80-4AEE-B4E2-DC92E4FCAAE5";
paths = (
{
closed = 1;
nodes = (
"210 0 LINE",
"210 140 LINE",
"70 140 LINE",
"70 0 LINE"
);
}
);
width = 280;
},
{
layerId = "198E78DA-6138-42C0-8847-C36925CEE918";
paths = (
{
closed = 1;
nodes = (
"157 0 LINE",
"187 140 LINE",
"47 140 LINE",
"17 0 LINE"
);
}
);
width = 280;
},
{
layerId = "E0F5E986-8A77-409E-9DB3-A90D066F072F";
paths = (
{
closed = 1;
nodes = (
"70 0 LINE",
"166 0 LINE",
"166 96 LINE",
"70 96 LINE"
);
}
);
width = 236;
},
{
layerId = "671D7F47-0040-4C88-995A-F1154CC787CA";
paths = (
{
closed = 1;
nodes = (
"70 0 LINE",
"166 0 LINE",
"166 96 LINE",
"70 96 LINE"
);
}
);
width = 236;
},
{
layerId = "69FAE2FB-B0EC-4DE1-A39D-F4FC44956106";
paths = (
{
closed = 1;
nodes = (
"17 0 LINE",
"143 0 LINE",
"143 96 LINE",
"17 96 LINE"
);
}
);
width = 236;
}
);
leftKerningGroup = .;
unicode = 002E;
},
{
glyphname = comma;
lastChange = "2019-06-02 00:52:56 +0000";
layers = (
{
layerId = "E82D559A-267E-4BF3-BBA1-0778DA3FF57C";
paths = (
{
closed = 1;
nodes = (
"210 -35 LINE",
"210 140 LINE",
"70 140 LINE",
"70 0 LINE",
"140 0 LINE",
"70 -52 LINE",
"113 -108 LINE"
);
}
);
width = 280;
},
{
layerId = "B8F43E33-4D80-4AEE-B4E2-DC92E4FCAAE5";
paths = (
{
closed = 1;
nodes = (
"210 -35 LINE",
"210 140 LINE",
"70 140 LINE",
"70 0 LINE",
"140 0 LINE",
"70 -52 LINE",
"113 -108 LINE"
);
}
);
width = 280;
},
{
layerId = "198E78DA-6138-42C0-8847-C36925CEE918";
paths = (
{
closed = 1;
nodes = (
"150 -35 LINE",
"187 140 LINE",
"47 140 LINE",
"17 0 LINE",
"86 0 LINE",
"6 -52 LINE",
"39 -108 LINE"
);
}
);
width = 281;
},
{
layerId = "E0F5E986-8A77-409E-9DB3-A90D066F072F";
paths = (
{
closed = 1;
nodes = (
"166 -30 LINE",
"166 96 LINE",
"70 96 LINE",
"70 0 LINE",
"123 0 LINE",
"72 -38 LINE",
"102 -78 LINE"
);
}
);
width = 236;
},
{
layerId = "671D7F47-0040-4C88-995A-F1154CC787CA";
paths = (
{
closed = 1;
nodes = (
"166 -30 LINE",
"166 96 LINE",
"70 96 LINE",
"70 0 LINE",
"123 0 LINE",
"72 -38 LINE",
"102 -78 LINE"
);
}
);
width = 236;
},
{
layerId = "69FAE2FB-B0EC-4DE1-A39D-F4FC44956106";
paths = (
{
closed = 1;
nodes = (
"106 -30 LINE",
"143 96 LINE",
"47 96 LINE",
"17 0 LINE",
"69 0 LINE",
"8 -38 LINE",
"28 -78 LINE"
);
}
);
width = 237;
}
);
leftKerningGroup = .;
unicode = 002C;
},
{
glyphname = colon;
lastChange = "2019-06-02 00:52:56 +0000";
layers = (
{
layerId = "E82D559A-267E-4BF3-BBA1-0778DA3FF57C";
paths = (
{
closed = 1;
nodes = (
"210 0 LINE",
"210 140 LINE",
"70 140 LINE",
"70 0 LINE"
);
},
{
closed = 1;
nodes = (
"210 350 LINE",
"210 490 LINE",
"70 490 LINE",
"70 350 LINE"
);
}
);
width = 280;
},
{
layerId = "B8F43E33-4D80-4AEE-B4E2-DC92E4FCAAE5";
paths = (
{
closed = 1;
nodes = (
"210 0 LINE",
"210 140 LINE",
"70 140 LINE",
"70 0 LINE"
);
},
{
closed = 1;
nodes = (
"210 350 LINE",
"210 490 LINE",
"70 490 LINE",
"70 350 LINE"
);
}
);
width = 280;
},
{
layerId = "198E78DA-6138-42C0-8847-C36925CEE918";
paths = (
{
closed = 1;
nodes = (
"227 0 LINE",
"257 140 LINE",
"117 140 LINE",
"87 0 LINE"
);
},
{
closed = 1;
nodes = (
"301 350 LINE",
"331 490 LINE",
"191 490 LINE",
"161 350 LINE"
);
}
);
width = 280;
},
{
layerId = "E0F5E986-8A77-409E-9DB3-A90D066F072F";
paths = (
{
closed = 1;
nodes = (
"70 0 LINE",
"166 0 LINE",
"166 96 LINE",
"70 96 LINE"
);
},
{
closed = 1;
nodes = (
"70 300 LINE",
"166 300 LINE",
"166 396 LINE",
"70 396 LINE"
);
}
);
width = 236;
},
{
layerId = "671D7F47-0040-4C88-995A-F1154CC787CA";
paths = (
{
closed = 1;
nodes = (
"70 0 LINE",
"166 0 LINE",
"166 96 LINE",
"70 96 LINE"
);
},
{
closed = 1;
nodes = (
"70 300 LINE",
"166 300 LINE",
"166 396 LINE",
"70 396 LINE"
);
}
);
width = 236;
},
{
layerId = "69FAE2FB-B0EC-4DE1-A39D-F4FC44956106";
paths = (
{
closed = 1;
nodes = (
"87 0 LINE",
"213 0 LINE",
"213 96 LINE",
"87 96 LINE"
);
},
{
closed = 1;
nodes = (
"161 300 LINE",
"287 300 LINE",
"287 396 LINE",
"161 396 LINE"
);
}
);
width = 236;
}
);
unicode = 003A;
},
{
glyphname = semicolon;
lastChange = "2019-06-02 00:52:56 +0000";
layers = (
{
layerId = "E82D559A-267E-4BF3-BBA1-0778DA3FF57C";
paths = (
{
closed = 1;
nodes = (
"210 -35 LINE",
"210 140 LINE",
"70 140 LINE",
"70 0 LINE",
"140 0 LINE",
"70 -52 LINE",
"113 -108 LINE"
);
},
{
closed = 1;
nodes = (
"210 350 LINE",
"210 490 LINE",
"70 490 LINE",
"70 350 LINE"
);
}
);
width = 280;
},
{
layerId = "198E78DA-6138-42C0-8847-C36925CEE918";
paths = (
{
closed = 1;
nodes = (
"220 -35 LINE",
"257 140 LINE",
"117 140 LINE",
"87 0 LINE",
"156 0 LINE",
"76 -52 LINE",
"109 -108 LINE"
);
},
{
closed = 1;
nodes = (
"301 350 LINE",
"331 490 LINE",
"191 490 LINE",
"161 350 LINE"
);
}
);
width = 281;
},
{
layerId = "B8F43E33-4D80-4AEE-B4E2-DC92E4FCAAE5";
paths = (
{
closed = 1;
nodes = (
"210 -35 LINE",
"210 140 LINE",
"70 140 LINE",
"70 0 LINE",
"140 0 LINE",
"70 -52 LINE",
"113 -108 LINE"
);
},
{
closed = 1;
nodes = (
"210 350 LINE",
"210 490 LINE",
"70 490 LINE",
"70 350 LINE"
);
}
);
width = 280;
},
{
layerId = "E0F5E986-8A77-409E-9DB3-A90D066F072F";
paths = (
{
closed = 1;
nodes = (
"166 -30 LINE",
"166 96 LINE",
"70 96 LINE",
"70 0 LINE",
"123 0 LINE",
"72 -38 LINE",
"102 -78 LINE"
);
},
{
closed = 1;
nodes = (
"166 300 LINE",
"166 396 LINE",
"70 396 LINE",
"70 300 LINE"
);
}
);
width = 236;
},
{
layerId = "671D7F47-0040-4C88-995A-F1154CC787CA";
paths = (
{
closed = 1;
nodes = (
"166 -30 LINE",
"166 96 LINE",
"70 96 LINE",
"70 0 LINE",
"123 0 LINE",
"72 -38 LINE",
"102 -78 LINE"
);
},
{
closed = 1;
nodes = (
"166 300 LINE",
"166 396 LINE",
"70 396 LINE",
"70 300 LINE"
);
}
);
width = 236;
},
{
layerId = "69FAE2FB-B0EC-4DE1-A39D-F4FC44956106";
paths = (
{
closed = 1;
nodes = (
"176 -30 LINE",
"213 96 LINE",
"117 96 LINE",
"87 0 LINE",
"139 0 LINE",
"78 -38 LINE",
"98 -78 LINE"
);
},
{
closed = 1;
nodes = (
"257 300 LINE",
"287 396 LINE",
"191 396 LINE",
"161 300 LINE"
);
}
);
width = 237;
}
);
unicode = 003B;
},
{
glyphname = exclam;
lastChange = "2019-06-06 02:54:49 +0000";
layers = (
{
hints = (
{
horizontal = 1;
origin = "{1, 3}";
target = "{1, 2}";
type = Stem;
},
{
origin = "{1, 3}";
target = "{1, 0}";
type = Stem;
}
);
layerId = "E82D559A-267E-4BF3-BBA1-0778DA3FF57C";
paths = (
{
closed = 1;
nodes = (
"175 210 LINE",
"210 490 LINE",
"210 700 LINE",
"70 700 LINE",
"70 490 LINE",
"105 210 LINE"
);
},
{
closed = 1;
nodes = (
"210 0 LINE",
"210 140 LINE",
"70 140 LINE",
"70 0 LINE"
);
}
);
width = 280;
},
{
layerId = "B8F43E33-4D80-4AEE-B4E2-DC92E4FCAAE5";
paths = (
{
closed = 1;
nodes = (
"175 210 LINE",
"210 490 LINE",
"210 700 LINE",
"70 700 LINE",
"70 490 LINE",
"105 210 LINE"
);
},
{
closed = 1;
nodes = (
"210 0 LINE",
"210 140 LINE",
"70 140 LINE",
"70 0 LINE"
);
}
);
width = 280;
},
{
layerId = "198E78DA-6138-42C0-8847-C36925CEE918";
paths = (
{
closed = 1;
nodes = (
"167 210 LINE",
"262 490 LINE",
"306 700 LINE",
"166 700 LINE",
"122 490 LINE",
"97 210 LINE"
);
},
{
closed = 1;
nodes = (
"158 0 LINE",
"187 140 LINE",
"47 140 LINE",
"18 0 LINE"
);
}
);
width = 281;
},
{
layerId = "E0F5E986-8A77-409E-9DB3-A90D066F072F";
paths = (
{
closed = 1;
nodes = (
"180 166 LINE",
"205 466 LINE",
"205 700 LINE",
"105 700 LINE",
"105 466 LINE",
"130 166 LINE"
);
},
{
closed = 1;
nodes = (
"203 0 LINE",
"203 96 LINE",
"107 96 LINE",
"107 0 LINE"
);
}
);
width = 310;
},
{
hints = (
{
horizontal = 1;
origin = "{1, 3}";
target = "{1, 2}";
type = Stem;
},
{
origin = "{1, 3}";
target = "{1, 0}";
type = Stem;
}
);
layerId = "671D7F47-0040-4C88-995A-F1154CC787CA";
paths = (
{
closed = 1;
nodes = (
"180 166 LINE",
"205 466 LINE",
"205 700 LINE",
"105 700 LINE",
"105 466 LINE",
"130 166 LINE"
);
},
{
closed = 1;
nodes = (
"203 0 LINE",
"203 96 LINE",
"107 96 LINE",
"107 0 LINE"
);
}
);
width = 310;
},
{
hints = (
{
horizontal = 1;
place = "{0, 96}";
type = Stem;
},
{
place = "{54, 96}";
type = Stem;
}
);
layerId = "69FAE2FB-B0EC-4DE1-A39D-F4FC44956106";
paths = (
{
closed = 1;
nodes = (
"163 166 LINE",
"252 466 LINE",
"301 700 LINE",
"201 700 LINE",
"152 466 LINE",
"113 166 LINE"
);
},
{
closed = 1;
nodes = (
"151 0 LINE",
"171 96 LINE",
"75 96 LINE",
"55 0 LINE"
);
}
);
width = 311;
}
);
unicode = 0021;
},
{
glyphname = question;
lastChange = "2019-06-04 03:28:12 +0000";
layers = (
{
hints = (
{
horizontal = 1;
origin = "{1, 3}";
target = "{1, 2}";
type = Stem;
},
{
horizontal = 1;
origin = "{0, 10}";
target = "{0, 5}";
type = Stem;
},
{
origin = "{0, 7}";
target = "{0, 8}";
type = Stem;
},
{
origin = "{1, 3}";
target = "{1, 0}";
type = Stem;
},
{
origin = "{0, 13}";
target = "{0, 2}";
type = Stem;
}
);
layerId = "E82D559A-267E-4BF3-BBA1-0778DA3FF57C";
paths = (
{
closed = 1;
nodes = (
"402 210 LINE",
"402 271 LINE",
"595 480 LINE",
"595 630 LINE",
"455 700 LINE",
"210 700 LINE",
"70 630 LINE",
"70 490 LINE",
"210 490 LINE",
"210 570 LINE",
"210 570 LINE",
"445 570 LINE",
"445 570 LINE",
"445 498 LINE",
"262 296 LINE",
"262 210 LINE"
);
},
{
closed = 1;
nodes = (
"402 0 LINE",
"402 140 LINE",
"262 140 LINE",
"262 0 LINE"
);
}
);
width = 665;
},
{
layerId = "B8F43E33-4D80-4AEE-B4E2-DC92E4FCAAE5";
paths = (
{
closed = 1;
nodes = (
"587 210 LINE",
"587 257 LINE",
"963 408 LINE",
"963 630 LINE",
"823 700 LINE",
"210 700 LINE",
"70 630 LINE",
"70 490 LINE",
"210 490 LINE",
"210 560 LINE",
"210 560 LINE",
"823 560 LINE",
"823 560 LINE",
"823 495 LINE",
"447 345 LINE",
"447 210 LINE"
);
},
{
closed = 1;
nodes = (
"587 0 LINE",
"587 140 LINE",
"447 140 LINE",
"447 0 LINE"
);
}
);
width = 1033;
},
{
layerId = "198E78DA-6138-42C0-8847-C36925CEE918";
paths = (
{
closed = 1;
nodes = (
"395 210 LINE",
"409 271 LINE",
"646 480 LINE",
"676 630 LINE",
"551 700 LINE",
"306 700 LINE",
"151 630 LINE",
"122 490 LINE",
"262 490 LINE",
"279 569 LINE",
"279 569 LINE",
"513 569 LINE",
"513 569 LINE",
"498 498 LINE",
"272 296 LINE",
"255 210 LINE"
);
},
{
closed = 1;
nodes = (
"350 0 LINE",
"380 140 LINE",
"240 140 LINE",
"210 0 LINE"
);
}
);
width = 667;
},
{
layerId = "E0F5E986-8A77-409E-9DB3-A90D066F072F";
paths = (
{
closed = 1;
nodes = (
"368 165 LINE",
"368 315 LINE",
"595 440 LINE",
"595 630 LINE",
"455 700 LINE",
"210 700 LINE",
"70 630 LINE",
"70 490 LINE",
"140 490 LINE",
"140 587 LINE",
"227 630 LINE",
"438 630 LINE",
"525 587 LINE",
"525 476 LINE",
"298 350 LINE",
"298 165 LINE"
);
},
{
closed = 1;
nodes = (
"380 0 LINE",
"380 96 LINE",
"284 96 LINE",
"284 0 LINE"
);
}
);
width = 665;
},
{
hints = (
{
horizontal = 1;
origin = "{1, 3}";
target = "{1, 2}";
type = Stem;
},
{
horizontal = 1;
origin = "{0, 15}";
target = "{0, 14}";
type = Stem;
},
{
place = "{530, 70}";
type = Stem;
},
{
origin = "{1, 3}";
target = "{1, 0}";
type = Stem;
},
{
place = "{847, -87}";
type = Stem;
}
);
layerId = "671D7F47-0040-4C88-995A-F1154CC787CA";
paths = (
{
closed = 1;
nodes = (
"530 165 LINE",
"530 300 LINE",
"917 434 LINE",
"917 630 LINE",
"777 700 LINE",
"210 700 LINE",
"70 630 LINE",
"70 490 LINE",
"140 490 LINE",
"140 587 LINE",
"227 630 LINE",
"760 630 LINE",
"847 587 LINE",
"847 483 LINE",
"460 349 LINE",
"460 165 LINE"
);
},
{
closed = 1;
nodes = (
"542 0 LINE",
"542 96 LINE",
"446 96 LINE",
"446 0 LINE"
);
}
);
width = 987;
},
{
hints = (
{
horizontal = 1;
place = "{0, 96}";
type = Stem;
},
{
horizontal = 1;
place = "{629, 71}";
type = Stem;
},
{
place = "{174, 70}";
type = Stem;
},
{
place = "{284, 96}";
type = Stem;
},
{
place = "{630, 68}";
type = Stem;
}
);
layerId = "69FAE2FB-B0EC-4DE1-A39D-F4FC44956106";
paths = (
{
closed = 1;
nodes = (
"350 165 LINE",
"382 315 LINE",
"635 440 LINE",
"676 630 LINE",
"550 700 LINE",
"305 700 LINE",
"151 630 LINE",
"121 490 LINE",
"191 490 LINE",
"211 587 LINE",
"308 630 LINE",
"519 630 LINE",
"596 587 LINE",
"573 476 LINE",
"319 350 LINE",
"280 165 LINE"
);
},
{
closed = 1;
nodes = (
"327 0 LINE",
"347 96 LINE",
"251 96 LINE",
"231 0 LINE"
);
}
);
width = 665;
}
);
unicode = 003F;
},
{
glyphname = bullet;
lastChange = "2019-06-06 02:56:02 +0000";
layers = (
{
layerId = "E82D559A-267E-4BF3-BBA1-0778DA3FF57C";
paths = (
{
closed = 1;
nodes = (
"233 245 OFFCURVE",
"280 292 OFFCURVE",
"280 350 CURVE SMOOTH",
"280 408 OFFCURVE",
"233 455 OFFCURVE",
"175 455 CURVE SMOOTH",
"117 455 OFFCURVE",
"70 408 OFFCURVE",
"70 350 CURVE SMOOTH",
"70 292 OFFCURVE",
"117 245 OFFCURVE",
"175 245 CURVE SMOOTH"
);
}
);
width = 350;
},
{
layerId = "198E78DA-6138-42C0-8847-C36925CEE918";
paths = (
{
closed = 1;
nodes = (
"232 245 OFFCURVE",
"289 292 OFFCURVE",
"301 350 CURVE SMOOTH",
"313 408 OFFCURVE",
"276 455 OFFCURVE",
"218 455 CURVE SMOOTH",
"160 455 OFFCURVE",
"103 408 OFFCURVE",
"91 350 CURVE SMOOTH",
"79 292 OFFCURVE",
"116 245 OFFCURVE",
"174 245 CURVE SMOOTH"
);
}
);
width = 350;
},
{
layerId = "B8F43E33-4D80-4AEE-B4E2-DC92E4FCAAE5";
paths = (
{
closed = 1;
nodes = (
"233 245 OFFCURVE",
"280 292 OFFCURVE",
"280 350 CURVE SMOOTH",
"280 408 OFFCURVE",
"233 455 OFFCURVE",
"175 455 CURVE SMOOTH",
"117 455 OFFCURVE",
"70 408 OFFCURVE",
"70 350 CURVE SMOOTH",
"70 292 OFFCURVE",
"117 245 OFFCURVE",
"175 245 CURVE SMOOTH"
);
}
);
width = 350;
},
{
layerId = "E0F5E986-8A77-409E-9DB3-A90D066F072F";
paths = (
{
closed = 1;
nodes = (
"240 263 OFFCURVE",
"279 302 OFFCURVE",
"279 350 CURVE SMOOTH",
"279 398 OFFCURVE",
"240 437 OFFCURVE",
"192 437 CURVE SMOOTH",
"144 437 OFFCURVE",
"105 398 OFFCURVE",
"105 350 CURVE SMOOTH",
"105 302 OFFCURVE",
"144 263 OFFCURVE",
"192 263 CURVE SMOOTH"
);
}
);
width = 384;
},
{
layerId = "671D7F47-0040-4C88-995A-F1154CC787CA";
paths = (
{
closed = 1;
nodes = (
"240 263 OFFCURVE",
"279 302 OFFCURVE",
"279 350 CURVE SMOOTH",
"279 398 OFFCURVE",
"240 437 OFFCURVE",
"192 437 CURVE SMOOTH",
"144 437 OFFCURVE",
"105 398 OFFCURVE",
"105 350 CURVE SMOOTH",
"105 302 OFFCURVE",
"144 263 OFFCURVE",
"192 263 CURVE SMOOTH"
);
}
);
width = 384;
},
{
layerId = "69FAE2FB-B0EC-4DE1-A39D-F4FC44956106";
paths = (
{
closed = 1;
nodes = (
"243 263 OFFCURVE",
"290 302 OFFCURVE",
"300 350 CURVE SMOOTH",
"310 398 OFFCURVE",
"279 437 OFFCURVE",
"231 437 CURVE SMOOTH",
"183 437 OFFCURVE",
"136 398 OFFCURVE",
"126 350 CURVE SMOOTH",
"116 302 OFFCURVE",
"147 263 OFFCURVE",
"195 263 CURVE SMOOTH"
);
}
);
width = 384;
}
);
unicode = 2022;
},
{
glyphname = asterisk;
lastChange = "2019-06-02 00:52:56 +0000";
layers = (
{
layerId = "E82D559A-267E-4BF3-BBA1-0778DA3FF57C";
paths = (
{
closed = 1;
nodes = (
"266 532 LINE",
"228 532 LINE",
"322 404 LINE",
"378 445 LINE",
"284 573 LINE",
"273 538 LINE",
"424 587 LINE",
"403 653 LINE",
"252 604 LINE",
"282 583 LINE",
"282 741 LINE",
"212 741 LINE",
"212 583 LINE",
"242 604 LINE",
"91 653 LINE",
"70 587 LINE",
"221 538 LINE",
"210 573 LINE",
"116 445 LINE",
"172 404 LINE"
);
}
);
width = 494;
},
{
layerId = "B8F43E33-4D80-4AEE-B4E2-DC92E4FCAAE5";
paths = (
{
closed = 1;
nodes = (
"266 532 LINE",
"228 532 LINE",
"322 404 LINE",
"378 445 LINE",
"284 573 LINE",
"273 538 LINE",
"424 587 LINE",
"403 653 LINE",
"252 604 LINE",
"282 583 LINE",
"282 741 LINE",
"212 741 LINE",
"212 583 LINE",
"242 604 LINE",
"91 653 LINE",
"70 587 LINE",
"221 538 LINE",
"210 573 LINE",
"116 445 LINE",
"172 404 LINE"
);
}
);
width = 494;
},
{
layerId = "198E78DA-6138-42C0-8847-C36925CEE918";
paths = (
{
closed = 1;
nodes = (
"329 529 LINE",
"292 537 LINE",
"357 392 LINE",
"421 421 LINE",
"355 565 LINE",
"337 533 LINE",
"495 550 LINE",
"488 619 LINE",
"330 602 LINE",
"355 575 LINE",
"388 730 LINE",
"320 745 LINE",
"287 590 LINE",
"321 604 LINE",
"183 684 LINE",
"149 623 LINE",
"286 544 LINE",
"283 581 LINE",
"164 475 LINE",
"211 423 LINE"
);
}
);
width = 501;
},
{
layerId = "E0F5E986-8A77-409E-9DB3-A90D066F072F";
paths = (
{
closed = 1;
nodes = (
"266 532 LINE",
"228 532 LINE",
"322 404 LINE",
"378 445 LINE",
"284 573 LINE",
"273 538 LINE",
"424 587 LINE",
"403 653 LINE",
"252 604 LINE",
"282 583 LINE",
"282 741 LINE",
"212 741 LINE",
"212 583 LINE",
"242 604 LINE",
"91 653 LINE",
"70 587 LINE",
"221 538 LINE",
"210 573 LINE",
"116 445 LINE",
"172 404 LINE"
);
}
);
width = 494;
},
{
layerId = "671D7F47-0040-4C88-995A-F1154CC787CA";
paths = (
{
closed = 1;
nodes = (
"266 532 LINE",
"228 532 LINE",
"322 404 LINE",
"378 445 LINE",
"284 573 LINE",
"273 538 LINE",
"424 587 LINE",
"403 653 LINE",
"252 604 LINE",
"282 583 LINE",
"282 741 LINE",
"212 741 LINE",
"212 583 LINE",
"242 604 LINE",
"91 653 LINE",
"70 587 LINE",
"221 538 LINE",
"210 573 LINE",
"116 445 LINE",
"172 404 LINE"
);
}
);
width = 494;
},
{
layerId = "69FAE2FB-B0EC-4DE1-A39D-F4FC44956106";
paths = (
{
closed = 1;
nodes = (
"329 529 LINE",
"292 537 LINE",
"357 392 LINE",
"421 421 LINE",
"355 565 LINE",
"337 533 LINE",
"495 550 LINE",
"488 619 LINE",
"330 602 LINE",
"355 575 LINE",
"388 730 LINE",
"320 745 LINE",
"287 590 LINE",
"321 604 LINE",
"183 684 LINE",
"149 623 LINE",
"286 544 LINE",
"283 581 LINE",
"164 475 LINE",
"211 423 LINE"
);
}
);
width = 501;
}
);
unicode = 002A;
},
